<?xml version="1.0" standalone="no"?>
<svg version="1.0" xmlns="http://www.w3.org/2000/svg"
 width="64.000000pt" height="64.000000pt" viewBox="0 0 64.000000 64.000000"
 preserveAspectRatio="xMidYMid meet">
<g transform="translate(0.000000,64.000000) scale(0.100000,-0.100000)"
fill="#ffffff" stroke="none">
<path d="M296 564 c-10 -27 -7 -34 18 -34 25 0 36 15 29 38 -7 17 -40 15 -47
-4z"/>
<path d="M261 510 c-7 -4 -44 -79 -83 -166 -54 -125 -71 -173 -75 -224 l-6
-65 32 29 c28 27 29 31 16 46 -8 9 -15 24 -15 32 0 14 46 62 96 98 30 22 110
208 98 228 -13 20 -47 32 -63 22z"/>
<path d="M300 330 c-35 -68 -35 -71 -15 -64 18 7 65 -3 65 -14 0 -4 -22 -8
-48 -8 -55 -2 -96 -20 -131 -58 -23 -25 -24 -27 -8 -43 14 -15 22 -15 50 -5
52 19 99 15 138 -12 59 -40 112 -51 178 -38 31 7 67 12 79 12 21 0 22 4 22 90
0 89 0 90 -25 90 -27 0 -80 20 -197 74 l-78 35 -30 -59z m157 -41 c54 -23 105
-45 113 -49 10 -5 15 -22 15 -51 0 -43 -1 -43 -45 -56 -56 -17 -92 -11 -181
32 -72 34 -74 38 -27 49 33 8 46 41 24 65 -17 19 -22 51 -7 51 5 0 54 -19 108
-41z"/>
<path d="M98 313 c-30 -20 -42 -39 -64 -99 -28 -78 -25 -100 12 -92 13 2 29
33 56 103 21 55 37 103 35 106 -1 4 -19 -5 -39 -18z"/>
<path d="M231 121 c-8 -5 -11 -16 -6 -30 9 -30 40 -23 40 8 0 27 -13 35 -34
22z"/>
<path d="M290 121 c0 -23 14 -41 31 -41 25 0 24 26 0 40 -24 12 -31 13 -31 1z"/>
<path d="M170 95 c-7 -9 -10 -18 -7 -21 10 -11 37 5 37 21 0 19 -14 19 -30 0z"/>
</g>
</svg>
