<?xml version="1.0" standalone="no"?>
<svg version="1.0" xmlns="http://www.w3.org/2000/svg"
 width="250.000000pt" height="416.000000pt" viewBox="0 0 255.000000 421.000000"
 preserveAspectRatio="xMidYMid meet">
<g transform="translate(0.000000,421.000000) scale(0.100000,-0.100000)"
fill="#ffffff" stroke="none">
<path d="M1224 4161 c-31 -19 -64 -82 -64 -122 0 -29 25 -84 50 -109 l21 -21
-32 -57 c-38 -68 -91 -141 -102 -142 -4 0 -22 14 -40 30 -41 39 -156 95 -225
109 -272 56 -563 -131 -667 -427 -37 -109 -27 -265 26 -377 l21 -45 -22 -70
c-75 -233 78 -467 291 -447 135 12 235 120 207 224 -10 40 -61 83 -98 83 -22
0 -30 -6 -39 -31 -16 -45 -13 -48 13 -15 15 18 26 24 30 17 4 -6 1 -12 -6 -12
-7 -1 0 -4 16 -8 16 -3 31 -12 34 -19 3 -11 0 -12 -15 -4 -53 29 -111 -32 -66
-69 9 -8 26 -13 37 -11 17 2 18 1 6 -7 -8 -6 -10 -11 -4 -11 6 0 18 8 26 18
12 14 13 21 3 40 -8 15 -15 20 -19 13 -4 -6 -4 -11 1 -11 4 0 1 -5 -7 -11 -13
-8 -13 -9 2 -7 9 2 17 -1 17 -7 0 -14 -41 -6 -59 11 -12 12 -12 16 3 32 17 16
18 16 11 -3 -7 -20 -7 -20 14 -1 19 16 26 17 48 7 22 -10 25 -16 19 -39 -8
-32 -42 -62 -70 -59 -12 1 -19 -3 -17 -11 1 -8 -2 -11 -9 -7 -8 5 -8 10 0 18
8 8 5 17 -11 34 -16 17 -22 36 -23 70 0 57 -20 68 -30 16 -4 -24 -3 -39 4 -41
6 -2 9 -7 6 -11 -7 -13 15 -82 26 -76 5 4 9 1 9 -5 0 -7 -7 -10 -15 -6 -8 3
-26 1 -40 -4 -15 -6 -26 -6 -30 0 -4 6 -18 10 -32 10 -35 0 -78 33 -93 72 -7
18 -20 41 -28 50 -8 10 -12 24 -9 32 3 8 3 17 -1 19 -4 2 -1 2 7 0 8 -2 11 2
7 12 -3 8 -1 15 4 15 17 0 20 -18 5 -30 -8 -7 -15 -18 -15 -24 0 -13 40 -40
48 -32 3 3 0 6 -7 6 -7 0 -10 4 -6 9 3 5 -1 11 -9 13 -13 3 -12 6 1 23 13 16
15 17 10 3 -4 -10 -4 -18 0 -18 3 0 12 8 19 18 13 15 13 14 5 -8 -6 -18 -5
-29 5 -38 9 -8 14 -9 14 -2 0 6 4 9 9 5 5 -3 13 0 17 7 5 8 10 6 15 -8 5 -13
7 -9 6 16 0 19 3 44 7 55 8 20 7 20 -8 1 -9 -11 -16 -28 -16 -37 0 -10 -5 -21
-12 -25 -11 -7 -10 4 7 51 5 16 5 17 -4 5 -8 -11 -11 -11 -11 -2 0 10 -5 10
-21 1 -17 -8 -24 -8 -36 3 -15 16 -7 52 10 41 6 -3 7 -1 3 5 -3 6 2 25 13 43
15 24 17 36 9 46 -16 20 -32 16 -17 -4 13 -16 12 -17 -3 -4 -10 7 -15 18 -12
23 4 5 -14 31 -39 56 -24 26 -50 57 -55 68 -11 20 -8 22 50 28 33 3 70 6 82 5
39 -1 -35 -28 -84 -30 l-45 -2 40 -7 c22 -4 32 -8 23 -9 -9 0 -20 -6 -24 -12
-5 -9 1 -10 22 -5 16 4 31 12 35 17 25 40 309 56 309 18 0 -6 -9 -5 -20 1 -11
6 -20 7 -20 2 0 -4 -9 -8 -19 -8 -11 0 -17 4 -15 8 3 4 1 8 -5 8 -5 0 -15 -8
-20 -17 -10 -17 -10 -16 -11 2 0 15 -2 17 -9 6 -6 -9 -10 -10 -12 -2 -3 7 -12
9 -22 5 -16 -6 -16 -8 5 -20 13 -7 30 -16 38 -20 31 -15 70 -46 70 -56 0 -7
-4 -7 -13 1 -8 6 -16 9 -19 6 -2 -3 -15 6 -28 20 -13 14 -28 25 -34 25 -5 0 5
-16 24 -35 21 -22 36 -31 41 -24 5 8 8 8 13 0 4 -6 2 -11 -5 -11 -7 0 -2 -11
11 -25 13 -14 21 -25 17 -25 -4 0 -25 20 -48 45 -23 25 -46 45 -52 45 -6 0 9
-20 33 -45 24 -25 40 -45 35 -45 -6 0 -3 -5 5 -11 13 -9 12 -10 -3 -5 -9 3
-17 0 -17 -6 0 -6 -3 -8 -6 -5 -4 4 -1 14 7 24 9 11 10 14 1 9 -8 -5 -15 1
-21 17 -5 13 -24 37 -43 52 -19 15 -25 24 -14 21 16 -5 17 -4 6 9 -14 17 -35
21 -25 4 4 -6 1 -9 -7 -7 -7 2 -13 -1 -13 -7 0 -5 5 -9 10 -7 6 1 2 -4 -7 -11
-10 -8 -16 -16 -13 -18 2 -3 -6 -5 -20 -4 -24 0 -75 40 -75 59 0 5 15 -4 33
-21 32 -30 71 -36 46 -7 -9 11 -9 14 0 14 7 0 9 5 6 11 -4 6 -14 8 -24 5 -10
-4 -7 1 7 13 13 11 30 17 37 14 8 -3 15 0 15 6 0 14 -14 14 -65 0 -78 -22 -81
-29 -24 -85 30 -29 47 -41 43 -29 -6 17 -2 15 22 -7 31 -30 28 -46 -6 -28 -18
10 -21 9 -15 0 6 -10 1 -11 -19 -6 -28 7 -33 -2 -13 -24 10 -12 9 -12 -4 -2
-14 10 -18 9 -24 -5 -11 -26 -13 -53 -4 -58 9 -6 21 24 13 36 -3 5 -1 9 4 9
15 0 22 -28 9 -33 -9 -3 -9 -8 1 -18 10 -11 12 -10 14 6 0 11 1 26 1 33 -1 7
2 11 5 8 3 -3 10 -2 16 4 7 5 18 5 26 0 12 -7 12 -12 2 -22 -15 -15 -16 -28
-2 -28 6 0 10 7 10 16 0 8 4 13 9 9 6 -3 9 3 8 14 0 11 -12 25 -25 31 -14 6
-22 14 -18 17 3 4 12 1 18 -5 15 -15 32 -16 23 -2 -3 6 -1 10 6 10 7 0 3 10
-9 23 -30 32 -28 46 3 17 14 -13 25 -29 25 -36 0 -6 6 -14 14 -17 21 -8 -6 40
-33 59 -12 9 -21 20 -21 26 0 7 13 -1 30 -17 17 -16 30 -24 30 -18 0 6 -12 21
-28 32 -15 11 -22 21 -15 21 14 0 85 -81 77 -89 -3 -3 -12 3 -20 13 -8 11 -14
16 -14 11 0 -5 7 -16 16 -26 17 -18 10 -44 -8 -33 -6 4 -8 -1 -3 -15 4 -12 2
-27 -3 -34 -6 -7 -6 -21 -1 -36 l10 -24 18 34 c55 103 246 133 300 47 10 -16
8 -22 -13 -39 -31 -25 -32 -41 -6 -77 18 -24 19 -33 10 -82 -11 -60 -27 -82
-71 -100 -37 -16 -39 -56 -5 -98 l25 -29 -21 -34 c-32 -54 -97 -116 -170 -161
-226 -141 -295 -200 -358 -307 -56 -95 -75 -167 -74 -281 1 -153 44 -281 137
-406 47 -64 172 -171 239 -205 40 -20 40 -21 33 -65 -5 -32 -1 -60 11 -94 17
-47 17 -50 -2 -86 -10 -20 -34 -48 -52 -62 -19 -15 -49 -42 -67 -59 -35 -34
-65 -43 -65 -19 0 7 9 16 20 19 11 3 20 10 20 16 0 6 -16 2 -36 -9 -39 -22
-54 -19 -54 11 0 28 43 46 75 31 24 -11 25 -10 15 8 -12 23 -66 27 -93 7 -22
-16 -37 -69 -26 -90 7 -11 4 -17 -11 -22 -11 -3 -20 -15 -20 -25 0 -10 -9 -35
-21 -55 -23 -38 -21 -83 7 -137 13 -26 13 -28 -4 -28 -20 0 -44 -24 -85 -86
-24 -35 -27 -50 -27 -120 0 -129 -40 -118 437 -125 707 -10 1785 -4 1810 9 48
26 54 177 9 234 -11 15 -29 38 -39 52 -11 16 -27 26 -42 26 -29 0 -30 2 -9 42
19 36 15 112 -9 173 -11 30 -22 42 -44 46 -15 4 -22 7 -16 8 21 2 26 47 9 79
-16 32 -34 42 -72 42 -32 0 -78 -45 -69 -68 9 -25 -94 78 -112 111 -13 26 -13
33 1 67 10 24 13 56 10 91 l-5 54 71 43 c163 101 263 227 326 412 28 82 26
252 -3 346 -47 149 -149 260 -357 390 -89 55 -200 153 -222 196 -13 25 -13 31
5 56 10 15 22 39 25 54 5 23 2 30 -21 42 -51 26 -76 62 -81 116 -3 35 0 57 12
74 22 35 20 61 -6 79 -30 20 -17 44 40 74 39 19 47 20 95 9 59 -14 107 -37
127 -60 16 -20 42 -3 33 22 -3 10 -1 13 4 7 7 -9 17 -12 58 -18 6 -1 9 11 7
26 -2 17 1 26 7 23 5 -4 8 -21 6 -39 -3 -20 -1 -27 4 -18 9 14 63 23 78 12 13
-10 35 -80 28 -91 -3 -5 -1 -10 4 -10 14 0 14 43 1 56 -5 5 -11 22 -12 37 -1
14 -8 29 -16 32 -7 2 -11 1 -8 -3 2 -4 -6 -7 -19 -7 -14 0 -22 5 -20 15 1 8
-2 21 -8 28 -6 8 -6 12 2 12 7 0 9 5 6 10 -12 19 12 10 31 -11 19 -22 19 -22
-3 -10 -19 10 -22 9 -20 -9 1 -14 8 -19 24 -18 13 2 23 8 23 15 0 6 5 15 12
19 6 4 8 3 4 -4 -3 -6 -2 -13 3 -16 10 -7 25 23 22 43 -2 12 0 13 13 2 11 -10
13 -18 6 -31 -13 -25 -2 -53 19 -46 12 5 12 3 -2 -8 -15 -12 -17 -18 -7 -36 6
-11 8 -30 4 -42 -4 -14 -2 -18 5 -14 7 5 8 1 4 -11 -5 -14 -10 -10 -24 22
l-18 40 1 -31 c1 -17 -3 -37 -7 -45 -7 -12 -6 -12 9 0 16 13 17 12 13 -13 -2
-15 -8 -31 -15 -35 -6 -4 -10 -17 -7 -29 2 -13 0 -20 -6 -17 -5 4 -6 11 -3 17
4 6 1 8 -7 6 -8 -3 -13 -11 -12 -17 3 -11 -52 -38 -95 -46 -33 -6 -74 4 -66
16 3 5 1 9 -5 9 -21 0 -21 -21 1 -30 23 -10 23 -10 -2 -5 -14 4 -31 7 -39 7
-10 1 -10 4 3 13 8 7 13 15 9 18 -3 4 -1 8 5 8 7 1 18 2 25 3 6 0 14 12 15 25
2 14 10 34 18 46 11 17 12 29 5 49 -14 35 -20 33 -16 -6 3 -27 2 -29 -6 -15
-15 26 -14 78 2 88 11 7 9 9 -8 9 -16 0 -21 -4 -17 -15 5 -12 -1 -14 -25 -11
-38 4 -104 -27 -120 -57 -28 -53 -20 -121 21 -172 29 -38 133 -85 185 -85 112
0 231 88 274 203 32 82 32 200 2 269 l-21 46 24 49 c44 93 56 213 33 325 -28
138 -141 297 -273 385 -106 71 -184 96 -305 96 -137 1 -233 -32 -347 -118
l-31 -24 -37 49 c-20 26 -50 72 -66 101 l-29 53 29 33 c55 62 48 146 -16 203
-42 36 -101 41 -150 11z m114 -33 c18 -18 14 -56 -7 -67 -10 -6 -21 -8 -24 -5
-3 3 -12 2 -19 -2 -22 -14 -40 -13 -34 1 3 9 0 12 -10 8 -20 -7 -19 35 3 59
18 20 73 24 91 6z m48 -92 c-1 -19 -5 -31 -10 -28 -5 3 -7 -2 -4 -10 4 -8 -2
-21 -13 -29 -10 -7 -19 -19 -19 -27 0 -7 -5 -10 -10 -7 -6 3 -13 -1 -16 -10
-5 -12 -9 -13 -14 -5 -6 10 -24 16 -52 19 -12 1 -38 71 -38 100 0 20 2 23 10
11 5 -8 10 -10 10 -5 0 6 5 3 10 -5 12 -19 85 -19 102 -1 11 11 10 12 -1 6 -9
-5 -12 -4 -7 3 4 6 13 9 20 6 8 -3 17 -1 21 5 10 17 12 13 11 -23z m-116 -119
c0 -17 -46 -131 -76 -187 -26 -50 -58 -91 -108 -136 -64 -60 -71 -64 -83 -48
-20 27 -16 36 40 80 69 53 141 144 180 226 18 37 35 67 40 67 4 1 7 -1 7 -2z
m124 -112 c41 -69 72 -106 132 -158 44 -38 80 -73 82 -78 2 -5 -3 -18 -11 -29
-13 -19 -17 -17 -93 58 -65 63 -88 95 -127 172 -26 52 -49 109 -52 125 -7 36
-4 33 69 -90z m-40 -85 c20 -41 48 -85 62 -97 l25 -23 -58 -71 c-32 -39 -64
-83 -72 -97 l-14 -25 -14 27 c-8 15 -39 59 -68 97 l-54 70 33 47 c45 63 72
119 87 177 l12 48 12 -39 c7 -21 28 -73 49 -114z m-604 65 c0 -25 -4 -45 -10
-45 -5 0 -10 20 -10 45 0 25 5 45 10 45 6 0 10 -20 10 -45z m-34 10 c8 -32 -1
-55 -21 -55 -9 0 -18 12 -22 30 -3 17 -10 33 -15 36 -6 4 -8 -2 -4 -15 3 -11
8 -30 11 -40 3 -11 1 -22 -4 -25 -13 -8 -41 32 -35 49 3 7 1 16 -4 19 -14 8
-22 -18 -11 -35 12 -19 11 -49 -1 -49 -5 0 -18 17 -29 38 -11 20 -20 33 -21
29 0 -4 7 -22 16 -39 16 -30 15 -32 -7 -50 -24 -18 -24 -18 -57 18 -41 43 -51
40 -17 -6 32 -44 32 -54 -7 -112 -30 -44 -58 -62 -58 -38 0 6 7 10 15 10 21 0
1 39 -31 63 -28 21 -44 16 -24 -8 10 -12 10 -15 -4 -15 -9 0 -17 -9 -18 -22
-1 -13 -2 -30 -4 -38 -1 -8 -2 -21 -3 -27 -1 -7 -6 -13 -12 -13 -14 0 -1 85
18 123 19 39 10 45 -15 10 -23 -33 -37 -72 -33 -92 2 -10 -4 -12 -23 -7 -15 4
-26 2 -26 -4 0 -9 14 -14 33 -11 4 0 7 -13 7 -30 0 -21 -4 -30 -12 -26 -38 14
-58 17 -58 10 0 -11 51 -34 61 -27 5 3 9 -6 9 -20 0 -14 -4 -26 -10 -26 -5 0
-10 7 -10 15 0 8 -3 15 -7 15 -5 0 -19 3 -33 5 -22 5 -22 4 5 -10 l30 -16 -28
6 c-18 4 -26 2 -22 -4 3 -6 21 -13 40 -17 20 -3 35 -12 35 -20 0 -17 2 -17
-50 1 -50 18 -53 18 -45 5 3 -6 26 -15 49 -21 36 -9 44 -15 44 -35 0 -30 -6
-30 -48 1 -36 26 -50 31 -50 16 0 -5 22 -20 50 -33 47 -22 64 -39 38 -37 -36
2 -113 38 -109 50 2 8 9 39 17 70 7 31 21 74 31 95 19 43 120 184 131 184 4 0
18 -7 30 -16 12 -8 22 -11 22 -5 0 5 -8 14 -17 19 -15 9 -13 13 17 38 56 48
67 54 152 84 106 37 136 38 144 5z m117 16 c13 -2 3 -74 -11 -79 -9 -3 -11 6
-6 39 5 30 4 40 -4 35 -7 -4 -12 -20 -12 -36 0 -17 -7 -30 -16 -34 -23 -9 -24
-7 -17 42 5 39 8 42 32 38 14 -2 30 -5 34 -5z m1000 -12 c6 -10 7 -27 1 -45
-8 -28 -8 -28 -12 14 -2 23 -8 42 -13 42 -6 0 -9 -17 -7 -37 4 -45 -16 -62
-20 -18 -2 17 -7 33 -11 37 -3 4 -5 -10 -3 -32 3 -25 0 -40 -7 -40 -6 0 -11
10 -11 23 0 12 -3 32 -6 44 -4 15 -1 23 13 26 32 9 66 3 76 -14z m89 4 c7 -33
-4 -63 -22 -63 -16 0 -17 4 -9 32 12 44 4 47 -11 4 -6 -20 -18 -36 -26 -36
-11 0 -13 4 -5 17 5 10 5 26 0 40 -8 22 -6 23 31 23 29 0 39 -4 42 -17z m40
-24 c-4 -38 -9 -49 -22 -49 -6 0 -7 47 -1 88 1 2 7 2 14 -1 7 -2 11 -17 9 -38z
m-1048 2 c6 -8 -40 -61 -53 -61 -6 0 -10 19 -9 44 2 43 3 43 30 34 15 -6 30
-13 32 -17z m822 -27 c9 -49 -3 -54 -21 -9 -18 42 -31 43 -15 0 11 -29 7 -55
-7 -55 -8 0 -37 81 -31 84 17 11 55 23 60 19 4 -2 10 -20 14 -39z m318 26 c53
-22 126 -86 168 -148 31 -45 30 -55 -9 -67 -17 -5 -23 -2 -23 9 0 9 9 16 20
16 11 0 20 5 20 11 0 6 -7 8 -16 5 -9 -3 -22 -6 -30 -6 -19 0 -18 -34 1 -50
18 -15 20 -30 3 -30 -7 1 -23 23 -36 49 -12 27 -38 66 -58 86 -32 35 -34 40
-23 62 19 36 4 38 -19 1 -16 -25 -22 -29 -27 -17 -3 9 -1 28 5 43 14 37 12 45
-5 22 -8 -11 -15 -28 -15 -37 0 -12 -6 -16 -20 -12 -23 6 -27 31 -5 39 8 4 15
13 15 22 0 13 -3 12 -15 -4 -14 -19 -14 -18 -15 4 0 28 23 29 84 2z m-1031
-59 c21 -18 42 -53 30 -49 -5 2 -25 -15 -45 -37 -21 -22 -38 -35 -38 -28 0 6
8 18 18 25 25 17 54 63 46 71 -4 4 -13 -1 -21 -11 -13 -16 -14 -15 -8 5 3 12
1 25 -6 29 -9 5 -11 -2 -6 -28 4 -26 1 -39 -12 -50 -17 -14 -20 -12 -45 18
-15 19 -33 34 -42 34 -12 0 -12 4 -2 22 33 56 37 58 77 35 20 -11 44 -27 54
-36z m630 22 c24 -86 11 -105 -26 -39 -22 40 -23 45 -8 49 28 8 30 7 34 -10z
m-37 -54 c14 -28 24 -52 22 -54 -7 -7 -69 85 -63 95 10 16 13 13 41 -41z m-14
-46 c18 -18 29 -36 25 -39 -3 -4 -24 12 -47 35 -22 22 -46 41 -52 41 -6 0 -3
9 8 21 l18 20 9 -23 c4 -13 22 -38 39 -55z m-767 53 c75 -23 141 -102 160
-190 19 -95 90 -397 119 -510 31 -122 37 -161 22 -145 -13 14 -160 330 -189
404 -19 50 -38 99 -42 110 -10 24 -8 19 -24 73 -6 23 -16 42 -21 42 -15 0 -22
-20 -12 -33 5 -7 19 -43 32 -80 12 -37 39 -103 59 -145 21 -42 46 -99 56 -127
16 -43 64 -138 84 -170 17 -24 30 -65 22 -65 -10 0 -46 62 -129 220 -27 52
-70 133 -95 180 -28 51 -53 115 -63 160 -9 41 -22 89 -30 107 -12 30 -12 32 7
38 24 8 32 2 35 -28 1 -12 3 -25 3 -29 2 -14 31 -8 37 6 10 26 -52 111 -70 97
-6 -4 -29 -12 -51 -16 -57 -10 -107 -39 -132 -77 -69 -104 -45 -187 80 -272
146 -99 174 -119 195 -139 12 -11 22 -24 22 -29 0 -4 23 -39 50 -78 28 -39 50
-74 50 -79 0 -5 8 -15 17 -22 17 -15 -40 94 -92 172 -16 25 -88 95 -160 156
-123 105 -175 166 -175 208 0 23 200 -165 251 -235 21 -30 39 -50 39 -45 0 24
-78 117 -170 203 -91 86 -113 112 -92 112 4 0 25 -17 48 -37 22 -21 62 -55 87
-76 26 -21 65 -64 87 -96 41 -61 210 -383 210 -401 0 -24 -21 -6 -64 54 -60
84 -121 133 -236 191 -52 26 -109 59 -127 72 -27 21 -33 22 -33 9 0 -14 11
-21 33 -17 4 0 7 -3 7 -8 0 -4 28 -23 62 -41 117 -63 187 -118 237 -187 21
-29 42 -49 46 -45 5 4 5 2 2 -4 -10 -17 13 -74 29 -74 8 0 14 -4 14 -10 0 -14
-16 -12 -33 5 -8 8 -17 12 -19 9 -3 -2 -11 3 -19 13 -9 11 -10 14 -1 9 19 -12
14 4 -19 55 -38 59 -109 115 -219 169 -121 60 -160 95 -206 186 -37 74 -39 81
-39 174 0 90 2 100 30 146 35 56 113 119 164 132 54 15 112 14 166 -2z m1156
-20 c65 -33 101 -66 137 -126 23 -40 26 -55 27 -140 0 -84 -3 -101 -28 -152
-44 -89 -99 -137 -245 -212 -139 -72 -190 -112 -223 -179 -35 -68 -42 -72
-152 -72 -61 0 -97 4 -97 10 0 7 33 10 91 10 99 -2 106 1 136 58 23 46 80 119
111 143 30 23 120 75 195 111 26 13 47 25 47 28 0 3 -9 1 -20 -5 -11 -6 -26
-8 -32 -4 -6 4 -9 3 -6 -2 3 -5 -39 -29 -95 -54 -111 -50 -163 -94 -236 -202
-44 -66 -54 -63 -20 5 58 113 151 213 302 326 119 89 153 138 143 208 -13 95
-92 166 -187 167 -71 1 -134 -53 -153 -134 -4 -16 0 -13 10 10 18 40 52 73 96
96 28 15 34 15 69 -2 22 -9 39 -19 39 -22 0 -2 -14 -21 -31 -43 -16 -21 -60
-96 -96 -166 -37 -70 -88 -161 -115 -200 -42 -63 -74 -131 -122 -260 -7 -18
-15 -36 -19 -39 -13 -14 -7 16 17 78 13 35 37 97 52 138 38 106 199 424 234
464 32 35 36 46 20 46 -27 0 -186 -295 -259 -481 -16 -42 -43 -105 -60 -141
-17 -36 -31 -72 -31 -81 0 -10 -7 -17 -15 -17 -19 0 -19 38 0 104 8 28 40 161
70 296 58 260 74 313 112 372 21 35 73 69 133 89 47 16 144 3 201 -25z m289
-67 c42 -57 50 -73 39 -81 -10 -7 -9 -8 6 -4 16 5 24 -3 40 -41 11 -26 21 -50
23 -53 1 -3 -16 -4 -37 -2 -36 4 -40 7 -39 32 1 22 5 26 21 22 14 -3 18 -1 15
9 -3 8 -15 13 -26 11 -17 -3 -22 2 -22 20 0 20 -20 59 -73 146 -5 6 -6 12 -4
12 2 0 28 -32 57 -71z m-1852 -35 c-4 -22 -39 -26 -46 -5 -3 10 0 12 12 8 12
-5 16 -1 16 15 0 16 3 19 11 11 6 -6 9 -19 7 -29z m710 -13 c-2 -9 3 -15 10
-13 8 1 11 -2 6 -9 -3 -6 -2 -14 4 -18 11 -7 -93 -131 -110 -131 -5 0 -6 6 -1
13 4 6 8 15 8 19 0 3 4 10 9 15 5 5 6 2 2 -7 -13 -25 44 43 60 73 8 15 12 32
8 38 -4 7 -12 -1 -20 -17 -25 -51 -62 -91 -72 -76 -15 23 -7 47 33 88 40 42
67 53 63 25z m417 -125 c-3 -22 -10 -45 -16 -52 -6 -7 -8 -17 -5 -22 8 -13
-21 -82 -34 -82 -6 0 -10 5 -10 11 0 5 5 7 10 4 20 -12 9 12 -15 35 -14 13
-25 20 -25 15 0 -5 -13 4 -30 20 -40 39 -38 20 3 -24 21 -23 26 -32 14 -27
-15 5 -13 0 7 -25 41 -48 23 -46 -22 3 -22 23 -43 40 -47 36 -4 -3 20 -32 52
-64 32 -32 52 -51 45 -42 -8 10 -9 18 -3 22 6 4 8 13 4 21 -4 11 -1 13 11 9
12 -5 13 -10 6 -25 -6 -10 -9 -23 -8 -28 2 -5 -6 -17 -17 -26 -11 -9 -15 -14
-8 -11 6 4 15 1 19 -5 4 -7 3 -9 -4 -5 -7 4 -10 -11 -9 -48 2 -30 -1 -53 -4
-50 -4 2 -9 -3 -13 -11 -3 -8 -1 -15 4 -15 6 0 10 -5 10 -11 0 -5 -4 -7 -10
-4 -5 3 -10 1 -10 -6 0 -7 -7 -4 -15 7 -8 10 -15 16 -15 11 0 -4 -14 6 -32 23
-17 17 -33 28 -36 26 -2 -3 -12 3 -22 12 -14 13 -18 30 -17 74 2 32 -1 66 -5
75 -3 10 -7 -19 -7 -63 -1 -60 -5 -85 -16 -94 -8 -7 -15 -19 -15 -27 0 -12 -3
-13 -14 -3 -19 15 -9 40 15 40 10 0 19 6 19 13 0 16 -41 17 -57 1 -10 -10 -10
-13 0 -17 7 -3 4 -6 -6 -6 -10 -1 -15 -5 -12 -11 3 -5 1 -10 -5 -10 -6 0 -8
-5 -4 -12 4 -6 3 -8 -3 -5 -6 4 -16 0 -23 -8 -24 -29 -38 -16 -50 43 -7 31
-16 65 -22 75 -11 23 -3 34 14 20 7 -6 22 -7 32 -3 13 4 16 9 9 13 -7 4 -14 3
-18 -3 -4 -6 -11 -8 -16 -4 -6 3 10 25 34 47 25 23 42 48 40 55 -4 10 -9 9
-24 -4 -10 -9 -16 -20 -14 -25 3 -4 0 -11 -6 -15 -8 -5 -9 -3 -4 6 5 9 4 11
-4 6 -6 -4 -9 -11 -6 -16 3 -4 -3 -14 -12 -21 -15 -12 -16 -12 -10 5 6 15 5
17 -6 7 -11 -9 -17 -7 -28 6 -13 16 -12 17 4 4 21 -16 23 1 2 22 -8 8 -11 17
-8 21 3 3 1 12 -5 19 -9 10 -1 24 36 60 27 26 52 44 58 40 5 -5 6 -4 2 1 -4 5
-3 15 4 23 6 7 8 16 4 20 -3 4 -29 -19 -57 -50 -28 -32 -55 -55 -60 -51 -11 6
14 43 68 100 l40 41 18 -34 18 -34 -31 -32 c-44 -45 -41 -59 3 -17 21 20 39
31 43 25 11 -15 78 -18 103 -5 17 10 23 9 30 -1 6 -9 3 -18 -6 -25 -8 -6 -15
-19 -15 -28 0 -21 107 -148 115 -136 6 9 -90 122 -97 115 -2 -2 -4 4 -4 14 0
11 6 17 13 14 7 -3 10 -10 6 -16 -4 -6 -1 -7 7 -2 10 6 10 11 -3 20 -9 7 -14
15 -10 18 3 4 11 3 17 -3 8 -6 12 -3 12 9 0 13 -5 17 -16 13 -8 -3 -12 -2 -8
3 4 4 0 14 -10 22 -16 13 -16 13 2 11 11 -2 35 -20 54 -41 19 -21 37 -35 40
-32 3 3 -8 20 -25 38 -50 53 -54 67 -31 107 12 19 31 46 42 58 l21 24 47 -54
c43 -48 47 -57 43 -92z m714 90 c-7 -8 -59 6 -59 15 0 6 10 14 23 18 17 7 24
5 31 -10 5 -11 7 -21 5 -23z m-1525 -18 c-4 -6 -3 -8 4 -4 14 8 19 -9 14 -51
-4 -32 -5 -33 -23 -18 -10 10 -23 14 -29 10 -7 -4 -14 2 -17 14 -3 11 -9 18
-14 15 -5 -3 -9 1 -10 8 0 7 -2 21 -4 31 -2 9 1 15 5 12 5 -3 13 3 19 12 6 11
11 13 11 5 0 -7 5 -10 10 -7 6 4 7 12 4 18 -4 7 3 2 15 -11 12 -12 19 -27 15
-34z m-334 11 c0 -5 -7 -9 -15 -9 -15 0 -20 12 -9 23 8 8 24 -1 24 -14z m34
-99 c3 -117 24 -186 77 -260 17 -23 25 -40 17 -38 -21 7 -98 127 -111 175 -8
30 -16 43 -29 43 -22 0 -23 -9 -4 -24 8 -6 17 -22 21 -36 6 -20 5 -22 -5 -13
-7 6 -18 22 -24 35 -6 12 -21 27 -34 33 -12 5 -22 16 -22 24 0 11 3 11 23 -1
24 -15 67 -13 67 3 0 5 -10 14 -22 19 l-23 9 23 0 c30 1 28 15 -5 29 l-28 12
28 -4 c18 -2 27 1 27 10 0 8 -9 14 -19 14 -11 0 -23 5 -27 11 -5 8 1 10 20 7
24 -5 26 -3 26 29 0 19 5 33 10 31 6 -2 12 -49 14 -108z m1517 83 c11 -15 11
-16 -1 -5 -8 6 -17 12 -20 12 -13 0 -3 -42 11 -51 11 -7 9 -9 -8 -9 -12 0 -28
7 -36 15 -8 8 -16 13 -18 12 -3 -1 -1 2 4 8 5 6 11 4 17 -5 8 -13 10 -12 10 3
0 9 -6 17 -12 18 -7 0 -4 4 7 9 29 12 31 12 46 -7z m309 -14 c0 -18 -5 -20
-37 -17 -26 3 -39 9 -41 21 -3 14 4 17 37 17 35 0 41 -3 41 -21z m-1913 -42
c-2 -18 0 -40 5 -49 9 -19 -2 -24 -18 -8 -12 12 -5 102 7 94 5 -3 7 -19 6 -37z
m1543 2 c0 -5 5 -7 10 -4 14 9 12 -4 -3 -18 -25 -23 -82 -61 -70 -46 6 8 12
19 13 24 1 6 9 8 18 7 13 -3 14 -1 5 8 -9 10 -9 16 0 26 15 16 27 18 27 3z
m370 -4 c0 -10 -11 -15 -35 -15 -24 0 -35 5 -35 15 0 10 11 15 35 15 24 0 35
-5 35 -15z m-272 -19 c8 -38 -11 -67 -90 -143 -224 -214 -280 -270 -294 -296
-9 -16 -18 -27 -20 -24 -11 10 40 103 118 215 71 103 95 130 166 183 46 34 86
68 89 76 7 18 27 11 31 -11z m262 -12 c0 -4 -5 -24 -12 -46 -10 -33 -15 -38
-32 -34 -20 5 -20 4 -3 -9 18 -13 17 -16 -17 -77 -19 -35 -49 -76 -65 -92 -17
-16 -28 -33 -25 -37 3 -5 -3 -6 -12 -2 -11 4 -15 3 -10 -5 4 -7 -7 -18 -26
-28 -18 -9 -36 -21 -39 -26 -4 -6 -9 -6 -13 1 -4 6 -2 11 4 11 5 0 36 26 68
58 59 59 96 122 107 182 11 59 16 69 30 64 7 -3 16 -1 20 5 3 7 -2 11 -14 11
-12 0 -21 7 -21 15 0 10 10 15 30 15 17 0 30 -3 30 -6z m145 -31 c3 -15 8 -42
11 -59 l4 -32 -79 -4 c-44 -2 -77 0 -75 4 2 3 -2 9 -8 12 -7 3 0 4 15 1 16 -3
26 -2 24 2 -3 4 18 8 46 8 29 0 52 5 52 10 0 6 -19 10 -42 9 -24 0 -43 2 -43
5 1 17 19 28 48 28 17 -1 31 4 30 9 -2 5 -20 9 -40 8 -21 0 -38 2 -38 6 0 14
15 20 51 20 32 0 38 -4 44 -27z m-922 -89 c-8 -21 -20 -8 -20 23 0 24 1 25 13
9 7 -10 10 -24 7 -32z m-1125 14 c19 -19 14 -30 -8 -18 -11 6 -20 15 -20 20 0
14 14 12 28 -2z m-114 -35 c28 -9 58 -18 66 -21 9 -3 3 -8 -15 -11 -17 -4 -41
-1 -55 6 -30 16 -40 16 -40 3 0 -11 33 -26 78 -36 21 -4 24 -3 12 5 -12 9 -12
11 -1 11 13 0 40 -27 41 -42 0 -3 -15 -3 -32 2 -18 4 -45 11 -60 14 -35 8 -58
32 -58 62 0 29 -1 28 64 7z m2173 -16 c-3 -9 -25 -14 -68 -16 -54 -2 -61 0
-50 13 7 9 30 14 57 14 25 0 48 3 52 6 9 9 15 -2 9 -17z m-2027 3 c12 -8 9
-10 -12 -10 -16 0 -28 5 -28 10 0 13 20 13 40 0z m1879 -18 c7 -12 8 -22 4
-21 -22 4 -53 -2 -53 -10 0 -4 11 -6 25 -3 16 3 25 0 25 -8 0 -8 -11 -11 -30
-8 -16 2 -32 0 -34 -6 -3 -7 -5 -6 -5 2 -1 16 37 54 48 47 5 -3 7 5 4 17 -7
26 -1 23 16 -10z m-1877 -29 c10 -9 18 -19 18 -24 0 -10 -43 2 -52 15 -20 29
5 36 34 9z m2028 2 c0 -10 -10 -15 -32 -15 -18 0 -51 -3 -73 -6 -33 -6 -38 -4
-27 7 10 11 50 20 120 28 6 0 12 -6 12 -14z m-2150 -32 c54 -15 78 -28 69 -37
-3 -3 -27 1 -54 9 -55 17 -93 19 -55 3 14 -5 33 -14 42 -19 10 -5 31 -9 48 -9
19 0 30 -5 30 -14 0 -9 -19 -15 -57 -20 -52 -6 -60 -5 -75 15 -10 12 -18 32
-18 45 0 12 -4 26 -10 29 -18 11 -11 28 8 20 9 -5 42 -14 72 -22z m187 0 c-4
-3 0 -15 10 -25 10 -11 12 -18 4 -18 -6 0 -14 7 -17 15 -4 8 -11 12 -18 8 -6
-4 -5 1 3 10 7 9 16 17 19 17 3 0 2 -3 -1 -7z m1948 -32 c-4 -21 -13 -31 -25
-31 -10 0 -22 -5 -25 -10 -4 -6 -44 -9 -100 -6 -63 2 -96 0 -100 -8 -3 -8 -7
-7 -11 2 -3 6 -11 9 -17 6 -9 -5 -9 -4 -1 5 7 8 49 14 110 15 55 2 111 7 127
11 47 13 29 24 -30 18 -34 -3 -55 -2 -50 3 8 8 118 33 125 28 2 -2 1 -16 -3
-33z m-1982 -6 c17 -24 17 -25 -8 -31 -29 -7 -39 0 -50 34 -5 18 -3 22 17 22
13 0 31 -12 41 -25z m1827 18 c22 -6 20 -7 -15 -13 -42 -6 -58 -3 -51 9 6 10
34 11 66 4z m115 -106 c-38 -67 -51 -75 -76 -49 -11 12 -24 22 -29 22 -6 0
-10 5 -10 10 0 17 22 11 47 -12 20 -18 23 -19 23 -5 0 9 3 17 8 17 4 0 18 16
31 35 33 50 38 36 6 -18z m-927 -112 l1 -40 -13 31 c-8 17 -23 38 -33 45 -11
8 -30 29 -43 47 -13 17 -31 32 -39 32 -13 0 -13 2 -2 9 8 5 10 14 6 22 -5 8
21 -13 57 -46 59 -54 66 -64 66 -100z m815 119 c-4 -11 -9 -12 -19 -3 -20 16
-17 28 5 22 12 -3 17 -11 14 -19z m87 11 c-14 -17 -56 -20 -65 -6 -3 5 9 12
27 14 18 2 37 5 42 5 5 1 3 -5 -4 -13z m-155 -16 c17 -7 32 -13 35 -13 15 -3
79 -79 74 -87 -3 -6 -17 5 -31 24 -30 42 -106 78 -168 80 -25 1 -38 5 -32 10
16 10 84 3 122 -14z m-939 -24 c1 -9 -4 -11 -14 -8 -10 4 -13 2 -8 -5 4 -7 17
-12 29 -12 17 0 19 -2 7 -10 -9 -5 -19 -5 -27 2 -15 12 -50 -13 -64 -47 -7
-17 -8 -16 -8 9 -1 20 9 38 36 62 37 34 45 35 49 9z m54 4 c0 -7 12 -23 27
-36 19 -19 23 -27 13 -33 -10 -6 -9 -9 1 -14 11 -5 11 -7 2 -12 -15 -7 -17
-34 -3 -34 6 0 9 3 8 8 0 4 4 18 10 32 7 16 11 19 11 9 1 -9 8 -20 17 -23 9
-4 12 -11 7 -18 -4 -7 -6 -24 -4 -37 2 -16 -1 -21 -9 -16 -7 5 -10 19 -6 37 5
26 4 29 -9 18 -9 -7 -13 -21 -10 -31 3 -9 1 -20 -5 -24 -5 -3 -10 1 -10 9 0 9
-6 13 -15 10 -13 -5 -13 -8 0 -21 19 -19 20 -18 -20 -18 -19 0 -35 5 -35 10 0
6 -7 2 -14 -8 -13 -16 -14 -16 -20 7 -3 13 -3 32 0 40 4 9 1 16 -6 16 -8 0
-11 -12 -8 -34 3 -24 0 -32 -9 -29 -6 3 -9 12 -5 21 5 15 3 15 -10 4 -17 -14
-34 0 -23 18 3 6 1 10 -5 10 -7 0 -4 7 5 16 20 21 30 12 16 -14 -18 -34 -12
-39 8 -7 10 17 15 35 11 40 -15 21 -7 43 17 41 12 0 21 -5 19 -11 -1 -5 -10
-9 -20 -7 -23 4 -20 -15 3 -21 16 -4 19 -12 16 -41 -1 -20 1 -33 6 -30 5 3 9
18 9 35 0 18 5 29 14 29 9 0 12 -7 9 -20 -4 -15 0 -20 16 -20 25 0 29 28 5 37
-8 3 -13 12 -9 21 3 8 -2 23 -11 33 -10 11 -14 19 -9 19 4 0 1 8 -6 17 -12 15
-12 16 5 10 14 -6 17 -4 12 8 -3 8 -1 15 4 15 6 0 10 -5 10 -11z m856 0 c3 -5
-2 -6 -10 -3 -9 3 -16 1 -16 -5 0 -6 4 -11 8 -11 5 0 17 -7 28 -16 18 -14 18
-15 -6 -8 -14 4 -28 11 -31 16 -3 5 -24 16 -45 23 l-39 14 53 -1 c29 0 55 -4
58 -9z m-1560 -12 c4 -4 14 -1 22 5 11 10 17 8 29 -7 11 -14 17 -16 20 -7 3 6
10 12 16 12 5 0 7 -3 4 -7 -4 -3 0 -11 8 -17 9 -7 11 -16 7 -24 -7 -10 -14 -8
-34 8 -23 18 -27 18 -32 3 -4 -9 1 -24 10 -34 9 -9 14 -26 12 -36 -2 -13 -8
-7 -22 22 -26 54 -53 89 -58 73 -3 -8 -6 -7 -10 4 -7 16 14 20 28 5z m1463 -2
c17 -3 31 -11 31 -17 0 -6 3 -8 7 -5 3 4 14 0 24 -9 9 -8 26 -16 37 -17 11 0
18 -5 15 -11 -4 -5 1 -7 11 -3 11 5 25 -2 40 -18 l24 -26 -13 38 c-7 20 -22
40 -33 44 -11 4 -23 13 -27 19 -12 20 48 -16 74 -44 40 -42 1 -88 -42 -49 -23
21 -56 37 -69 35 -5 -1 -8 2 -8 8 0 13 -70 42 -87 36 -7 -3 -13 0 -14 7 0 9
-2 9 -6 0 -2 -7 -9 -13 -14 -13 -6 0 -7 5 -4 10 3 6 2 10 -4 10 -5 0 -12 -6
-14 -12 -4 -10 -8 -9 -16 2 -7 9 -11 11 -11 3 0 -14 68 -49 77 -39 3 3 1 6 -5
6 -7 0 -12 5 -12 12 0 9 3 9 11 1 6 -6 18 -9 25 -6 9 3 14 -2 14 -13 0 -14 -2
-16 -9 -6 -7 11 -9 10 -14 -3 -6 -14 -9 -14 -39 2 -41 22 -128 26 -128 6 0 -8
5 -11 10 -8 6 3 10 1 10 -4 0 -19 -30 -12 -31 7 0 12 -2 13 -6 3 -5 -11 -7
-11 -14 0 -7 11 -9 11 -9 1 0 -7 -4 -10 -10 -7 -17 11 -11 21 15 23 54 4 60 5
73 15 10 8 16 7 23 -4 7 -11 9 -10 9 5 0 13 -5 17 -20 13 -11 -3 -22 -1 -25 3
-3 4 9 7 25 6 17 -1 30 0 30 4 0 7 57 4 99 -5z m-1661 -7 c-2 -7 2 -12 7 -11
6 1 11 -7 11 -18 0 -17 -3 -16 -28 8 -33 32 -34 33 -8 33 11 0 19 -6 18 -12z
m326 1 c-2 -4 8 -12 23 -17 l28 -10 -29 -1 -29 -1 27 -21 c14 -11 24 -25 21
-30 -4 -5 1 -6 11 -2 15 5 15 7 0 15 -20 11 -21 24 -1 32 8 3 14 0 12 -6 -1
-7 6 -14 17 -16 13 -3 16 0 11 9 -6 8 -4 10 4 5 7 -5 10 -14 8 -21 -4 -8 3
-11 17 -10 14 2 23 -3 23 -11 0 -10 -4 -11 -13 -3 -8 7 -14 6 -20 -2 -4 -7 -3
-9 4 -5 6 3 28 -10 49 -31 21 -20 41 -36 46 -35 12 3 8 -46 -5 -52 -7 -4 -3
-4 10 -2 12 2 20 0 16 -5 -3 -5 -16 -9 -30 -9 -14 0 -22 4 -19 10 3 6 2 10 -3
10 -4 0 -14 16 -22 34 -7 19 -16 35 -19 34 -19 -2 -31 3 -27 11 7 10 -22 24
-34 16 -5 -3 -11 -1 -14 4 -3 5 -23 7 -45 4 -29 -4 -39 -1 -44 11 -7 17 8 22
18 6 3 -5 14 -10 23 -9 12 0 11 3 -5 9 -13 5 -23 15 -23 21 0 8 -4 8 -14 -1
-8 -6 -12 -19 -9 -28 9 -24 0 -14 -27 33 l-23 40 25 -23 26 -24 17 26 c13 19
15 29 6 39 -8 10 -7 14 4 14 8 0 12 -4 9 -8z m556 -65 c0 -8 -4 -14 -10 -14
-5 0 -10 9 -10 21 0 11 5 17 10 14 6 -3 10 -13 10 -21z m680 11 c44 -7 70 -19
70 -34 1 -11 5 -8 15 9 19 34 19 16 -1 -21 -8 -17 -14 -33 -11 -35 7 -7 33 38
41 69 3 15 11 27 17 27 7 0 8 -7 4 -17 -13 -34 -16 -48 -4 -25 13 24 24 28 34
12 4 -6 3 -10 -2 -9 -20 3 -22 -3 -9 -24 10 -14 12 -27 7 -36 -5 -8 -7 -21 -4
-29 4 -10 0 -13 -13 -10 -10 2 -19 10 -19 18 0 8 5 14 11 13 6 -1 12 9 12 22
0 34 -11 31 -31 -7 -12 -23 -15 -26 -11 -9 4 16 3 21 -5 17 -6 -4 -11 -16 -11
-27 0 -18 -1 -18 -20 1 -12 12 -26 18 -31 14 -6 -3 -3 5 6 20 10 15 15 29 13
32 -3 2 -13 -7 -22 -21 -14 -21 -20 -23 -36 -15 -11 6 -23 9 -27 8 -4 -1 -19
4 -32 11 -19 10 -21 15 -10 22 26 16 42 10 36 -13 -5 -21 -5 -21 7 -5 7 9 16
17 19 17 4 0 4 -8 1 -17 -5 -15 -3 -15 10 1 18 22 21 40 5 31 -14 -9 -59 3
-59 16 0 7 7 8 18 4 9 -4 24 -9 32 -10z m-135 -5 c4 -6 10 -8 14 -6 4 3 13 0
21 -5 13 -8 13 -10 0 -19 -9 -5 -19 -5 -24 0 -4 4 -15 6 -24 3 -10 -4 -13 -2
-8 5 5 9 0 9 -19 2 -40 -15 -43 -12 -10 9 35 23 42 24 50 11z m-1562 -22 c3
-12 2 -29 -4 -39 -14 -27 -11 -141 6 -189 33 -93 119 -160 206 -160 59 0 121
18 113 32 -4 7 -2 8 5 4 6 -4 18 -4 24 1 7 4 2 -2 -12 -14 -13 -12 -48 -29
-78 -38 -45 -14 -62 -15 -100 -6 -142 36 -204 119 -207 275 -1 108 31 199 47
134z m377 -35 c0 -3 -9 5 -19 18 -11 13 -17 28 -14 32 4 7 33 -36 33 -50z
m1752 -83 c0 -102 -27 -172 -87 -226 -45 -40 -120 -74 -164 -74 -40 0 -97 21
-127 47 l-29 24 42 -21 c108 -52 246 -1 305 114 25 48 34 147 19 201 -7 27 -7
44 1 59 11 20 12 19 26 -14 8 -20 14 -67 14 -110z m-223 114 c8 5 8 0 2 -16
-5 -13 -5 -33 0 -45 5 -13 4 -25 -1 -28 -6 -4 -10 1 -10 10 0 9 -7 23 -15 31
-8 9 -15 20 -15 26 0 6 6 6 15 -2 9 -8 15 -9 15 -2 0 6 -4 14 -10 17 -5 3 -10
12 -10 18 0 8 3 7 9 -2 5 -7 14 -10 20 -7z m-369 -14 c0 -5 8 -7 18 -3 9 3 14
3 10 -2 -4 -4 -18 -8 -30 -9 -16 -1 -23 -7 -21 -21 1 -18 0 -18 -10 -3 -10 15
-14 12 -34 -20 -12 -20 -23 -44 -23 -53 0 -12 -8 -16 -25 -15 -14 0 -25 5 -25
10 0 5 -7 2 -17 -5 -15 -13 -15 -12 -2 8 9 16 16 19 21 10 5 -8 8 -4 8 11 0
12 4 22 9 22 5 0 12 12 16 27 4 19 9 23 15 14 6 -10 9 -9 14 7 8 24 76 44 76
22z m-1464 -66 c-6 -13 -15 -24 -19 -24 -5 0 -6 -4 -3 -9 3 -5 -1 -11 -9 -15
-10 -4 -15 1 -15 14 0 11 6 20 14 20 14 0 28 34 18 44 -3 3 -11 -2 -19 -12
-12 -16 -13 -16 -6 2 5 14 3 17 -6 11 -10 -6 -11 -3 -1 14 l11 22 23 -22 c19
-18 21 -26 12 -45z m861 -45 c2 -16 -1 -18 -11 -10 -7 6 -16 8 -20 4 -11 -11
-126 -9 -123 2 5 13 107 16 107 3 0 -5 7 -2 16 6 21 21 29 20 31 -5z m50 4 c5
3 10 0 10 -7 0 -15 -29 -17 -39 -2 -4 5 -4 14 -1 19 3 5 9 4 13 -3 4 -7 12
-10 17 -7z m43 -9 c0 -8 -4 -14 -10 -14 -5 0 -10 9 -10 21 0 11 5 17 10 14 6
-3 10 -13 10 -21z m59 12 c9 -10 8 -15 -4 -20 -10 -4 -15 1 -15 14 0 24 4 25
19 6z m44 -9 c3 -8 -1 -14 -9 -14 -8 0 -14 6 -14 14 0 7 4 13 9 13 5 0 11 -6
14 -13z m667 -38 c0 -5 -4 -8 -9 -4 -5 3 -13 0 -17 -6 -4 -7 -3 -9 4 -5 6 3
18 -1 26 -10 22 -22 20 -41 -2 -21 -20 19 -52 23 -52 7 0 -5 -7 -10 -16 -10
-8 0 -12 -4 -9 -10 3 -5 0 -10 -9 -10 -8 0 -13 -6 -12 -12 3 -18 25 -55 26
-42 0 5 -5 15 -10 20 -7 7 0 20 20 39 l30 29 23 -22 c13 -12 27 -19 32 -15 4
5 4 1 0 -7 -5 -8 -10 -23 -10 -33 -2 -21 -18 -34 -54 -44 -19 -5 -30 0 -48 21
-28 33 -29 56 -3 84 12 12 17 22 13 22 -9 0 59 39 70 39 4 1 7 -4 7 -10z
m-1679 -30 c-9 -22 -10 -22 -10 -3 -1 11 2 24 6 27 12 12 14 0 4 -24z m1187
23 c93 -1 152 -6 152 -12 0 -12 -828 -14 -857 -2 -39 16 139 19 705 14z m-172
-70 c0 -20 -32 -27 -42 -10 -4 7 -2 8 5 4 6 -4 14 0 17 8 8 22 20 20 20 -2z
m-207 -14 c17 -46 22 -80 11 -73 -6 4 -10 -8 -10 -32 0 -21 -7 -47 -15 -57
-13 -17 -15 -18 -15 -3 0 9 3 17 8 17 4 0 9 29 10 65 3 69 -3 78 -33 45 -20
-23 -14 -28 8 -6 11 12 13 6 9 -43 -5 -60 -13 -78 -32 -66 -7 5 -9 22 -5 49 6
41 6 41 -10 16 l-16 -25 6 29 c5 24 61 106 72 106 2 0 7 -10 12 -22z m133 -21
c21 -54 28 -98 21 -126 -10 -40 -21 -21 -28 49 -9 92 -24 100 -17 9 4 -65 3
-70 -14 -67 -31 5 -37 73 -10 130 11 26 23 47 26 48 3 0 12 -19 22 -43z m152
-21 c34 -67 43 -129 18 -124 -13 3 -17 14 -17 45 0 23 -6 48 -12 54 -11 10
-13 3 -13 -39 0 -29 -2 -52 -4 -52 -25 0 -31 15 -30 73 1 66 11 110 23 103 4
-3 20 -30 35 -60z m-524 34 c6 -11 18 -20 26 -20 13 0 15 -7 10 -35 -15 -80
20 -96 57 -25 12 24 33 50 47 59 25 15 25 15 8 -5 -17 -20 -22 -104 -6 -104 4
0 8 -5 8 -11 0 -8 -14 -10 -40 -6 -25 3 -38 1 -34 -5 4 -6 -3 -5 -15 1 -12 7
-27 9 -33 5 -7 -5 -8 -3 -3 6 6 10 4 12 -9 7 -14 -5 -15 -3 -6 13 5 10 10 27
9 37 0 10 -3 13 -6 5 -2 -6 -9 -10 -14 -6 -5 3 -9 -3 -9 -13 0 -19 -29 -67
-30 -50 0 5 7 33 16 63 23 81 11 90 -15 11 -13 -38 -25 -66 -28 -63 -4 4 11
95 23 139 7 23 31 22 44 -3z m110 6 c0 -8 -5 -18 -10 -21 -6 -4 -8 -9 -6 -13
2 -4 -2 -16 -11 -27 -13 -18 -14 -17 -7 20 3 22 9 43 11 48 7 12 23 8 23 -7z
m189 -14 c0 -14 -2 -13 -9 3 -5 12 -9 14 -9 6 -1 -8 -4 -12 -7 -8 -9 9 6 28
17 22 5 -4 9 -14 8 -23z m345 -126 c2 -6 5 0 6 14 l1 25 10 -24 c5 -13 12 -22
14 -19 3 3 1 17 -5 32 -15 40 -12 82 7 97 15 13 16 11 8 -16 -12 -46 -11 -68
3 -72 8 -3 12 6 12 29 0 51 11 78 30 78 14 0 20 -14 30 -67 15 -81 18 -87 35
-73 10 8 15 8 21 -1 4 -7 3 -9 -4 -5 -6 3 -13 2 -17 -4 -4 -6 -11 -8 -16 -4
-5 3 -17 0 -26 -8 -9 -7 -14 -8 -10 -2 4 8 -14 10 -61 8 -37 -1 -71 -3 -77 -4
-27 -6 -34 1 -29 33 3 17 -1 51 -9 75 -8 24 -13 41 -10 38 4 -3 11 -2 18 4 8
6 10 -1 7 -25 -2 -20 0 -35 6 -35 6 0 8 -9 5 -20 -4 -14 0 -20 11 -20 19 0 19
1 6 58 -6 24 -7 49 -3 55 4 7 13 -21 20 -62 6 -40 14 -78 17 -85z m-225 -10
c-9 -8 -10 -7 -5 7 3 10 7 24 7 30 1 7 3 4 6 -7 3 -10 -1 -23 -8 -30z m-119 2
c0 -4 -9 -6 -20 -5 -23 1 -25 8 -8 25 9 9 14 9 20 -1 4 -6 8 -15 8 -19z m-380
-13 c0 -5 -5 -3 -10 5 -8 12 -10 12 -10 1 0 -8 -2 -12 -5 -9 -3 3 -2 13 1 22
5 14 9 15 15 4 5 -7 9 -17 9 -23z m456 -34 c267 0 488 -2 491 -5 4 -3 -20 -6
-53 -7 -43 -1 -52 -3 -34 -9 63 -19 -36 -25 -405 -25 -390 0 -475 3 -475 16 0
4 -16 10 -36 13 -29 6 -33 10 -24 21 9 11 17 12 31 4 13 -6 189 -9 505 -8z
m471 -58 c0 -17 -14 -17 -21 0 -3 6 -2 -1 1 -18 9 -44 93 -145 160 -193 32
-23 107 -74 167 -114 85 -57 122 -89 165 -143 l55 -70 -65 61 c-35 33 -122 99
-194 146 -71 47 -151 104 -177 127 -55 49 -128 154 -128 185 0 17 -2 18 -10 6
-5 -9 -5 -19 1 -26 17 -20 -14 -22 -33 -2 -13 13 -14 18 -5 18 8 0 22 9 31 19
20 22 53 24 53 4z m-970 -47 c-35 -104 -88 -156 -282 -281 -129 -83 -195 -139
-195 -166 0 -9 -7 -22 -16 -30 -8 -7 -22 -25 -30 -41 -8 -16 -19 -26 -23 -23
-9 5 -29 -36 -62 -130 -14 -37 -18 -43 -19 -24 0 57 70 218 121 277 16 18 29
37 29 41 0 13 76 66 207 145 144 87 202 139 244 220 19 36 35 63 37 61 3 -2
-3 -24 -11 -49z m63 14 c0 -5 -11 -25 -24 -44 -18 -27 -25 -32 -30 -20 -4 10
-2 13 6 8 8 -5 9 -2 5 10 -4 9 -3 15 2 12 12 -8 34 21 26 34 -3 5 -1 10 4 10
6 0 11 -4 11 -10z m297 -3 c34 -2 65 -6 69 -10 4 -4 2 -7 -5 -7 -27 0 -42 -33
-62 -132 -11 -57 -43 -177 -70 -268 -28 -93 -52 -196 -56 -236 -12 -149 32
-278 152 -439 37 -50 70 -94 75 -98 11 -12 133 144 180 228 57 105 74 176 68
294 -4 71 -10 110 -26 142 -41 87 -102 345 -102 435 0 18 -4 35 -9 38 -5 3 -7
16 -4 29 4 21 4 21 -10 4 -11 -13 -16 -14 -20 -4 -2 7 6 18 19 24 13 6 22 7
19 3 -8 -13 18 -18 37 -8 25 12 227 20 208 8 -11 -7 -7 -10 17 -10 42 0 61
-30 36 -56 -16 -16 -16 -16 4 -10 17 6 26 -2 51 -47 43 -76 134 -186 251 -301
l100 -99 -42 -32 -42 -32 -24 41 c-27 46 -72 105 -114 151 -71 75 -193 268
-217 341 -7 19 -17 33 -23 31 -18 -6 -12 -91 8 -121 21 -32 10 -34 -16 -3 -10
12 -18 34 -19 50 0 15 -4 27 -10 27 -10 0 -12 -6 -12 -40 0 -44 3 -51 28 -60
14 -6 23 -14 19 -19 -3 -5 3 -11 12 -14 17 -4 17 -4 0 -12 -9 -4 -28 -4 -42
-1 -21 5 -24 10 -15 26 7 13 7 21 -1 26 -19 11 -29 -19 -23 -65 4 -24 7 -51 8
-60 0 -9 6 -19 11 -23 18 -13 110 -9 132 7 19 13 21 13 26 -5 3 -13 -1 -24
-11 -29 -20 -10 -147 -20 -131 -10 8 4 4 9 -9 13 -29 9 -60 63 -66 113 -2 23
-10 52 -17 65 -7 13 -14 30 -15 38 -2 8 -8 16 -13 18 -6 2 -11 11 -11 21 0 9
-6 26 -14 37 -36 49 39 -220 104 -371 21 -49 53 -126 70 -171 38 -102 83 -144
152 -144 33 0 87 31 110 63 29 41 29 128 1 186 -15 30 -17 38 -6 29 49 -40 70
-173 36 -229 -33 -57 -66 -74 -146 -74 -115 0 -129 17 -231 280 -64 165 -80
219 -101 340 -18 106 -35 134 -29 49 5 -86 31 -194 71 -298 93 -243 105 -301
84 -422 -22 -122 -74 -219 -210 -389 -65 -81 -70 -91 -55 -102 15 -11 15 -13
2 -18 -11 -5 -13 -16 -8 -48 10 -71 0 -137 -22 -137 -6 0 -6 6 2 15 7 8 8 15
2 15 -5 0 -15 -7 -22 -15 -14 -17 -23 -13 -26 11 -2 11 1 12 10 5 7 -6 16 -8
19 -4 8 7 -34 39 -47 35 -5 -2 -6 4 -3 13 4 9 1 15 -8 15 -7 0 -17 5 -21 12
-4 7 -3 8 4 4 7 -4 12 -3 12 2 0 5 -9 12 -21 15 -12 3 -18 10 -14 16 3 6 10 9
15 6 5 -3 11 -1 15 5 3 5 -3 10 -15 10 -12 0 -18 4 -15 10 4 7 -3 9 -20 6 -15
-3 -25 -2 -21 1 4 4 -4 13 -16 20 -22 12 -22 12 -2 13 11 0 25 -5 31 -11 6 -6
23 -9 39 -7 23 2 30 9 32 31 3 27 3 27 -57 27 -51 0 -61 -3 -62 -17 -1 -17 -2
-17 -6 0 -6 21 -17 22 -33 2 -14 -17 -14 -19 100 -138 35 -37 68 -75 73 -83
14 -25 50 -34 70 -16 9 8 17 11 17 5 0 -15 -36 -44 -44 -36 -4 4 -4 0 0 -10 6
-18 24 -24 24 -8 0 5 15 25 33 43 l33 34 -18 30 c-10 16 -17 36 -16 44 1 8 -1
21 -6 28 -9 16 0 28 29 36 11 3 7 4 -10 2 -28 -4 -28 -3 -10 10 10 8 23 14 29
14 5 0 2 6 -9 13 -17 13 -17 14 4 29 25 17 121 16 150 -3 13 -8 12 -9 -6 -4
-32 9 -71 -4 -52 -16 9 -6 -3 -7 -30 -3 -51 8 -50 -10 1 -24 18 -4 33 -13 34
-20 1 -7 0 -8 -3 -2 -7 15 -43 11 -88 -11 -39 -19 -36 -20 13 -5 19 6 24 3 33
-24 l11 -31 72 73 c83 85 112 124 93 131 -6 2 -9 8 -4 12 4 5 12 4 18 -2 18
-18 -13 -64 -111 -166 -52 -54 -94 -103 -92 -109 1 -5 -2 -7 -8 -3 -16 10 -24
-23 -10 -40 11 -13 18 -10 54 22 22 21 40 41 38 46 -1 5 1 6 6 3 12 -7 104 88
95 99 -5 4 -3 5 4 1 14 -7 56 47 45 59 -4 5 -2 5 5 1 16 -9 51 42 102 149 94
196 145 293 188 353 25 35 47 61 50 58 3 -2 -4 -29 -15 -58 -10 -29 -22 -87
-26 -128 -9 -105 -38 -186 -103 -282 -31 -46 -56 -88 -56 -95 0 -7 -4 -10 -8
-7 -4 2 -9 -2 -12 -8 -2 -7 -8 -10 -12 -6 -4 4 4 21 18 37 14 17 31 46 37 66
6 19 15 33 19 30 18 -10 113 236 97 252 -2 2 -7 -4 -9 -14 -32 -111 -51 -164
-67 -193 -27 -49 -25 -23 5 56 14 37 24 69 21 71 -2 2 -18 -34 -36 -79 -40
-101 -89 -198 -110 -216 -8 -8 -10 -11 -3 -8 6 4 14 2 18 -4 3 -5 3 -10 -2
-10 -4 0 -16 -12 -27 -26 l-19 -26 27 17 c14 10 26 21 26 25 0 12 36 18 51 9
11 -7 11 -9 2 -10 -7 -1 -18 -2 -25 -3 -6 0 -13 -6 -15 -13 -8 -24 31 -5 89
43 52 42 112 109 113 124 0 3 14 25 30 50 16 25 34 61 41 80 16 47 39 54 29 9
-14 -66 -68 -151 -136 -214 -23 -22 -62 -59 -87 -82 -25 -24 -48 -43 -53 -43
-4 0 -9 -10 -11 -22 -2 -18 -9 -23 -31 -21 -29 2 -29 2 -25 -52 2 -31 -1 -57
-7 -59 -17 -6 0 -16 33 -20 32 -3 39 2 23 20 -5 5 -5 29 -1 54 8 48 13 45 10
-7 -2 -47 9 -73 30 -73 23 0 32 25 29 79 -2 22 1 44 5 48 4 5 7 -21 6 -57 -3
-84 -3 -85 15 -70 9 7 18 10 22 7 15 -16 33 19 33 64 0 27 5 49 10 49 17 0 12
-82 -7 -102 -14 -16 -14 -18 -1 -18 20 0 28 21 28 75 0 61 -8 79 -28 63 -13
-11 -14 -11 -7 2 8 13 7 13 -9 1 -15 -13 -19 -13 -27 0 -7 12 -9 12 -9 -1 0
-12 -2 -12 -8 -2 -5 7 -16 10 -25 6 -23 -8 -22 8 2 27 12 11 23 14 35 7 11 -6
18 -5 22 6 3 8 12 12 20 9 13 -5 14 7 5 45 -1 2 -6 0 -11 -3 -8 -5 -7 -12 2
-23 12 -15 11 -16 -4 -3 -16 12 -22 9 -20 -10 1 -3 -6 -6 -14 -6 -8 0 -14 5
-14 10 0 6 -11 -2 -25 -17 -14 -15 -25 -31 -25 -37 0 -5 -4 -9 -8 -9 -5 0 -9
7 -9 15 0 8 2 13 5 11 2 -3 15 8 29 25 14 16 29 27 33 24 5 -3 12 0 16 6 5 8
3 9 -7 4 -12 -7 -12 -6 -1 6 7 8 16 14 20 14 4 0 22 15 41 33 19 17 37 29 40
26 3 -3 -7 -17 -23 -30 -15 -14 -25 -28 -22 -32 4 -3 10 -2 14 3 11 15 32 16
32 2 0 -7 -6 -19 -12 -27 -7 -7 -1 -5 13 6 16 11 25 26 23 37 -3 18 11 23 21
7 8 -13 25 -3 25 13 0 8 -3 8 -9 -2 -6 -9 -11 -10 -15 -2 -4 6 2 24 14 41 22
31 47 101 56 160 3 19 9 50 14 68 5 20 5 32 -1 32 -6 0 -7 5 -4 10 3 6 1 10
-6 10 -7 0 -9 -10 -7 -25 4 -21 2 -23 -13 -15 -23 13 -42 13 -34 0 3 -5 -1
-10 -9 -10 -9 0 -16 -6 -16 -14 0 -8 -7 -16 -15 -20 -8 -3 -15 -11 -15 -18 0
-9 3 -8 10 2 5 8 10 12 10 8 0 -16 -48 -77 -55 -70 -5 4 -5 -1 -2 -10 4 -12 2
-15 -9 -11 -17 6 -17 8 -3 35 9 17 13 18 20 7 7 -11 9 -9 10 6 1 11 1 27 0 37
-1 9 3 19 9 23 5 3 10 16 10 28 0 18 -2 19 -10 7 -11 -17 -13 -10 -4 14 3 9 9
14 13 11 4 -2 8 2 8 10 0 8 -5 11 -11 8 -6 -3 -6 0 1 7 9 9 9 19 2 33 -8 14
-8 18 0 13 6 -4 11 -2 11 4 0 7 7 5 16 -4 18 -18 34 -21 34 -5 0 5 -4 8 -8 5
-4 -2 -8 3 -9 12 -1 9 -5 29 -8 43 -6 21 -3 27 14 32 13 3 25 -1 31 -11 5 -10
10 -12 10 -7 0 6 -5 16 -10 21 -8 8 -7 14 3 22 22 18 21 -113 -1 -135 -16 -16
-16 -16 2 -10 11 5 22 3 26 -3 4 -6 12 7 19 29 8 28 16 38 26 35 8 -3 24 1 37
10 28 20 49 21 22 1 -18 -14 -18 -14 3 -8 12 3 28 11 34 19 6 8 24 14 40 14
16 0 29 5 29 11 0 5 4 8 9 5 5 -4 11 -1 13 6 3 7 7 5 11 -6 5 -11 3 -15 -5
-10 -8 5 -9 2 -5 -9 4 -10 1 -17 -6 -17 -8 0 -7 -3 2 -9 9 -6 13 -23 12 -48
-2 -21 -3 -46 -4 -56 -1 -17 -2 -17 -14 -1 -9 13 -10 21 -1 31 6 7 8 16 4 20
-3 3 -6 1 -6 -5 0 -7 -5 -12 -11 -12 -6 0 -8 7 -5 16 5 13 1 15 -22 10 -66
-13 -127 -17 -111 -7 8 5 27 11 42 13 14 2 29 6 31 9 3 3 24 4 46 3 37 -2 39
-1 23 12 -21 16 -47 19 -38 4 3 -5 1 -10 -5 -10 -21 0 -4 24 21 31 22 7 22 7
2 8 -29 1 -54 -9 -47 -20 3 -5 2 -9 -3 -8 -4 1 -29 -4 -55 -11 -40 -10 -48
-16 -48 -36 0 -23 2 -24 58 -19 40 4 51 3 37 -4 -11 -5 -37 -10 -57 -10 -20
-1 -40 -5 -43 -11 -3 -5 -1 -10 5 -10 7 0 10 -6 7 -12 -2 -7 -10 -12 -16 -11
-6 2 -11 -6 -11 -18 0 -19 4 -20 68 -15 47 5 62 3 50 -4 -9 -6 -40 -11 -69
-13 -34 -1 -54 -7 -57 -16 -3 -10 3 -13 27 -9 32 5 43 -5 16 -16 -20 -7 -19
-26 1 -26 9 0 12 5 8 11 -5 9 1 10 22 5 16 -4 31 -12 32 -17 2 -5 8 -9 14 -9
6 0 5 7 -3 16 -12 15 -11 16 8 10 27 -9 53 29 33 48 -10 8 -11 7 -8 -4 5 -17
-58 -44 -76 -32 -6 4 2 9 18 12 17 3 29 9 27 14 -2 5 4 13 13 18 9 5 16 15 16
22 0 10 -13 13 -47 10 -37 -3 -42 -2 -23 5 38 14 80 13 80 -1 0 -9 3 -9 9 1
13 21 -9 53 -26 39 -16 -13 -93 -28 -93 -18 0 4 20 11 45 14 31 5 50 15 65 34
13 16 19 20 16 10 -3 -10 0 -18 5 -18 6 0 9 -9 6 -20 -4 -14 0 -20 11 -20 12
0 13 -3 4 -12 -17 -17 -15 -31 3 -24 20 7 19 4 -5 -24 -11 -12 -17 -27 -13
-33 3 -6 1 -7 -5 -3 -8 5 -12 0 -12 -13 0 -25 15 -28 24 -5 3 8 10 13 14 10
12 -7 30 34 47 108 19 81 19 220 -1 309 -27 121 -60 159 -204 238 -102 55
-177 115 -172 137 2 8 -1 11 -7 7 -7 -4 -8 0 -5 10 6 14 8 14 20 -2 7 -10 14
-23 14 -30 0 -15 35 -35 45 -25 3 4 5 1 3 -7 -2 -10 33 -30 106 -63 126 -55
169 -91 192 -160 21 -63 29 -57 9 8 -12 43 -12 47 0 30 28 -37 53 -123 60
-202 8 -96 -12 -205 -57 -303 -39 -87 -54 -104 -81 -90 -17 10 -19 9 -13 -6 5
-15 4 -16 -9 -5 -13 11 -14 10 -9 -4 3 -9 1 -16 -6 -16 -6 0 -8 -4 -5 -10 9
-15 27 -12 19 3 -4 6 -4 9 1 5 4 -4 15 -2 24 5 14 11 14 9 0 -13 -11 -16 -25
-24 -40 -23 -15 1 -17 0 -6 -3 24 -7 22 -28 -3 -21 -11 3 -18 1 -14 -4 3 -5
-1 -9 -9 -9 -25 0 -41 -28 -27 -44 10 -13 7 -14 -14 -10 -14 2 -26 1 -26 -4 0
-4 -14 -13 -32 -20 -17 -6 -29 -15 -25 -19 4 -4 13 -1 19 5 7 7 16 12 22 12
17 0 -28 -29 -45 -30 -20 0 -72 -47 -65 -59 3 -5 -2 -8 -11 -7 -14 1 -16 -10
-15 -72 0 -41 3 -76 6 -79 10 -10 7 -23 -5 -23 -5 0 -7 5 -4 10 3 6 2 10 -2
10 -5 0 -7 28 -5 63 3 45 0 66 -9 74 -12 9 -14 -1 -12 -62 l2 -74 -46 -15
c-39 -13 -43 -13 -33 -1 19 23 1 17 -32 -10 -16 -14 -41 -25 -54 -25 -14 0
-38 -7 -54 -15 -27 -14 -30 -13 -60 15 -18 17 -38 30 -46 30 -8 0 -14 4 -14
10 0 5 8 7 18 4 9 -3 6 1 -8 10 -14 8 -27 10 -28 5 -2 -5 -8 -7 -12 -4 -5 3
-6 13 -3 22 4 9 -1 22 -13 31 -13 10 -15 16 -6 19 19 7 14 19 -8 19 -11 0 -20
-5 -20 -12 0 -6 -20 -33 -45 -60 -24 -27 -45 -52 -45 -56 0 -4 -7 -13 -15 -22
-28 -28 -86 -108 -82 -112 6 -6 22 11 72 74 22 28 48 53 58 55 10 3 17 15 17
31 0 14 2 26 4 26 2 0 12 3 22 7 13 5 16 3 12 -9 -4 -9 -1 -21 5 -27 8 -8 7
-11 -6 -11 -9 0 -18 -4 -18 -10 -5 -29 -3 -35 11 -35 8 0 15 -4 15 -10 1 -17
19 -41 40 -53 15 -9 16 -11 4 -12 -19 0 -65 -47 -56 -57 4 -3 17 3 30 14 20
19 28 20 85 12 34 -5 80 -18 102 -29 l40 -20 0 -67 c0 -62 -1 -66 -16 -51 -11
11 -16 32 -16 63 1 50 -13 54 -20 6 -2 -17 -1 -28 4 -25 4 3 8 -2 8 -10 0 -9
-2 -16 -5 -16 -5 0 -107 50 -113 55 -8 7 51 55 68 55 24 0 24 -3 5 -40 -10
-19 -11 -30 -5 -30 6 0 17 15 25 32 13 32 13 33 -16 46 -28 12 -32 11 -59 -18
-32 -34 -53 -41 -24 -8 l19 22 -30 -18 -30 -19 24 27 c14 14 32 26 40 27 10 0
12 2 4 6 -7 2 -27 -5 -43 -17 -17 -12 -34 -19 -38 -15 -4 4 1 12 11 19 9 7 17
16 17 20 0 4 -13 -3 -29 -15 -19 -14 -34 -18 -43 -13 -7 5 -25 10 -40 11 -58
5 -68 8 -68 15 0 15 -29 8 -38 -9 -6 -9 -16 -18 -23 -19 -8 -1 -22 -5 -32 -9
-14 -6 -18 -4 -15 11 2 10 -2 19 -9 19 -6 0 -15 4 -20 9 -5 5 -3 6 5 2 6 -4
12 -2 12 4 0 7 7 10 15 6 9 -3 15 0 15 8 0 7 -7 19 -15 26 -8 7 -15 9 -15 5 0
-4 -9 3 -20 16 -10 13 -19 19 -20 13 0 -5 6 -16 13 -23 10 -11 9 -12 -2 -6
-11 6 -13 4 -8 -8 6 -17 -2 -21 -33 -18 -13 2 -13 1 0 -8 13 -9 12 -11 -3 -11
-10 0 -16 -4 -13 -9 4 -5 -4 -7 -16 -3 -13 3 -19 1 -15 -5 4 -6 0 -13 -8 -17
-8 -3 -15 0 -15 7 0 7 -7 4 -14 -6 -11 -14 -15 -15 -19 -5 -4 10 -8 10 -16 -2
-5 -8 -12 -12 -14 -10 -13 14 -46 81 -37 75 5 -3 10 -1 10 4 0 6 7 11 15 11 8
0 15 5 15 10 0 20 16 9 27 -18 l10 -27 -1 27 c-1 16 -4 28 -7 28 -3 0 -5 25
-5 55 1 30 2 55 3 55 4 0 54 -43 74 -64 10 -10 23 -15 30 -11 7 5 10 4 6 -3
-8 -11 1 -42 12 -42 4 0 7 10 6 23 0 12 -21 45 -49 74 -48 51 -49 52 -74 35
-19 -12 -27 -13 -30 -4 -2 6 -8 12 -12 12 -11 0 -6 -31 9 -59 10 -17 5 -25
-34 -56 -33 -27 -177 -95 -203 -95 -1 0 37 33 85 74 89 75 142 126 130 126 -4
0 -3 10 2 23 6 16 3 27 -12 42 -20 20 -20 20 -12 0 13 -35 11 -50 -8 -48 -12
0 -16 -4 -13 -13 6 -16 -10 -28 -19 -14 -8 12 -35 -5 -35 -22 0 -6 7 -5 15 2
13 11 14 10 10 -1 -3 -8 -19 -20 -36 -28 -19 -8 -28 -18 -25 -27 3 -8 1 -14
-4 -14 -6 0 -10 5 -10 11 0 5 -5 7 -11 4 -6 -4 -16 0 -22 9 -18 24 -70 36 -85
20 -7 -8 -10 -19 -7 -24 3 -6 1 -10 -5 -10 -8 0 -10 9 -5 27 5 23 4 25 -9 14
-11 -9 -16 -10 -16 -2 0 6 -12 14 -26 17 -18 5 -24 11 -20 23 5 13 3 12 -8 -2
-11 -14 -15 -15 -20 -5 -5 10 -7 10 -12 0 -12 -26 -22 1 -19 56 1 31 1 42 -2
25 -6 -46 -18 -41 -18 7 0 31 4 40 18 40 14 0 17 -9 17 -49 0 -72 20 -75 22
-4 l1 58 6 -55 c4 -37 11 -56 21 -59 33 -8 86 -8 103 1 10 5 17 5 17 0 0 -5
28 -9 63 -8 l62 2 6 55 6 54 1 -51 c2 -37 6 -51 17 -51 8 0 11 5 7 11 -3 6 -5
20 -4 31 2 11 -6 45 -16 75 -15 41 -24 54 -37 52 -10 -2 -14 1 -10 7 19 31 43
2 62 -74 l7 -30 7 30 c6 25 7 23 6 -14 -1 -27 3 -46 10 -48 9 -3 11 4 6 29
l-6 33 24 -20 c44 -37 51 -45 39 -45 -8 0 -8 -6 0 -20 9 -17 15 -18 31 -10 22
12 35 -5 -125 176 -93 105 -158 203 -201 299 -18 39 -48 104 -67 145 -20 41
-48 100 -62 130 -14 30 -31 63 -38 72 -27 37 2 27 41 -14 57 -59 107 -151 146
-266 59 -174 105 -250 257 -417 168 -185 211 -227 218 -215 5 8 9 7 13 -5 4
-9 3 -13 -3 -10 -16 10 -11 -12 7 -30 16 -16 18 -16 36 6 10 13 49 58 87 99
37 41 80 89 95 105 15 17 24 24 20 18 -3 -7 -1 -13 5 -13 6 0 16 11 22 25 9
21 14 23 26 13 13 -11 14 -10 8 9 -4 13 -2 24 5 29 8 4 9 3 5 -4 -4 -7 -2 -12
3 -12 6 0 11 8 11 18 0 9 10 28 23 42 12 14 19 21 15 16 -3 -4 -4 -15 -1 -24
5 -11 3 -13 -8 -7 -8 4 -11 5 -7 0 4 -4 2 -17 -4 -29 -9 -19 -9 -19 5 -6 21
20 107 187 142 275 15 39 42 97 61 130 36 66 61 126 45 110 -5 -5 -52 -94
-104 -196 -52 -103 -111 -204 -130 -225 -20 -22 -53 -58 -74 -81 -21 -23 -57
-57 -81 -77 -77 -64 -197 -177 -181 -171 10 4 20 2 24 -4 4 -7 -1 -9 -12 -5
-11 4 -14 3 -6 -3 8 -6 7 -13 -4 -28 -15 -20 -15 -20 -9 1 4 13 -1 28 -14 42
-12 12 -18 22 -15 22 3 0 1 9 -5 21 -10 17 -14 18 -28 7 -15 -11 -15 -11 -4 3
15 20 3 36 -135 181 -107 113 -181 215 -228 311 -30 62 -31 68 -15 77 14 8 19
2 30 -33 17 -60 64 -145 108 -196 33 -37 40 -41 50 -28 10 12 10 18 -3 30 -9
10 -11 18 -5 22 5 3 10 0 10 -7 0 -10 3 -9 9 2 6 8 8 17 7 20 -2 3 8 17 23 31
26 26 26 26 45 7 18 -20 18 -20 -13 -13 -20 4 -31 3 -31 -4 0 -11 17 -15 56
-12 12 1 24 -5 27 -13 5 -13 -1 -15 -40 -9 -37 5 -44 3 -38 -7 5 -8 4 -11 -3
-6 -6 4 -9 14 -6 24 5 15 5 15 -6 -1 -6 -9 -8 -22 -4 -29 5 -7 2 -8 -7 -3 -8
5 -11 4 -6 0 4 -5 30 -11 57 -13 37 -2 50 0 50 10 0 11 2 11 9 0 4 -8 11 -13
15 -13 20 3 26 -1 26 -18 0 -25 26 -47 33 -29 3 7 3 -2 0 -19 -3 -21 -1 -33 6
-33 6 0 11 -5 11 -11 0 -7 -11 -8 -29 -4 -18 4 -32 2 -36 -5 -5 -9 -1 -10 15
-5 14 5 20 3 16 -3 -4 -6 3 -8 16 -5 19 4 20 3 8 -6 -13 -10 -13 -12 -1 -20
12 -8 13 -12 1 -25 -7 -9 -10 -19 -7 -22 14 -14 27 41 26 110 -1 66 -4 77 -26
98 -42 39 -149 190 -182 255 -47 95 -64 180 -59 303 4 99 9 118 76 315 80 233
107 336 89 332 -17 -3 -27 -19 -27 -45 0 -30 -61 -220 -139 -432 -11 -30 -27
-80 -35 -110 -27 -97 -106 -151 -201 -135 -59 9 -102 43 -132 103 -26 53 -28
111 -4 135 7 7 8 -1 5 -25 -7 -41 21 -114 59 -152 14 -14 41 -28 61 -31 92
-18 162 30 191 130 9 33 30 92 47 130 37 84 128 361 128 388 0 10 5 28 11 40
l11 22 -20 -21 c-11 -12 -23 -35 -25 -52 -3 -17 -12 -41 -21 -54 -9 -12 -16
-32 -16 -43 0 -11 -5 -27 -11 -35 -9 -13 -10 -12 -5 3 3 9 3 24 -1 33 -5 13
-7 13 -14 2 -14 -21 -26 6 -24 52 1 22 -3 40 -7 40 -5 0 -7 4 -4 8 7 12 -22
52 -39 52 -7 0 -16 -6 -19 -12 -3 -7 -3 -1 0 15 4 16 2 27 -5 27 -6 0 -11 -9
-11 -20 0 -11 -4 -20 -9 -20 -13 0 -41 -29 -41 -42 0 -6 9 0 19 13 12 15 23
20 28 14 5 -5 7 -9 4 -8 -2 1 -26 -37 -54 -85 -58 -102 -99 -159 -186 -262
-113 -132 -151 -205 -166 -317 -4 -29 -10 -53 -13 -53 -20 1 -142 20 -158 26
-19 5 -19 5 0 -10 10 -8 49 -18 87 -22 l69 -7 0 -43 c0 -24 -3 -44 -7 -44 -27
1 -142 33 -160 46 -30 19 -30 36 0 24 33 -13 80 -24 96 -21 7 1 10 -2 6 -8 -4
-7 6 -11 27 -10 31 1 32 1 8 9 l-25 8 25 2 c14 1 -8 8 -48 15 -113 21 -111 20
-105 63 13 83 50 132 248 329 191 191 292 316 309 386 3 15 13 27 21 27 8 0
15 4 15 9 0 5 44 7 98 4 53 -2 125 -5 159 -6z m117 -31 c2 -20 -1 -39 -6 -42
-5 -3 -7 0 -6 7 2 6 -1 13 -7 15 -5 2 -11 -11 -12 -29 -2 -22 0 -28 7 -18 7
12 11 12 24 2 13 -11 16 -11 16 0 0 31 19 -10 28 -61 l10 -55 -1 77 c-1 43 -5
78 -9 78 -5 0 -8 -4 -8 -10 0 -5 -5 -10 -11 -10 -6 0 -9 6 -6 14 3 8 2 28 -3
45 -7 25 -6 29 10 28 14 -1 16 -5 9 -18 -11 -22 -12 -32 0 -25 22 14 31 -28
33 -165 l3 -144 -70 -6 -70 -5 73 -2 c53 -2 72 -6 72 -15 0 -11 -16 -13 -75
-9 -52 3 -75 1 -75 -7 0 -7 26 -11 76 -11 65 0 75 -2 70 -16 -3 -9 -6 -19 -6
-22 0 -4 -28 -7 -62 -7 -56 0 -64 3 -74 24 -7 13 -11 36 -9 50 2 14 4 87 4
161 1 84 5 130 10 121 7 -11 13 -3 22 30 13 41 30 71 37 64 2 -2 5 -19 6 -39z
m-313 -21 c10 7 1 -51 -12 -77 -14 -26 -11 -48 6 -48 9 0 12 6 8 17 -4 11 -3
14 5 9 7 -4 12 -21 12 -37 0 -17 -4 -28 -10 -24 -5 3 -18 -3 -30 -15 l-20 -20
28 2 c33 2 52 15 46 32 -3 8 4 16 15 19 20 5 20 4 6 -30 -8 -20 -15 -44 -15
-54 0 -12 -5 -16 -15 -13 -12 5 -12 10 -3 27 10 20 10 21 -5 8 -10 -7 -17 -9
-17 -4 0 5 -10 9 -21 9 -23 -1 -35 29 -17 41 7 3 8 1 4 -5 -4 -7 -2 -12 3 -12
6 0 11 2 11 4 0 2 3 11 6 20 4 10 1 16 -9 16 -24 0 -26 21 -6 73 10 27 16 54
15 60 -1 7 -1 9 1 4 3 -4 9 -5 14 -2z m-71 -156 c0 -17 -41 -82 -64 -100 -20
-17 -9 -17 132 -6 36 3 38 -1 18 -28 -24 -33 -176 -15 -176 21 0 8 4 14 9 14
5 0 21 25 37 55 28 52 44 69 44 44z m808 -35 l21 -30 -21 -13 c-11 -7 -17 -8
-13 -2 3 6 -1 11 -9 11 -9 0 -16 -4 -16 -10 0 -5 -15 -10 -33 -10 -32 0 -67
27 -67 52 0 7 6 4 13 -6 13 -17 14 -17 30 -1 12 11 17 13 17 3 0 -7 12 -1 27
14 15 15 28 26 28 25 1 -1 11 -16 23 -33z m186 13 c4 4 4 -1 0 -12 -5 -11 -9
-14 -12 -7 -2 7 -8 10 -13 7 -5 -4 -6 2 -2 11 5 13 3 15 -7 9 -9 -6 -11 -4 -5
5 6 10 11 10 20 -3 7 -9 15 -14 19 -10z m-1229 -17 c-28 -29 -24 -43 5 -17 8
6 -12 -15 -43 -48 -44 -46 -59 -57 -69 -47 -6 6 -8 15 -4 19 4 4 11 1 15 -6 5
-8 11 -9 15 -3 9 15 -24 24 -40 11 -10 -8 -14 -8 -14 0 0 6 6 12 13 13 6 0 17
2 22 3 6 2 15 3 20 4 6 1 3 6 -5 12 -12 8 -11 9 5 7 12 -2 19 2 17 10 -1 8 1
11 6 8 5 -3 24 10 42 29 19 19 36 35 39 35 3 0 -8 -13 -24 -30z m305 -33 c-10
-9 -90 -17 -90 -9 0 5 21 9 47 11 26 1 45 0 43 -2z m1038 -35 c2 -7 -1 -12 -7
-12 -6 0 -10 4 -8 9 1 5 -7 17 -18 26 -19 17 -19 17 4 3 14 -8 27 -20 29 -26z
m-1473 -42 c7 0 16 -7 19 -16 5 -14 4 -15 -9 -4 -8 7 -15 9 -15 5 0 -4 -7 -2
-15 5 -8 7 -12 17 -8 23 5 8 8 7 11 -1 2 -7 10 -12 17 -12z m-25 -23 c0 -3 -6
-7 -12 -10 -8 -3 -14 5 -14 19 -2 20 0 21 12 9 8 -7 14 -16 14 -18z m372 -85
c-5 -65 -19 -57 -25 13 l-3 50 -2 -60 c-2 -43 -5 -56 -12 -45 -8 13 -10 12
-10 -4 0 -43 -12 -3 -20 66 l-8 73 1 -68 c2 -56 0 -65 -10 -50 -21 27 -15 -3
7 -40 31 -52 41 -96 29 -119 -9 -18 -8 -18 10 -9 15 9 20 19 17 42 -2 16 -6
33 -10 36 -7 7 24 32 42 33 10 0 9 -8 -4 -30 -20 -34 -11 -53 11 -24 19 26 19
12 -2 -31 -10 -21 -19 -31 -24 -24 -4 8 -11 5 -18 -9 -13 -25 -53 -19 -44 6 4
10 11 20 17 24 7 5 3 8 -9 8 -15 0 -17 2 -6 9 11 7 7 19 -18 62 -66 116 -67
118 -50 147 8 15 25 32 38 38 20 10 29 8 65 -14 41 -26 41 -26 38 -80z m296
90 c13 12 14 10 3 -9 -9 -17 -9 -23 0 -23 8 0 8 -4 -1 -15 -10 -12 -9 -16 4
-21 9 -3 16 -15 16 -27 0 -11 -3 -17 -7 -14 -3 4 -11 0 -17 -9 -25 -34 -60 9
-36 46 5 9 5 19 -2 27 -6 8 -8 16 -4 20 3 3 6 1 6 -5 0 -7 4 -12 9 -12 5 0 8
12 6 28 -2 15 -2 21 1 14 5 -10 9 -10 22 0z m235 -13 c4 -3 2 -11 -5 -17 -10
-8 -13 -5 -14 15 -1 13 1 21 5 16 3 -4 10 -10 14 -14z m392 -16 c20 -21 46
-58 57 -83 21 -49 32 -104 18 -95 -5 3 -7 12 -3 20 3 8 0 15 -7 15 -6 0 -9 4
-6 9 3 5 -7 23 -23 40 -25 27 -30 29 -34 14 -3 -10 -5 3 -6 28 -1 34 -7 51
-23 65 -23 19 -23 19 -5 -2 19 -23 24 -104 6 -104 -7 0 -9 11 -6 28 2 15 1 36
-3 47 -6 15 -9 7 -11 -30 l-2 -50 -7 50 -7 50 -1 -51 c-2 -36 -7 -54 -17 -58
-12 -4 -15 4 -17 42 l-1 47 -7 -55 -7 -55 -1 68 c-2 61 0 67 18 67 11 0 23 -1
26 -2 3 -2 10 5 15 15 6 9 12 17 14 17 2 0 20 -17 40 -37z m-1274 8 c-7 -5
-11 -13 -7 -19 9 -16 -17 -32 -34 -21 -12 8 -10 14 15 34 16 13 32 22 34 19 3
-3 -1 -9 -8 -13z m-61 -13 c0 -6 -3 -8 -6 -5 -4 4 -24 -7 -45 -24 -22 -17 -40
-25 -44 -19 -3 5 2 10 12 10 15 0 16 2 3 10 -13 9 -13 10 0 11 8 1 21 1 27 0
7 -1 10 5 7 13 -3 9 2 16 13 18 22 5 33 1 33 -14z m514 -4 c3 -7 -3 -10 -15
-7 -26 7 -32 19 -9 19 11 0 22 -6 24 -12z m694 -54 c-2 -53 -4 -60 -22 -60
-19 0 -19 1 -2 13 18 13 18 15 1 50 -9 20 -21 37 -26 37 -4 0 -1 -12 7 -27 20
-39 17 -65 -3 -28 -10 17 -16 33 -15 38 1 4 -3 7 -10 7 -21 0 23 26 47 28 24
2 24 -1 23 -58z m-759 40 c23 -12 17 -56 -10 -71 -17 -9 -19 -6 -19 36 0 48 2
50 29 35z m505 -1 c-3 -6 0 -16 7 -21 11 -7 11 -11 2 -15 -7 -2 -13 -9 -13
-14 0 -6 5 -7 10 -4 15 9 12 -11 -3 -23 -8 -7 -18 -7 -27 -2 -8 5 -17 7 -22 4
-16 -10 -25 31 -12 56 8 14 14 19 14 10 0 -10 3 -11 8 -4 6 9 23 19 40 23 2 1
0 -4 -4 -10z m-940 -17 c8 -14 -11 -35 -24 -27 -8 5 -11 4 -7 -1 3 -6 -8 -19
-24 -29 -17 -11 -39 -35 -50 -52 -19 -30 -39 -43 -39 -25 0 10 121 142 131
142 4 0 10 -4 13 -8z m222 -38 c-3 -9 0 -11 11 -7 24 9 8 -47 -20 -69 -21 -16
-22 -16 -25 2 -2 11 -7 20 -12 20 -4 0 -10 11 -12 24 -4 19 -1 23 11 18 9 -3
13 -2 9 3 -12 12 11 35 28 28 8 -3 13 -12 10 -19z m619 -24 c38 -38 41 -40 92
-36 l52 4 6 -42 c4 -24 5 -93 3 -155 -2 -86 -6 -114 -18 -121 -32 -20 -119
100 -155 215 l-13 40 -1 -38 c-1 -51 49 -153 105 -216 48 -53 51 -63 30 -80
-24 -20 -129 111 -146 183 l-8 31 -1 -31 c-1 -29 -52 -117 -101 -173 -20 -23
-21 -23 -35 -5 -16 21 -19 44 -7 44 17 0 114 141 128 186 16 54 18 94 2 49 -6
-16 -18 -46 -27 -65 l-16 -35 -6 90 -6 90 0 -96 1 -96 -45 -57 -44 -57 -13 32
c-20 48 -26 178 -12 253 14 76 34 90 26 19 l-5 -48 11 43 c9 37 14 43 32 38
26 -6 58 11 86 47 12 15 27 27 34 27 6 0 30 -18 51 -40z m-979 6 c0 -13 -4
-22 -7 -20 -9 5 -65 -124 -80 -186 -20 -84 -16 -214 9 -296 26 -83 83 -190
100 -187 6 2 9 -4 6 -12 -4 -8 -9 -15 -13 -15 -8 0 -100 160 -131 229 -21 47
-25 72 -25 151 0 111 17 173 73 256 20 31 43 67 50 80 16 30 20 30 18 0z
m1776 7 c-10 -4 -9 -9 5 -20 17 -13 16 -13 -4 -3 -31 15 -35 26 -10 27 12 0
16 -1 9 -4z m-1191 -57 c-13 -32 -19 -33 -17 -2 0 13 4 22 9 19 4 -2 7 1 7 8
0 7 2 10 5 7 3 -3 1 -17 -4 -32z m833 9 c-5 -11 1 -15 25 -15 24 0 34 -6 43
-25 14 -32 0 -50 -32 -40 -23 7 -55 69 -45 85 9 15 15 12 9 -5z m395 -33 l35
-29 -56 -6 c-64 -8 -88 -15 -88 -28 0 -5 10 -5 23 0 12 5 45 12 74 16 46 6 53
4 63 -14 9 -18 8 -21 -9 -21 -11 0 -27 -3 -37 -7 -12 -4 -15 -3 -10 5 4 7 17
12 29 13 12 0 17 3 11 5 -7 3 -38 -4 -70 -15 l-59 -20 85 -1 c62 -2 77 -4 55
-10 -16 -4 -51 -8 -77 -9 -26 0 -50 -5 -53 -11 -4 -6 24 -7 78 -4 57 4 87 3
91 -5 5 -7 -6 -11 -32 -11 -21 0 -61 -7 -88 -15 -27 -8 -50 -15 -51 -15 -2 0
-46 142 -49 161 -2 9 12 27 33 42 40 29 46 27 102 -21z m-426 29 c5 -1 6 -5 2
-10 -3 -5 -1 -12 4 -15 5 -3 7 -16 3 -28 -4 -16 -2 -19 8 -13 10 6 12 4 7 -9
-5 -14 -3 -17 8 -13 8 4 17 2 20 -3 4 -6 0 -10 -7 -11 -10 0 -10 -2 0 -6 6 -2
10 -9 6 -14 -3 -5 0 -9 5 -9 6 0 11 8 11 18 0 14 2 15 10 2 10 -16 -13 -36
-29 -25 -5 3 -12 1 -16 -5 -9 -14 -27 -1 -19 13 4 7 3 9 -1 4 -5 -4 -17 0 -27
10 -10 9 -18 11 -18 5 0 -6 6 -13 13 -15 9 -4 9 -6 -1 -6 -7 -1 -16 7 -19 17
-4 9 -10 20 -15 23 -14 9 10 61 24 53 8 -5 8 -1 -2 12 -22 29 -24 30 -17 12 7
-19 -19 -33 -29 -16 -5 7 -2 8 6 3 10 -6 12 -4 7 8 -7 17 6 25 38 21 11 -1 24
-3 28 -3z m-977 -36 c20 -48 19 -97 -2 -93 -9 2 -26 15 -37 30 -20 27 -20 28
-1 63 10 19 20 35 22 35 2 0 10 -16 18 -35z m1245 -75 c-4 -3 -6 -23 -5 -45 3
-52 4 -54 14 -30 7 19 8 19 18 -5 7 -18 6 -26 -2 -29 -6 -2 -17 -12 -24 -23
-22 -30 -30 -21 -28 35 1 34 -3 51 -11 50 -12 -2 -11 10 2 39 4 10 12 15 17
12 6 -4 8 2 3 17 -7 23 -7 23 8 4 8 -11 12 -22 8 -25z m272 -12 c3 -10 0 -21
-5 -25 -6 -3 -8 -1 -5 4 4 6 -3 23 -15 38 -21 27 -21 27 0 14 11 -7 23 -21 25
-31z m-1697 3 c18 15 18 -1 0 -36 -13 -24 -13 -32 -1 -55 8 -15 11 -30 8 -33
-3 -4 -1 -12 5 -19 13 -17 13 -30 -1 -47 -9 -12 -9 -13 1 -7 8 5 12 -1 12 -18
0 -19 -5 -26 -20 -26 -11 0 -20 -6 -21 -12 0 -7 -6 3 -12 22 -8 21 -10 53 -6
80 4 25 4 49 1 54 -3 5 0 6 6 2 15 -9 15 -1 1 25 -7 15 -7 24 0 33 6 8 10 20
8 27 -2 8 -2 10 1 6 2 -4 10 -3 18 4z m215 -26 c0 -14 -41 -19 -41 -5 0 6 5 8
10 5 6 -3 10 -1 10 5 0 7 5 10 11 8 6 -2 10 -8 10 -13z m162 -71 c4 -21 -1
-28 -28 -41 -23 -11 -36 -26 -44 -53 -15 -50 -14 -107 2 -113 7 -3 5 -6 -5 -6
-23 -1 -32 37 -23 97 9 59 20 80 59 114 17 15 32 27 32 28 1 0 4 -12 7 -26z
m1292 16 c4 -6 -11 -10 -37 -11 -24 -1 -56 -5 -73 -10 -20 -5 -5 -6 44 -3 96
7 86 -11 -11 -20 -94 -9 -92 -9 -96 3 -10 29 156 69 173 41z m-593 -23 c51
-42 83 -149 59 -196 -6 -10 -12 -28 -14 -42 -7 -42 -49 -169 -58 -175 -13 -7
-12 -1 11 67 11 33 17 65 14 71 -4 6 -3 8 3 5 17 -11 23 34 7 50 -8 8 -14 19
-14 24 0 6 -4 7 -10 4 -6 -4 -7 1 -3 11 5 14 3 16 -11 11 -10 -4 -15 -3 -11 3
3 6 1 10 -6 10 -8 0 -9 3 0 14 8 10 5 19 -15 41 -14 15 -23 29 -20 32 5 6 76
-35 76 -43 0 -3 -5 -2 -12 2 -7 5 -9 2 -5 -8 3 -9 0 -21 -6 -28 -9 -10 -9 -11
0 -6 7 4 14 -2 18 -15 4 -11 9 -18 12 -16 2 3 0 14 -6 25 -8 15 -7 23 2 31 10
8 13 1 12 -35 -1 -24 2 -47 6 -50 24 -15 29 78 6 123 -8 15 -29 40 -46 56 -17
15 -31 34 -31 42 0 20 10 18 42 -8z m181 -26 c-15 -12 -19 -22 -12 -30 5 -6 6
-9 3 -6 -9 6 -54 -62 -54 -81 0 -8 -5 -12 -10 -9 -6 4 -8 10 -6 14 7 11 -14
82 -22 77 -4 -3 -9 7 -10 22 -1 19 1 23 7 13 7 -10 21 -12 55 -7 25 4 48 11
51 17 4 5 9 9 13 9 4 -1 -3 -9 -15 -19z m-1010 -40 c-10 -99 -28 -95 -79 20
-11 25 -11 25 36 25 l47 0 -4 -45z m1422 29 c-3 -5 -15 -10 -25 -10 -11 0 -43
-9 -72 -20 -66 -25 -70 -25 -66 2 3 19 10 23 52 25 28 2 52 6 55 8 9 10 62 5
56 -5z m-1816 -73 c49 -8 71 -16 71 -25 0 -17 -60 -10 -142 16 -42 13 -54 22
-56 40 l-4 24 30 -22 c18 -13 58 -26 101 -33z m536 16 c-8 -34 -35 -73 -49
-72 -7 0 -6 2 2 6 6 2 12 9 12 14 0 4 -6 6 -14 3 -8 -3 -17 -1 -21 5 -3 6 0 9
7 6 21 -8 45 12 31 26 -9 9 -9 16 -1 29 17 26 41 13 33 -17z m384 -75 c22 -21
35 -38 28 -39 -9 0 -9 -2 0 -5 7 -3 9 -12 6 -20 -3 -7 -10 -11 -16 -7 -6 3 -7
1 -3 -6 5 -7 -3 -22 -18 -36 -14 -13 -26 -29 -26 -35 0 -6 -4 -8 -10 -5 -5 3
-10 1 -10 -4 0 -6 -10 -11 -22 -12 -13 0 -17 -3 -10 -6 6 -2 12 -9 12 -15 0
-6 -6 -6 -15 2 -8 7 -15 19 -15 26 0 8 -5 14 -12 14 -6 0 -9 2 -6 5 3 3 -7 19
-23 35 -16 16 -29 38 -29 49 0 12 -6 21 -12 22 -7 0 -3 4 9 9 13 5 31 23 41
40 10 16 22 27 26 23 4 -4 4 0 0 10 -4 12 -1 17 10 17 9 0 16 8 16 18 0 12 6
8 19 -13 10 -16 37 -47 60 -67z m-612 -103 c31 -73 82 -175 96 -194 6 -7 12
-18 13 -25 5 -31 10 -42 24 -53 8 -6 18 -9 23 -6 4 2 6 -1 5 -9 -2 -7 3 -12
11 -10 12 3 12 0 2 -12 -24 -29 -164 129 -229 259 -20 41 -28 100 -24 185 l2
45 26 -60 c14 -33 37 -87 51 -120z m253 122 c0 -12 12 -42 25 -66 14 -24 24
-45 23 -46 -2 -2 -25 0 -51 5 -58 9 -76 23 -55 43 7 8 20 33 27 55 14 43 31
47 31 9z m602 -1 c7 4 8 2 4 -5 -4 -6 6 -24 23 -42 34 -34 37 -39 18 -39 -11
0 -31 24 -50 60 -5 10 -6 8 -3 -7 2 -13 0 -26 -5 -29 -5 -3 -9 -10 -9 -17 0
-6 6 -2 14 8 13 18 14 17 14 -7 0 -22 -6 -27 -37 -31 -20 -2 -37 -3 -38 -3 -1
1 9 29 22 62 14 32 25 66 26 74 1 8 4 5 6 -8 3 -13 9 -19 15 -16z m-1232 9
c30 -8 74 -15 96 -15 l41 0 7 -62 c8 -77 33 -155 56 -178 9 -9 30 -42 46 -73
27 -54 50 -78 38 -39 -5 14 -4 14 4 2 6 -8 8 -18 6 -22 -3 -5 2 -16 12 -25 16
-16 16 -16 10 7 -6 20 -5 22 4 8 5 -9 23 -19 39 -23 16 -3 37 -15 46 -25 10
-11 21 -18 25 -15 4 2 21 -13 39 -35 26 -32 31 -47 30 -87 l-2 -48 -6 51 c-7
55 -26 88 -48 80 -7 -3 -13 0 -13 5 0 7 -10 5 -25 -5 -23 -15 -24 -15 -18 1 6
16 4 16 -16 -1 -14 -13 -20 -15 -16 -5 4 10 -3 14 -21 16 -19 1 -23 -1 -13 -8
12 -7 12 -9 -1 -10 -8 -1 -25 -3 -37 -4 -14 -1 -20 2 -16 11 2 7 -4 14 -17 16
-11 2 -20 7 -20 12 1 5 -4 13 -12 17 -11 7 -10 11 2 19 8 5 21 8 28 5 7 -3 10
0 7 5 -9 14 -42 13 -47 -2 -3 -7 -11 -9 -24 -4 -19 8 -19 8 1 16 20 9 20 9 0
10 -11 2 -24 2 -28 1 -4 -1 -10 6 -13 14 -4 8 -12 15 -19 15 -7 0 -19 7 -26
16 -12 15 -11 16 8 10 13 -4 43 -9 68 -11 69 -6 40 21 -30 28 -30 3 -60 9 -67
14 -7 4 -17 8 -22 8 -5 0 -10 7 -11 16 -2 9 -15 35 -29 58 -36 56 -76 170 -76
215 0 20 1 36 3 36 1 0 27 -7 57 -15z m190 -37 c0 -5 -4 -8 -10 -8 -5 0 -10
10 -10 23 0 18 2 19 10 7 5 -8 10 -18 10 -22z m46 9 c-8 15 10 27 19 13 4 -6
1 -17 -5 -26 -15 -17 -40 -2 -40 24 0 13 3 12 16 -4 8 -10 13 -14 10 -7z m37
-139 c60 -105 113 -180 176 -247 36 -39 42 -42 58 -30 16 13 17 12 4 -3 -12
-16 -11 -18 10 -20 13 0 30 -1 37 -1 9 1 12 -6 9 -18 -3 -10 -1 -17 4 -13 5 3
9 -2 9 -10 0 -21 -28 -9 -35 15 -4 13 -13 18 -24 14 -10 -3 -35 11 -68 40 -28
25 -58 45 -66 45 -25 0 -111 94 -145 158 -31 58 -56 157 -45 175 8 13 17 0 76
-105z m910 -1 c-3 -5 8 -8 23 -7 46 3 53 1 64 -20 9 -17 8 -19 -7 -13 -16 6
-16 5 -4 -10 10 -13 11 -20 2 -30 -6 -8 -7 -17 -3 -22 4 -4 -2 -3 -13 3 -12 6
-27 10 -35 9 -8 -1 -16 3 -17 8 -1 6 7 9 17 7 28 -5 25 7 -5 18 -24 9 -35 30
-15 30 16 0 51 -40 45 -50 -4 -6 -2 -10 4 -10 16 0 23 20 12 34 -6 7 -7 16 -1
22 5 5 -3 10 -23 11 -53 4 -98 14 -93 21 2 4 15 7 29 7 14 0 23 -4 20 -8z
m-474 -10 c6 -8 7 -18 3 -22 -4 -5 2 -5 13 -1 15 5 17 4 8 -5 -13 -13 -37 -3
-28 12 8 12 -2 11 -26 -1 -14 -8 -19 -7 -19 2 0 7 -8 1 -17 -12 -10 -14 -17
-29 -15 -35 2 -5 -9 3 -23 19 -30 35 -25 43 35 49 25 2 48 4 51 5 4 1 12 -4
18 -11z m939 -54 c-11 -27 -29 -60 -40 -75 -11 -16 -16 -28 -12 -28 3 0 1 -7
-6 -15 -6 -8 -9 -18 -7 -22 3 -5 -3 -9 -13 -9 -18 0 -18 2 -4 18 9 9 13 22 9
28 -4 6 2 21 13 33 10 12 28 38 38 57 40 74 52 81 22 13z m-949 13 c9 -11 9
-16 0 -22 -7 -4 -9 -3 -5 4 3 6 2 14 -4 17 -6 4 -16 -6 -23 -24 -6 -17 -15
-31 -19 -31 -12 0 -19 18 -8 25 6 4 7 11 4 17 -4 7 -2 8 5 4 6 -4 14 0 17 8 8
20 18 20 33 2z m446 4 c4 -6 11 -8 16 -5 5 3 6 -1 3 -9 -3 -9 -10 -16 -16 -16
-5 0 -6 5 -3 10 3 6 1 11 -4 11 -35 4 -45 3 -48 -8 -3 -8 5 -13 19 -14 19 -1
18 -3 -10 -12 -42 -13 -49 -5 -21 27 23 27 53 34 64 16z m22 -60 c-3 -11 -1
-20 4 -20 4 0 5 -7 2 -17 -5 -12 -3 -14 7 -8 9 6 11 4 5 -5 -6 -10 -11 -9 -20
4 -12 16 -14 16 -30 0 -13 -14 -23 -15 -50 -7 -18 6 -46 9 -62 7 -15 -2 -21
-1 -13 2 8 4 23 15 34 26 21 19 76 25 76 7 0 -5 -8 -9 -17 -8 -35 3 -54 -1
-48 -11 11 -18 70 -11 88 10 9 11 17 25 17 30 0 6 3 10 6 10 4 0 4 -9 1 -20z
m352 -1 c-13 -12 -23 -26 -21 -33 2 -7 -1 -7 -9 1 -10 10 -8 17 11 33 13 11
28 20 33 20 6 0 -1 -9 -14 -21z m-253 -33 c0 -13 -4 -22 -8 -20 -9 6 -6 44 3
44 4 0 6 -11 5 -24z m210 -21 c2 -14 -8 -19 -28 -16 -5 0 -8 -9 -8 -21 0 -12
-3 -19 -6 -15 -4 3 -3 18 0 34 6 21 9 24 17 12 7 -12 9 -12 10 1 1 8 0 20 -1
25 -1 6 2 6 6 2 4 -4 9 -14 10 -22z m-646 -31 c0 -7 -8 -11 -17 -9 -10 2 -34
4 -53 5 -32 2 -33 3 -10 9 39 11 80 9 80 -5z m-308 -133 c3 9 6 8 11 -3 8 -22
-30 -16 -52 8 -15 15 -14 15 11 0 19 -13 27 -14 30 -5z m438 -58 c0 -13 -4
-23 -9 -23 -5 0 -9 16 -8 35 1 38 17 26 17 -12z m-610 -19 c0 -32 -4 -44 -12
-42 -7 3 -14 15 -16 29 -2 20 -1 21 8 9 9 -12 10 -8 5 18 -4 20 -3 32 4 32 6
0 11 -20 11 -46z m32 -9 c2 -46 1 -53 -9 -38 -15 19 -18 93 -4 93 5 0 11 -25
13 -55z m28 3 c0 -28 -2 -49 -4 -47 -8 9 -13 99 -5 99 5 0 9 -23 9 -52z m32 7
c2 -29 -1 -46 -9 -50 -9 -3 -13 10 -13 45 0 62 17 66 22 5z m27 -7 c-2 -52 -2
-53 -8 -13 -4 22 -5 46 -3 53 8 25 12 11 11 -40z m58 -25 c-2 -16 -4 -3 -4 27
0 30 2 43 4 28 2 -16 2 -40 0 -55z m820 0 c-2 -16 -4 -3 -4 27 0 30 2 43 4 28
2 -16 2 -40 0 -55z m137 29 c4 -26 3 -41 -3 -38 -5 4 -12 0 -14 -6 -3 -7 -6 8
-6 33 -1 25 2 49 6 52 9 9 9 8 17 -41z m-1257 -24 c-2 -13 -4 -3 -4 22 0 25 2
35 4 23 2 -13 2 -33 0 -45z m338 13 c0 -59 -11 -54 -17 7 -2 24 1 42 7 42 5 0
10 -22 10 -49z m849 7 c-5 -58 -14 -61 -14 -5 0 26 4 47 9 47 4 0 7 -19 5 -42z
m93 -20 c-2 -13 -4 -3 -4 22 0 25 2 35 4 23 2 -13 2 -33 0 -45z m112 -18 c1
-13 0 -13 -9 0 -5 8 -9 26 -9 40 l1 25 8 -25 c4 -14 8 -32 9 -40z m-445 -8
c-5 -25 3 -35 85 -106 50 -43 91 -80 91 -82 0 -9 -139 67 -168 91 -27 22 -30
31 -25 57 4 22 3 29 -6 24 -8 -6 -8 -1 1 18 15 35 29 33 22 -2z m386 -52 c-7
-4 -10 -12 -6 -18 9 -15 -45 -122 -61 -122 -9 0 -5 14 13 41 14 22 23 43 21
46 -3 3 -11 -5 -17 -17 -8 -14 -17 -19 -30 -15 -21 7 -36 -10 -19 -21 8 -4 9
-3 5 4 -4 7 -2 12 3 12 14 0 14 -17 1 -25 -17 -10 -50 15 -50 38 0 26 52 62
76 53 7 -3 14 -1 14 5 0 6 4 7 10 4 5 -3 15 3 22 14 6 11 16 17 21 14 5 -3 4
-9 -3 -13z m29 -21 c-12 -7 -12 -9 0 -9 8 0 11 -3 8 -6 -6 -7 50 -86 65 -92 5
-2 8 -11 8 -19 0 -13 -8 -15 -47 -9 -25 3 -48 8 -51 10 -2 2 2 15 10 28 15 27
19 58 7 58 -5 0 -9 -8 -9 -18 0 -10 -7 -27 -16 -38 -8 -10 -13 -13 -9 -6 3 6
1 12 -6 12 -7 0 -4 6 7 14 10 8 16 18 12 22 -4 4 -3 13 2 20 6 6 10 16 9 20
-4 22 2 35 12 28 8 -4 7 -9 -2 -15z m-1239 -4 c11 -4 20 -10 20 -15 0 -5 7
-15 15 -24 30 -30 -14 -68 -54 -47 -25 14 -64 77 -56 91 6 10 34 8 75 -5z
m116 -15 c27 0 14 -43 -23 -78 -47 -44 -158 -96 -238 -110 -33 -6 -102 -14
-152 -18 -51 -4 -93 -9 -93 -11 0 -2 5 -14 11 -26 7 -12 12 -34 11 -50 -1 -33
25 -80 39 -71 12 7 11 64 -1 64 -5 0 -7 -15 -5 -32 l5 -33 -15 33 c-12 26 -13
36 -3 52 7 11 17 20 22 20 4 0 3 7 -4 15 -11 13 -10 14 4 9 9 -3 16 -10 16
-15 0 -5 5 -9 11 -9 5 0 8 4 5 8 -3 5 0 9 7 10 7 1 27 5 45 8 26 5 31 3 27 -9
-4 -8 1 -17 9 -20 22 -9 20 -26 -1 -22 -10 2 -18 4 -18 5 0 1 -13 3 -28 4 -27
3 -28 2 -22 -43 8 -61 13 -73 24 -66 5 3 12 1 16 -5 12 -20 25 1 23 38 l-1 37
-4 -33 c-6 -45 -23 -30 -23 21 0 23 4 38 8 32 4 -5 14 -10 22 -10 11 0 14 -11
12 -45 -1 -39 0 -42 8 -21 6 14 9 30 6 38 -3 7 -1 15 4 18 6 4 11 -12 12 -37
l1 -43 4 40 c3 22 9 45 15 50 7 7 9 6 5 -1 -3 -6 0 -11 7 -11 8 0 12 6 9 14
-3 7 0 13 6 13 6 0 11 -6 11 -13 0 -8 9 -13 21 -12 18 1 22 9 26 48 2 28 -1
47 -7 47 -5 0 -9 -3 -9 -7 1 -5 0 -21 -1 -38 -2 -29 -2 -28 -11 9 -11 45 -12
43 21 48 20 2 25 -1 23 -17 -4 -39 -5 -91 -3 -125 1 -28 3 -31 9 -15 4 11 7
54 6 96 l-3 75 62 17 c48 13 64 14 73 4 18 -19 34 -90 23 -101 -6 -6 -12 6
-16 33 -4 23 -11 44 -17 48 -6 4 -8 -4 -3 -21 19 -80 19 -83 3 -61 -8 11 -18
38 -22 60 -7 31 -10 35 -13 17 -2 -13 4 -41 12 -63 21 -53 20 -60 -4 -24 -11
17 -20 42 -20 58 0 15 -4 27 -9 27 -12 0 -1 -74 11 -78 4 -2 8 -8 8 -13 0 -6
-4 -8 -9 -5 -5 4 -12 0 -14 -6 -3 -7 -6 3 -6 22 -1 19 -6 42 -11 50 -8 11 -9
-3 -6 -45 3 -38 2 -54 -4 -45 -6 8 -10 30 -10 48 0 17 -5 32 -11 32 -10 0 -7
-40 8 -98 4 -17 2 -23 -6 -18 -6 4 -11 0 -11 -10 0 -13 3 -14 13 -5 8 6 18 7
22 3 5 -4 5 2 1 12 -5 15 -4 16 7 8 9 -8 25 -3 62 20 92 58 242 126 344 158
55 17 101 37 101 43 0 6 6 2 14 -9 8 -10 13 -20 11 -22 -6 -6 -143 -55 -193
-68 -60 -17 -223 -88 -264 -116 -14 -10 -31 -18 -37 -18 -6 0 -11 -4 -11 -9 0
-5 -9 -11 -21 -14 -14 -4 -18 -10 -13 -18 6 -10 9 -10 12 -1 5 15 22 16 22 1
0 -17 -28 -41 -32 -27 -3 8 -10 8 -26 -1 -15 -8 -22 -8 -22 -1 0 6 7 13 15 16
8 4 15 10 15 16 0 5 -6 6 -12 2 -37 -23 -85 7 -73 45 4 12 2 21 -4 21 -6 0
-11 -9 -11 -19 0 -11 -3 -28 -6 -38 -4 -13 -3 -15 4 -4 7 10 11 10 17 1 5 -8
0 -17 -11 -24 -25 -14 -64 -17 -64 -5 0 6 -5 7 -10 4 -6 -4 -8 -10 -5 -15 3
-4 -4 -6 -16 -3 -16 4 -17 8 -7 14 7 5 8 9 3 9 -6 0 -16 -5 -23 -12 -7 -7 -12
-8 -12 -2 0 17 -53 15 -73 -3 -11 -10 -17 -12 -13 -5 4 7 1 12 -9 12 -10 0
-14 -5 -10 -12 4 -7 0 -5 -8 5 -14 17 -29 23 -25 10 2 -5 -1 -8 -7 -8 -5 0 -9
3 -7 8 1 4 -3 7 -9 7 -5 0 -8 4 -5 9 3 5 -1 12 -9 15 -13 5 -14 10 -4 27 9 17
8 20 -2 14 -9 -6 -11 -3 -6 8 3 8 -1 21 -9 27 -21 18 -17 33 5 21 17 -10 18
-7 14 33 -7 55 0 59 127 75 52 7 128 21 169 32 86 23 221 83 221 98 0 20 -4
26 -15 24 -6 -2 -11 6 -12 18 -1 15 2 19 13 15 9 -3 22 -6 30 -6z m929 -42 c5
-17 21 -39 35 -49 31 -22 230 -69 325 -76 103 -7 129 -17 143 -56 16 -44 15
-76 -2 -109 -14 -26 -13 -28 4 -28 16 0 17 -3 7 -25 -7 -14 -16 -25 -20 -25
-5 0 -5 -5 -1 -11 5 -9 -1 -10 -21 -5 -16 4 -31 3 -34 -3 -4 -6 -20 -7 -43 -2
-20 5 -40 6 -43 2 -4 -3 -25 -7 -47 -7 -22 -1 -35 2 -29 6 9 5 9 9 -3 13 -9 4
-16 2 -16 -3 0 -6 -5 -10 -11 -10 -5 0 -7 5 -4 10 3 6 1 10 -4 10 -6 0 -11 -8
-11 -17 -1 -17 -2 -17 -14 0 -9 12 -16 14 -21 8 -3 -6 -12 -11 -18 -11 -7 0
-6 4 3 11 12 9 11 10 -7 6 -13 -3 -23 -1 -23 4 0 5 -6 9 -14 9 -9 0 -13 -7
-11 -17 2 -14 -4 -18 -25 -18 -27 0 -34 15 -15 32 4 4 5 2 1 -4 -5 -9 0 -13
13 -13 44 0 12 27 -94 78 -60 30 -171 78 -245 109 -74 30 -141 57 -147 60 -7
3 -13 1 -13 -5 0 -5 17 -17 38 -25 25 -11 31 -16 16 -16 -11 -1 -29 5 -39 13
-11 8 -25 12 -32 9 -7 -3 -13 2 -13 10 0 9 9 18 19 22 13 4 18 11 14 22 -5 12
-2 15 8 10 8 -3 59 -24 114 -47 90 -37 337 -161 390 -196 11 -7 30 -15 40 -17
11 -1 26 -6 33 -10 7 -5 12 -3 12 5 0 9 3 9 10 -2 8 -12 11 -13 19 -1 5 8 11
9 15 3 3 -6 15 -8 26 -5 16 4 20 13 19 47 l-2 41 -7 -40 c-7 -39 -7 -38 -8 15
0 30 2 50 4 44 6 -13 44 -6 44 8 0 5 -12 7 -27 4 -16 -2 -31 -5 -35 -5 -4 -1
-5 -25 -2 -53 3 -29 2 -48 -3 -43 -4 6 -19 10 -33 10 -14 0 -44 5 -67 11 -23
7 -44 9 -47 6 -4 -3 -6 -1 -6 5 0 5 -11 15 -25 21 -14 6 -25 16 -25 22 0 7 7
4 16 -4 8 -9 20 -14 25 -11 5 4 9 2 9 -4 0 -6 11 -6 32 0 41 11 38 12 38 -6 0
-8 4 -15 10 -15 5 0 7 7 4 15 -4 8 -1 15 5 15 6 0 11 -6 11 -14 0 -8 5 -18 11
-22 8 -4 9 0 4 15 -4 15 -2 21 8 21 17 0 26 28 28 80 0 19 3 29 6 22 4 -10 8
-10 20 0 12 10 17 9 28 -5 13 -18 31 -24 20 -8 -3 5 -1 12 5 16 5 3 10 -1 10
-10 0 -15 2 -15 15 -2 12 12 21 13 51 4 20 -6 32 -13 26 -15 -6 -2 -8 -11 -5
-20 6 -15 4 -15 -9 -4 -14 11 -17 10 -21 -5 -3 -10 -1 -38 3 -63 l9 -45 -3 52
c-1 29 1 50 6 47 4 -3 8 -16 8 -30 0 -13 4 -24 9 -24 5 0 7 8 4 19 -3 10 0 22
6 25 7 5 11 -9 12 -41 l1 -48 9 40 c11 53 11 77 0 71 -4 -3 -8 8 -7 24 1 20 5
29 14 25 6 -2 12 -1 12 4 0 11 -60 21 -130 21 -148 2 -328 68 -364 134 -10 19
-15 39 -11 46 9 15 17 6 30 -32z m-1136 -4 c4 3 7 -3 7 -12 1 -9 3 -23 5 -31
4 -14 -48 -39 -114 -55 l-28 -7 33 30 c24 21 34 26 38 16 4 -10 10 -9 28 6 13
10 20 23 16 30 -4 8 -11 4 -20 -12 -7 -13 -13 -18 -14 -11 0 19 33 67 38 53 2
-6 7 -9 11 -7z m1589 -27 c20 -16 14 -42 -17 -65 l-30 -22 -26 31 c-29 36 -28
49 5 66 23 11 44 8 68 -10z m-944 -9 c-3 -4 -11 -8 -19 -8 -7 0 -15 -6 -18
-14 -3 -8 -16 -20 -29 -27 l-23 -12 20 24 c11 13 26 29 34 35 16 13 43 15 35
2z m-266 -19 c-10 -7 -10 -9 2 -10 8 0 4 -4 -10 -8 -14 -4 -26 -12 -26 -19 -1
-7 -2 -22 -3 -34 -1 -19 -3 -20 -11 -8 -8 13 -10 12 -10 -2 0 -10 4 -18 9 -18
12 0 32 26 25 33 -3 3 -1 14 6 24 10 15 11 16 6 1 -3 -10 -1 -20 4 -23 6 -4
10 -9 10 -13 0 -6 -65 -52 -74 -52 -2 0 -2 20 0 45 1 25 -1 45 -5 45 -5 0 -7
-18 -6 -41 2 -25 -3 -46 -12 -55 -19 -19 -22 -16 -27 32 -2 21 -7 47 -11 57
-6 13 -2 17 19 18 14 1 32 2 39 3 6 1 15 -8 19 -19 5 -17 6 -16 7 6 1 18 8 28
22 32 12 3 18 10 14 16 -4 7 0 8 10 4 13 -5 14 -7 3 -14z m1088 -38 c1 -6 0
-8 -2 -3 -3 5 -16 7 -31 4 -18 -3 -24 -1 -19 6 9 15 49 9 52 -7z m-1050 -2 c3
-6 0 -15 -7 -20 -22 -14 -29 -11 -29 11 0 21 24 27 36 9z m-186 -2 c0 -1 4
-17 9 -35 7 -23 7 -30 -1 -26 -8 5 -9 1 -5 -9 22 -54 22 -53 3 -38 -9 8 -16
24 -15 35 2 35 -1 47 -10 41 -5 -3 -13 0 -17 6 -3 6 0 15 7 20 13 8 29 12 29
6z m963 -28 c31 -8 37 -14 37 -37 0 -15 3 -37 6 -49 4 -14 2 -23 -5 -23 -6 0
-11 19 -11 45 0 25 -5 45 -11 45 -7 0 -8 -16 -3 -47 3 -27 3 -44 -2 -40 -4 4
-11 29 -15 55 l-7 47 1 -53 c1 -28 -1 -52 -5 -52 -5 0 -8 26 -8 57 0 73 -10
64 -11 -10 -1 -31 -6 -54 -10 -51 -11 6 -12 124 -1 124 4 0 24 -5 45 -11z m93
-29 c10 0 14 -12 13 -42 l-2 -43 -7 40 -7 40 -3 -40 -3 -40 -4 35 c-6 52 -22
60 -17 9 3 -35 2 -39 -5 -19 -15 43 -13 73 5 66 9 -3 22 -6 30 -6z m-647 -60
l59 -61 31 27 c17 14 31 23 31 19 0 -3 5 -3 12 1 8 5 0 17 -23 37 l-34 30 33
-19 c17 -10 32 -23 32 -28 0 -5 8 -2 18 7 29 26 38 20 12 -8 -13 -13 -54 -43
-92 -66 l-69 -42 -52 37 c-61 43 -111 85 -105 91 2 2 38 -23 81 -56 42 -32 80
-59 84 -59 5 0 -19 25 -52 55 -73 66 -61 74 13 9 29 -26 55 -45 57 -43 2 3
-18 27 -45 55 -40 42 -51 49 -70 42 -35 -13 -48 4 -15 18 17 7 31 13 32 14 2
0 29 -27 62 -60z m79 28 c18 -15 32 -29 32 -32 0 -3 -11 -13 -25 -22 -24 -16
-27 -16 -45 1 -12 11 -18 26 -15 36 3 9 0 21 -6 25 -9 5 -10 2 -6 -9 8 -22 2
-21 -23 0 -29 25 -25 30 18 29 26 -1 49 -10 70 -28z m613 0 c1 -22 1 -22 9 2
8 24 8 24 9 -7 1 -17 4 -40 7 -50 6 -17 6 -17 -8 1 -8 10 -20 16 -26 12 -8 -5
-12 4 -12 28 0 39 19 51 21 14z m36 -25 c-3 -10 -5 -2 -5 17 0 19 2 27 5 18 2
-10 2 -26 0 -35z m-1387 6 c0 -19 -4 -28 -11 -24 -6 4 -8 13 -5 21 3 7 1 16
-4 19 -6 4 -10 -3 -10 -14 0 -15 -5 -19 -21 -16 -28 6 -33 11 -24 25 6 9 10 9
16 -1 7 -11 9 -10 9 4 0 11 8 17 25 17 21 0 25 -5 25 -31z m495 -21 c16 -12
44 -37 64 -56 20 -18 46 -40 59 -49 12 -8 22 -22 22 -29 0 -16 16 -19 25 -4 4
7 12 7 24 0 10 -5 21 -7 24 -4 3 3 8 0 13 -7 4 -8 3 -10 -4 -5 -7 4 -12 2 -12
-4 0 -7 -7 -5 -16 4 -19 20 -28 20 -21 1 5 -11 1 -12 -20 -4 -14 5 -28 8 -30
5 -2 -2 -29 23 -59 55 -31 31 -71 68 -90 81 -19 13 -34 26 -34 31 0 14 28 7
55 -15z m420 12 c3 -5 -7 -16 -22 -24 -32 -17 -78 -58 -112 -101 -13 -17 -26
-25 -28 -19 -2 7 -13 10 -23 7 -29 -8 -24 9 8 29 15 10 54 40 87 68 59 50 78
59 90 40z m-1058 -97 c-2 -16 -4 -3 -4 27 0 30 2 43 4 28 2 -16 2 -40 0 -55z
m1135 48 c17 -11 35 -18 40 -15 4 3 5 -3 1 -13 -3 -10 -3 -15 2 -11 12 11 35
-11 35 -33 0 -12 5 -16 15 -13 8 4 15 13 15 21 0 8 5 11 11 7 8 -4 8 -9 0 -17
-6 -6 -11 -22 -11 -35 0 -18 -4 -23 -16 -18 -9 3 -20 6 -25 6 -6 0 -8 4 -5 9
3 5 -2 15 -11 22 -15 13 -16 11 -9 -16 l8 -30 -21 23 c-13 15 -32 24 -55 26
-20 1 -41 7 -48 14 -11 11 -5 12 27 7 72 -10 108 -10 112 0 3 10 -30 16 -93
18 -14 1 -20 6 -17 14 6 16 5 15 37 3 33 -12 33 -7 1 14 -23 15 -25 15 -51 -9
-15 -14 -34 -25 -43 -25 -10 1 -2 13 24 35 22 19 41 35 42 35 2 0 17 -9 35
-19z m-568 -16 c10 -8 23 -12 29 -8 6 3 7 1 3 -5 -3 -6 -2 -13 4 -17 15 -9 12
-28 -2 -19 -7 4 -9 3 -5 -1 13 -15 36 -14 30 1 -6 16 13 19 22 3 4 -6 14 -8
23 -4 9 3 13 3 9 -1 -4 -4 1 -13 11 -21 15 -11 15 -12 1 -7 -10 3 -20 1 -24
-5 -3 -6 -1 -11 4 -11 6 0 11 -5 11 -11 0 -6 -5 -7 -12 -2 -7 4 -19 8 -26 9
-18 3 -29 14 -14 14 7 0 12 4 12 9 0 12 -53 3 -61 -11 -10 -15 -111 -1 -122
17 -13 23 -26 18 -22 -10 3 -35 -8 -39 -22 -8 -10 21 -10 24 2 19 8 -3 14 -2
14 2 -3 20 3 28 24 29 12 0 16 -1 9 -4 -27 -11 0 -20 44 -15 34 3 45 2 40 -7
-12 -19 10 -12 29 9 20 22 20 22 -11 38 -21 11 -95 9 -114 -3 -5 -3 -10 -2
-10 4 0 12 46 29 80 30 14 0 34 -6 44 -14z m-144 -20 c-6 -8 -9 -18 -6 -24 3
-5 -1 -12 -10 -15 -13 -5 -14 -9 -4 -22 11 -12 11 -17 0 -27 -10 -10 -12 -8
-6 7 6 19 6 19 -12 3 -10 -9 -21 -15 -24 -12 -10 10 -49 14 -43 4 4 -5 -1 -9
-10 -9 -12 0 -15 5 -11 16 3 9 6 20 6 25 0 6 4 8 9 5 5 -3 11 4 14 15 6 21 27
18 27 -4 0 -7 -4 -6 -11 3 -9 12 -10 12 -7 1 6 -21 28 -26 28 -7 0 9 11 21 24
26 13 5 27 14 31 19 3 6 9 11 12 11 3 0 0 -7 -7 -15z m139 -14 c10 -6 -1 -8
-30 -4 -24 3 -46 7 -48 9 -10 9 65 3 78 -5z m493 -28 c29 -26 21 -36 -12 -13
-18 13 -35 18 -42 13 -15 -9 -20 -43 -7 -43 5 0 9 5 9 12 0 6 2 9 5 6 3 -3 3
-12 -1 -21 -5 -13 -10 -14 -30 -5 -20 9 -22 13 -10 20 8 4 12 16 10 25 -7 25
53 29 78 6z m238 -13 c-6 -11 -17 -20 -24 -20 -9 0 -12 7 -9 20 3 11 14 20 25
20 16 0 17 -3 8 -20z m36 5 c-3 -10 1 -15 12 -16 14 0 14 -2 2 -6 -8 -3 -18
-11 -22 -17 -5 -8 -11 -7 -20 2 -9 9 -9 12 5 12 9 0 16 3 16 8 -3 15 1 32 7
32 3 0 4 -7 0 -15z m-176 -30 c15 -18 -7 -32 -23 -16 -9 9 -7 11 8 6 14 -5 16
-4 7 3 -8 5 -24 8 -38 6 -14 -1 -24 3 -24 10 0 16 55 9 70 -9z m-1340 -32 c0
-5 59 -8 130 -8 94 1 130 -2 130 -11 0 -9 -42 -12 -160 -10 -88 0 -160 3 -160
7 0 3 5 10 12 17 13 13 48 16 48 5z m2080 -25 c0 -11 -739 -7 -746 4 -6 9 44
11 419 13 187 1 277 -2 277 -9 0 -6 5 -3 11 7 8 14 14 16 25 6 8 -6 14 -16 14
-21z m-872 14 c17 -1 32 -5 32 -9 0 -5 -218 -9 -485 -9 -354 -1 -485 2 -485
10 0 8 123 11 453 10 248 0 467 -1 485 -2z m112 -12 c0 -5 -9 -10 -20 -10 -11
0 -20 5 -20 10 0 6 9 10 20 10 11 0 20 -4 20 -10z m766 -42 c4 -7 7 -33 6 -58
-1 -32 1 -39 7 -25 8 20 8 20 14 0 7 -22 3 -72 -6 -81 -3 -3 -23 -10 -44 -15
-53 -12 -2085 -12 -2117 1 -14 5 -26 17 -26 25 0 9 -4 13 -10 10 -5 -3 -10 -1
-10 4 0 6 6 11 13 11 9 0 8 3 -2 9 -8 5 -10 14 -6 22 5 7 9 29 10 48 1 20 3
42 4 49 2 17 2156 18 2167 0z"/>
<path d="M1257 4112 c-24 -26 -21 -39 3 -17 14 13 28 16 52 11 31 -5 32 -5 14
9 -26 20 -49 19 -69 -3z"/>
<path d="M1271 3664 l-25 -46 21 -17 c19 -15 43 -51 43 -65 0 -19 -22 -1 -39
32 -21 39 -70 80 -57 47 6 -17 28 -47 73 -103 17 -21 22 -23 23 -10 0 9 11 33
25 53 l24 37 -29 59 c-17 32 -31 59 -33 59 -1 0 -13 -21 -26 -46z m53 -49 c6
-36 5 -38 -8 -22 -8 10 -12 26 -9 36 3 10 0 22 -6 25 -6 4 -11 12 -11 19 0 27
28 -21 34 -58z"/>
<path d="M531 3758 c-1 -12 -6 -15 -18 -11 -11 4 -6 -5 12 -24 17 -17 31 -30
33 -28 1 1 -4 19 -12 41 -8 21 -15 31 -15 22z"/>
<path d="M438 3696 c-10 -7 -14 -17 -9 -22 4 -5 14 -29 21 -53 l14 -43 22 28
c23 28 23 28 3 55 -10 15 -19 32 -19 38 0 14 -11 13 -32 -3z m35 -37 c19 -34
15 -52 -7 -28 -17 17 -30 59 -19 59 4 0 16 -14 26 -31z"/>
<path d="M270 3490 c19 -13 30 -13 30 0 0 6 -10 10 -22 10 -19 0 -20 -2 -8
-10z"/>
<path d="M2095 3710 c-8 -25 36 -73 59 -64 9 3 16 11 16 16 0 6 -7 8 -15 4 -9
-3 -15 0 -15 9 0 9 -6 12 -17 8 -13 -5 -15 -2 -11 15 8 28 -8 39 -17 12z"/>
<path d="M2166 3635 c-25 -18 -16 -34 11 -20 12 6 19 16 15 22 -5 8 -12 7 -26
-2z"/>
<path d="M932 3748 c-14 -14 -15 -37 -2 -58 7 -12 9 -11 8 5 -1 11 2 30 6 43
8 25 5 27 -12 10z"/>
<path d="M957 3708 c-2 -18 -1 -40 4 -48 10 -17 9 -18 13 38 3 49 -9 57 -17
10z"/>
<path d="M880 3504 c0 -5 7 -19 15 -30 8 -10 15 -14 15 -8 0 5 -7 19 -15 30
-8 10 -15 14 -15 8z"/>
<path d="M574 3293 c4 -8 1 -13 -8 -13 -9 0 -16 -4 -16 -10 0 -12 11 -13 30 0
13 8 13 11 1 22 -10 10 -12 10 -7 1z"/>
<path d="M606 3238 c3 -5 10 -6 16 -2 5 3 22 -5 36 -18 42 -39 92 -70 92 -59
0 6 -5 11 -10 11 -6 0 -30 18 -53 40 -25 23 -52 38 -64 37 -12 0 -19 -5 -17
-9z"/>
<path d="M780 3156 c0 -7 112 -87 117 -82 2 2 -20 23 -50 45 -49 37 -67 47
-67 37z"/>
<path d="M1733 3618 c-23 -30 -24 -41 -2 -22 13 12 31 24 39 27 10 4 8 6 -6 6
-12 1 -26 -5 -31 -11z"/>
<path d="M1776 3536 c-20 -19 -36 -39 -36 -45 0 -5 -7 -14 -16 -19 -11 -6 -13
-11 -5 -16 6 -4 11 -3 11 2 0 6 21 33 46 61 53 59 53 66 0 17z"/>
<path d="M2077 3533 c-3 -5 6 -16 20 -27 25 -18 25 -18 14 2 -13 25 -28 35
-34 25z"/>
<path d="M1830 3490 c-12 -16 -19 -30 -16 -30 2 0 14 14 26 30 12 17 19 30 16
30 -2 0 -14 -13 -26 -30z"/>
<path d="M2068 3340 c-10 -10 -14 -21 -10 -24 8 -5 26 14 30 32 3 17 -1 15
-20 -8z"/>
<path d="M2014 3282 c-12 -15 -67 -59 -123 -97 -56 -38 -105 -73 -108 -79 -8
-13 6 -3 122 77 89 62 161 128 138 126 -4 0 -18 -12 -29 -27z"/>
<path d="M2062 3268 c-10 -13 -29 -67 -20 -58 7 7 37 70 33 70 -1 0 -7 -6 -13
-12z"/>
<path d="M2325 3460 c-4 -6 5 -10 20 -10 15 0 24 4 20 10 -3 6 -12 10 -20 10
-8 0 -17 -4 -20 -10z"/>
<path d="M1440 3539 c-26 -35 -19 -52 8 -21 l19 21 26 -27 c27 -28 36 -49 17
-37 -15 9 -12 -8 7 -35 l17 -25 -22 19 c-29 25 -28 10 0 -23 13 -14 -2 -2 -33
27 -30 28 -60 52 -66 52 -39 0 -5 -67 69 -138 31 -29 36 -31 42 -16 8 21 -71
107 -91 100 -8 -3 -10 1 -7 12 5 14 4 15 -5 2 -8 -12 -10 -11 -8 8 1 20 7 17
53 -29 29 -28 56 -49 62 -45 12 7 13 54 1 62 -5 3 -9 10 -9 16 0 7 6 6 15 -2
30 -25 14 8 -29 58 l-45 52 -21 -31z m80 -196 c0 -11 -33 18 -70 62 -13 17 -3
10 23 -15 26 -24 47 -45 47 -47z"/>
<path d="M1475 3500 c10 -11 20 -18 23 -15 7 6 -18 35 -31 35 -5 0 -2 -9 8
-20z"/>
<path d="M1450 3493 c0 -5 9 -18 20 -28 11 -10 20 -14 20 -8 0 5 -9 18 -20 28
-11 10 -20 14 -20 8z"/>
<path d="M1101 3397 l-25 -32 32 29 c33 31 37 36 25 35 -5 0 -19 -14 -32 -32z"/>
<path d="M1121 3359 c-38 -44 -36 -62 3 -31 14 10 23 22 19 26 -3 3 2 15 12
26 10 11 14 20 9 19 -5 0 -24 -18 -43 -40z"/>
<path d="M1194 3369 c-8 -9 -11 -19 -7 -23 4 -4 1 -4 -8 -1 -9 3 -27 -8 -47
-28 -26 -27 -30 -36 -20 -45 16 -13 73 32 62 50 -4 6 -3 8 4 4 6 -3 24 8 41
25 20 20 31 25 31 16 0 -9 -5 -17 -12 -19 -6 -2 -8 -10 -4 -17 12 -19 34 5 29
33 -4 18 -11 23 -30 22 -13 0 -31 -8 -39 -17z m-44 -68 c-12 -23 -30 -36 -30
-22 0 10 27 41 36 41 3 0 0 -9 -6 -19z"/>
<path d="M1400 3353 c0 -15 19 -37 26 -31 3 4 -1 14 -10 23 -9 9 -16 13 -16 8z"/>
<path d="M1206 3321 c-3 -4 1 -16 8 -27 12 -16 16 -17 32 -4 18 14 18 14 5 -3
-8 -10 -20 -16 -26 -13 -7 2 -22 -9 -34 -24 -24 -33 -26 -40 -10 -40 5 0 8 3
6 8 -2 4 4 15 15 25 10 9 18 15 18 12 0 -3 11 2 26 11 14 9 23 22 20 29 -2 7
1 18 7 25 10 10 7 10 -10 1 -14 -7 -24 -8 -28 -1 -8 12 -22 13 -29 1z"/>
<path d="M1354 3270 c3 -14 5 -29 5 -33 1 -5 7 -7 13 -5 13 5 53 -38 53 -56 0
-5 8 -10 18 -12 9 -1 14 2 11 7 -3 6 0 18 8 27 11 15 11 16 -3 4 -17 -13 -30
-3 -88 68 l-21 25 4 -25z"/>
<path d="M1282 3225 c-1 -34 -7 -66 -14 -73 -9 -9 -9 -12 0 -12 19 0 23 21 19
86 l-3 59 -2 -60z"/>
<path d="M1915 3356 c-132 -136 -255 -271 -270 -296 -18 -30 55 37 93 85 21
28 85 97 141 155 55 58 101 108 101 112 0 11 1 12 -65 -56z"/>
<path d="M220 3125 c8 -10 28 -14 59 -13 l46 1 -40 4 c-22 3 -44 9 -49 14 -16
15 -29 10 -16 -6z"/>
<path d="M1981 2932 c-17 -31 -13 -40 5 -14 9 13 14 26 11 29 -3 2 -10 -4 -16
-15z"/>
<path d="M2035 2701 c6 -11 4 -13 -8 -8 -9 3 -19 2 -23 -4 -9 -14 -3 -16 30
-10 28 6 28 7 11 21 -15 12 -17 12 -10 1z"/>
<path d="M2030 2654 c-16 -8 -19 -14 -9 -14 8 0 24 7 35 15 24 18 7 18 -26 -1z"/>
<path d="M1057 2603 c-15 -53 -17 -73 -7 -73 5 0 10 12 10 28 0 21 2 24 10 12
8 -11 9 -7 4 15 -9 38 -11 41 -17 18z"/>
<path d="M1661 2590 c-1 -20 -6 -41 -13 -48 -7 -7 -8 -12 -2 -12 13 0 41 20
29 20 -5 0 -3 5 5 10 11 7 11 10 2 10 -7 0 -11 3 -9 8 3 4 1 16 -4 27 -6 16
-8 13 -8 -15z"/>
<path d="M1098 2463 c105 -2 279 -2 385 0 105 1 19 2 -193 2 -212 0 -298 -1
-192 -2z"/>
<path d="M1550 2144 c0 -11 7 -29 16 -40 14 -18 15 -18 8 6 -3 14 -10 32 -15
40 -7 12 -8 11 -9 -6z"/>
<path d="M636 1964 c-22 -30 -43 -54 -48 -54 -5 0 -6 -5 -3 -10 6 -10 31 16
74 78 39 56 19 44 -23 -14z"/>
<path d="M1990 1905 c0 -8 7 -15 16 -15 14 0 14 3 4 15 -7 8 -14 15 -16 15 -2
0 -4 -7 -4 -15z"/>
<path d="M530 1871 c0 -11 29 -35 35 -29 2 2 -4 12 -15 21 -11 9 -20 13 -20 8z"/>
<path d="M461 1821 c-9 -6 -4 -10 15 -14 16 -3 40 -8 54 -13 34 -10 22 2 -21
20 -20 8 -41 11 -48 7z"/>
<path d="M426 1782 c-3 -5 14 -12 37 -15 24 -3 51 -9 62 -13 12 -5 16 -4 12 3
-4 6 -23 14 -43 17 -19 4 -41 9 -49 12 -7 3 -16 1 -19 -4z"/>
<path d="M455 1750 c11 -5 27 -9 35 -9 9 0 8 4 -5 9 -11 5 -27 9 -35 9 -9 0
-8 -4 5 -9z"/>
<path d="M386 1732 c10 -10 108 -32 132 -31 22 1 -97 39 -122 39 -12 0 -16 -3
-10 -8z"/>
<path d="M365 1692 c6 -6 41 -16 79 -22 123 -19 81 0 -54 26 -24 4 -32 3 -25
-4z"/>
<path d="M407 1643 c18 -2 50 -2 70 0 21 2 7 4 -32 4 -38 0 -55 -2 -38 -4z"/>
<path d="M2018 1530 c6 -42 19 -46 14 -4 -2 19 -7 34 -11 34 -4 0 -6 -14 -3
-30z"/>
<path d="M2071 1269 c-14 -41 -14 -42 7 -34 9 4 37 7 61 7 30 0 40 3 33 10 -6
6 -29 9 -51 6 -39 -3 -52 4 -31 17 12 8 13 25 1 25 -5 0 -14 -14 -20 -31z"/>
<path d="M2070 1222 c-22 -10 -26 -72 -5 -72 8 0 18 7 21 15 4 8 10 12 15 9 5
-3 9 0 9 5 0 16 -20 13 -26 -4 -4 -8 -10 -15 -15 -15 -5 0 -9 7 -9 15 0 8 5
15 11 15 5 0 8 4 5 8 -2 4 11 6 31 4 20 -3 30 -8 23 -12 -8 -5 -8 -9 3 -13 10
-4 14 0 13 11 -2 10 -15 20 -32 23 l-29 6 30 5 30 5 -30 1 c-16 0 -37 -2 -45
-6z"/>
<path d="M1227 1087 c-3 -9 -14 -17 -24 -17 -15 0 -16 -2 -3 -10 8 -5 22 -10
30 -10 12 0 13 2 1 9 -10 7 -10 10 -1 13 7 2 11 10 8 18 -3 11 -6 10 -11 -3z"/>
<path d="M1397 993 c-4 -3 -7 -15 -7 -25 0 -11 -4 -17 -9 -13 -13 7 -21 -8
-12 -23 5 -8 14 -3 28 16 12 16 18 34 14 41 -4 6 -10 8 -14 4z"/>
<path d="M1665 913 c2 -45 1 -47 -3 -13 l-5 45 -13 -50 c-13 -49 -13 -49 -10
-10 1 22 6 48 10 58 5 10 4 17 -3 17 -6 0 -11 -8 -11 -17 0 -14 -2 -15 -9 -5
-5 8 -7 -5 -6 -35 1 -26 0 -34 -2 -18 -2 17 -9 35 -15 40 -7 7 -9 6 -4 -2 3
-6 0 -14 -6 -17 -10 -5 -10 -7 0 -12 6 -3 12 -13 12 -22 0 -15 -2 -15 -10 -2
-6 9 -10 10 -10 3 0 -7 9 -17 20 -23 11 -6 20 -7 20 -3 0 4 5 2 11 -4 15 -15
49 -4 50 16 0 9 3 37 5 64 4 37 2 47 -9 47 -12 0 -15 -12 -12 -57z"/>
<path d="M1331 860 c-13 -11 -19 -20 -15 -20 5 0 1 -5 -8 -11 -19 -11 -13 -39
8 -39 13 0 19 13 15 33 -1 5 3 5 9 2 6 -4 20 1 31 11 14 13 16 20 8 31 -15 17
-19 16 -48 -7z"/>
<path d="M986 740 c-43 -45 -40 -53 6 -15 16 14 26 25 23 25 -4 0 -2 7 5 15
23 28 5 14 -34 -25z"/>
<path d="M1650 585 c-16 -17 -19 -25 -9 -25 14 0 44 38 36 46 -2 2 -14 -7 -27
-21z"/>
<path d="M1753 550 c0 -25 2 -35 4 -22 2 12 2 32 0 45 -2 12 -4 2 -4 -23z"/>
<path d="M1290 2274 c0 -3 6 -12 14 -20 19 -18 27 -18 20 0 -5 14 -34 31 -34
20z"/>
<path d="M1257 2264 c-4 -4 -7 -14 -7 -23 0 -11 3 -12 11 -4 6 6 10 16 7 23
-2 6 -7 8 -11 4z"/>
<path d="M1252 2180 c0 -19 2 -27 5 -17 2 9 2 25 0 35 -3 9 -5 1 -5 -18z"/>
<path d="M1265 2130 c3 -6 25 -10 47 -10 51 0 47 6 -10 14 -27 3 -41 2 -37 -4z"/>
<path d="M1298 2093 c12 -2 30 -2 40 0 9 3 -1 5 -23 4 -22 0 -30 -2 -17 -4z"/>
<path d="M1255 2070 c8 -13 75 -13 95 0 11 7 -2 10 -43 10 -36 0 -56 -4 -52
-10z"/>
<path d="M1288 1963 c12 -2 30 -2 40 0 9 3 -1 5 -23 4 -22 0 -30 -2 -17 -4z"/>
<path d="M1696 2152 c-3 -5 -23 -18 -43 -28 l-38 -19 28 -3 c16 -2 36 3 46 12
13 12 20 13 29 4 16 -16 15 3 -2 25 -8 10 -17 14 -20 9z"/>
<path d="M630 2080 c-12 -16 -19 -30 -16 -30 2 0 14 14 26 30 12 17 19 30 16
30 -2 0 -14 -13 -26 -30z"/>
<path d="M803 1960 c0 -25 2 -35 4 -22 2 12 2 32 0 45 -2 12 -4 2 -4 -23z"/>
<path d="M847 1955 c3 -27 7 -52 9 -54 8 -9 2 65 -6 84 -6 13 -7 2 -3 -30z"/>
<path d="M771 1960 c0 -14 4 -32 9 -40 8 -12 10 -12 9 5 0 11 -4 29 -9 40 -8
18 -9 18 -9 -5z"/>
<path d="M1743 1935 c0 -22 2 -30 4 -17 2 12 2 30 0 40 -3 9 -5 -1 -4 -23z"/>
<path d="M1471 1774 c1 -38 5 -94 9 -124 5 -36 6 -13 3 65 -6 131 -14 169 -12
59z"/>
<path d="M1191 1743 c1 -43 4 -89 8 -102 4 -14 7 21 6 77 0 56 -3 102 -7 102
-5 0 -8 -35 -7 -77z"/>
<path d="M1381 1805 c0 -11 6 -62 14 -113 11 -72 20 -102 41 -129 22 -29 28
-33 35 -20 5 9 5 38 -1 69 l-9 53 4 -59 c3 -41 1 -56 -7 -48 -6 6 -10 60 -10
136 1 69 -2 126 -7 126 -4 0 -5 -47 -3 -105 5 -130 -11 -140 -28 -17 -12 90
-28 148 -29 107z"/>
<path d="M1168 1768 c-3 -7 -1 -46 4 -87 10 -84 5 -122 -7 -46 -13 92 -25 127
-19 60 3 -33 7 -75 10 -92 3 -18 1 -33 -4 -33 -5 0 -9 6 -10 13 -1 6 -6 50
-11 97 l-10 85 5 -95 c8 -152 5 -144 40 -102 23 25 24 32 18 117 -7 95 -9 103
-16 83z"/>
<path d="M2085 1804 c-26 -12 -27 -14 -5 -9 14 2 41 5 60 5 26 0 31 3 20 10
-20 13 -40 12 -75 -6z"/>
<path d="M583 1578 c3 -9 1 -18 -5 -20 -6 -2 -9 -12 -7 -23 4 -16 5 -16 16 7
7 17 8 29 1 39 -8 11 -9 11 -5 -3z"/>
<path d="M810 1548 c0 -36 4 -35 14 5 4 16 2 27 -4 27 -5 0 -10 -14 -10 -32z"/>
<path d="M701 1396 c-1 -36 41 -132 96 -217 53 -84 86 -112 39 -33 -54 87
-107 194 -122 239 -12 37 -13 38 -13 11z"/>
<path d="M984 1424 c-7 -28 8 -50 26 -39 9 6 8 10 -4 17 -11 6 -15 16 -11 29
4 10 4 19 1 19 -3 0 -9 -12 -12 -26z"/>
<path d="M336 1450 c7 -6 29 -14 50 -16 82 -9 128 -12 110 -7 -11 3 -15 8 -8
12 6 3 -11 7 -36 7 -26 0 -65 4 -87 9 -31 6 -37 5 -29 -5z"/>
<path d="M380 1410 c8 -5 42 -9 75 -9 58 1 59 2 20 10 -58 12 -114 11 -95 -1z"/>
<path d="M350 1391 c0 -11 109 -41 146 -40 17 1 22 3 11 6 -9 2 -15 8 -13 12
3 4 -15 9 -39 9 -24 1 -56 7 -70 12 -32 12 -35 12 -35 1z"/>
<path d="M350 1357 c0 -2 11 -12 25 -21 27 -18 155 -38 155 -24 0 4 -10 10
-22 12 -79 17 -116 25 -135 31 -13 4 -23 5 -23 2z"/>
<path d="M380 1289 c0 -5 34 -9 77 -9 42 0 74 2 72 4 -10 9 -149 14 -149 5z"/>
<path d="M405 1260 c3 -5 35 -10 71 -10 41 0 63 4 59 10 -3 6 -35 10 -71 10
-41 0 -63 -4 -59 -10z"/>
<path d="M410 1230 c0 -6 32 -10 75 -10 64 0 75 -3 75 -17 0 -13 -3 -14 -12
-5 -7 7 -28 12 -47 11 l-36 -1 40 -9 c55 -13 72 -33 20 -23 -22 3 -48 11 -57
15 -22 12 -25 11 -31 -4 -3 -8 0 -14 6 -15 7 -1 40 -3 75 -6 53 -4 66 -9 83
-30 12 -15 16 -26 9 -26 -7 0 3 -18 21 -39 19 -22 41 -39 49 -39 10 0 11 1 3
5 -7 2 -34 44 -60 91 -26 48 -54 92 -62 99 -19 15 -151 17 -151 3z"/>
<path d="M531 1105 c13 -12 79 -34 79 -26 0 5 -14 14 -31 20 -33 11 -56 14
-48 6z"/>
<path d="M681 1195 c24 -44 78 -105 92 -105 8 0 -34 55 -86 114 l-29 31 23
-40z"/>
<path d="M321 550 c0 -3 6 -25 13 -50 8 -25 15 -36 15 -25 0 17 -26 88 -28 75z"/>
<path d="M400 482 c0 -4 9 -8 20 -9 11 -1 20 2 20 8 0 5 -9 9 -20 9 -11 0 -20
-4 -20 -8z"/>
<path d="M2050 518 c0 -19 2 -20 10 -8 13 19 13 30 0 30 -5 0 -10 -10 -10 -22z"/>
<path d="M2102 445 l1 -60 7 45 c4 25 4 52 -1 60 -5 9 -8 -8 -7 -45z"/>
<path d="M2122 410 c0 -19 2 -27 5 -17 2 9 2 25 0 35 -3 9 -5 1 -5 -18z"/>
<path d="M2163 645 c5 -16 37 -18 37 -3 0 8 -9 14 -20 14 -11 0 -19 -5 -17
-11z"/>
<path d="M913 585 c0 -22 2 -30 4 -17 2 12 2 30 0 40 -3 9 -5 -1 -4 -23z"/>
<path d="M1321 524 c-1 -26 24 -51 34 -34 4 7 2 17 -4 23 -8 8 -11 7 -12 -3
-1 -8 -5 -4 -9 10 -7 22 -8 23 -9 4z"/>
<path d="M257 227 c-11 -28 -9 -75 2 -58 7 11 10 10 14 -5 3 -14 5 -13 5 6 0
14 -3 36 -7 50 -6 22 -8 23 -14 7z"/>
<path d="M1227 233 c-11 -10 -8 -61 3 -68 6 -4 10 10 10 34 0 42 -2 46 -13 34z"/>
<path d="M222 195 c-2 -19 2 -35 8 -35 5 0 10 16 10 35 0 19 -4 35 -8 35 -4 0
-9 -16 -10 -35z"/>
<path d="M290 196 c0 -19 5 -38 10 -41 6 -4 10 10 10 34 0 23 -4 41 -10 41 -5
0 -10 -15 -10 -34z"/>
<path d="M326 217 c-5 -9 -5 -29 0 -45 7 -25 8 -26 11 -4 3 12 3 32 0 45 -3
19 -4 20 -11 4z"/>
<path d="M350 206 c0 -31 10 -56 21 -56 10 0 12 40 3 64 -9 24 -24 19 -24 -8z"/>
<path d="M390 203 c0 -16 5 -35 10 -43 7 -11 10 -4 10 28 0 23 -4 42 -10 42
-5 0 -10 -12 -10 -27z"/>
<path d="M427 223 c-11 -11 -7 -37 8 -57 14 -18 15 -17 15 22 0 39 -8 51 -23
35z"/>
<path d="M460 193 c0 -23 5 -45 10 -48 6 -3 10 4 10 17 0 13 3 34 5 48 3 14 2
19 -1 11 -5 -11 -8 -11 -15 0 -6 9 -9 0 -9 -28z"/>
<path d="M494 196 c-3 -19 -4 -41 -1 -48 3 -7 6 -2 7 12 l1 25 11 -25 c6 -16
12 -20 15 -12 7 19 -6 82 -17 82 -5 0 -12 -16 -16 -34z"/>
<path d="M540 185 c0 -25 5 -45 10 -45 6 0 10 20 10 45 0 25 -4 45 -10 45 -5
0 -10 -20 -10 -45z"/>
<path d="M570 178 c0 -38 3 -49 10 -38 13 20 13 90 0 90 -5 0 -10 -24 -10 -52z"/>
<path d="M600 185 c0 -33 3 -43 13 -39 15 5 18 26 11 62 -8 39 -24 24 -24 -23z"/>
<path d="M640 184 c0 -27 4 -43 10 -39 13 8 13 85 0 85 -5 0 -10 -21 -10 -46z"/>
<path d="M701 188 c0 -26 4 -50 9 -53 11 -7 11 25 0 70 -7 27 -8 25 -9 -17z"/>
<path d="M730 184 c0 -25 4 -43 8 -40 12 7 14 86 2 86 -5 0 -10 -21 -10 -46z"/>
<path d="M761 203 c0 -16 4 -37 9 -48 6 -15 9 -8 9 28 1 26 -3 47 -9 47 -5 0
-10 -12 -9 -27z"/>
<path d="M790 188 c0 -27 4 -38 15 -38 8 0 15 5 15 11 0 5 -5 7 -11 3 -7 -4
-9 2 -7 16 3 25 38 37 38 14 0 -9 -4 -13 -9 -10 -5 4 -7 -3 -4 -14 8 -31 23
-23 24 13 0 17 3 25 6 17 14 -43 16 -44 23 -15 l8 30 1 -32 c0 -18 6 -33 11
-33 6 0 11 15 11 33 l2 32 7 -35 7 -35 2 41 1 41 -70 0 -70 -1 0 -38z"/>
<path d="M940 186 c0 -25 5 -48 10 -51 6 -4 10 13 10 44 0 28 -4 51 -10 51 -5
0 -10 -20 -10 -44z"/>
<path d="M970 186 c0 -25 5 -48 10 -51 6 -4 10 13 10 44 0 28 -4 51 -10 51 -5
0 -10 -20 -10 -44z"/>
<path d="M1000 191 c0 -22 5 -43 10 -46 6 -4 10 12 10 39 0 25 -4 46 -10 46
-5 0 -10 -18 -10 -39z"/>
<path d="M1033 185 c0 -27 2 -38 4 -22 2 15 2 37 0 50 -2 12 -4 0 -4 -28z"/>
<path d="M1060 230 c-7 -20 -7 -45 -1 -63 7 -20 8 -20 13 -1 4 16 -7 77 -12
64z"/>
<path d="M1091 184 c1 -30 4 -38 6 -21 2 15 9 25 14 22 15 -10 10 22 -6 35
-13 11 -15 6 -14 -36z"/>
<path d="M1123 183 c-1 -32 1 -42 8 -32 11 17 12 79 2 79 -5 0 -9 -21 -10 -47z"/>
<path d="M1150 190 c0 -52 15 -52 18 0 2 23 -2 40 -8 40 -5 0 -10 -18 -10 -40z"/>
<path d="M1181 188 c1 -24 4 -34 7 -23 5 20 5 20 13 0 6 -15 8 -9 8 23 1 31
-3 42 -14 42 -11 0 -15 -11 -14 -42z"/>
<path d="M1263 195 c0 -22 2 -30 4 -17 2 12 2 30 0 40 -3 9 -5 -1 -4 -23z"/>
<path d="M1280 197 c0 -26 4 -36 11 -31 6 3 15 0 20 -7 6 -9 9 0 9 29 0 23 -4
42 -10 42 -5 0 -10 -6 -10 -12 0 -9 -4 -8 -10 2 -7 11 -10 5 -10 -23z"/>
<path d="M1330 191 c0 -25 5 -41 15 -45 12 -4 15 4 15 39 0 33 -4 45 -15 45
-11 0 -15 -11 -15 -39z"/>
<path d="M1370 178 c0 -28 2 -49 4 -47 8 9 13 99 5 99 -5 0 -9 -23 -9 -52z"/>
<path d="M1396 214 c-3 -9 -5 -32 -5 -52 l2 -37 7 40 c5 30 8 33 9 13 0 -15 6
-30 13 -34 8 -5 9 -2 5 10 -4 10 -7 31 -7 47 0 31 -14 39 -24 13z"/>
<path d="M1440 189 c0 -22 4 -38 9 -35 5 4 11 3 14 -1 2 -5 2 -2 0 5 -1 8 -3
27 -3 43 0 16 -4 29 -10 29 -5 0 -10 -18 -10 -41z"/>
<path d="M1475 220 c-8 -13 3 -68 16 -75 5 -4 9 12 9 34 0 40 -13 61 -25 41z"/>
<path d="M1510 184 c0 -27 4 -43 10 -39 6 3 10 24 10 46 0 21 -4 39 -10 39 -5
0 -10 -21 -10 -46z"/>
<path d="M1542 192 c0 -26 5 -39 14 -39 9 0 12 10 9 31 -2 17 -4 34 -4 39 -1
4 -5 7 -10 7 -6 0 -10 -17 -9 -38z"/>
<path d="M1580 197 c0 -22 6 -37 16 -41 12 -5 15 1 12 31 -4 48 -28 57 -28 10z"/>
<path d="M1621 188 c0 -24 3 -37 6 -29 5 11 7 11 15 0 7 -10 8 -7 4 11 -3 14
-6 33 -6 43 0 9 -4 17 -10 17 -5 0 -10 -19 -9 -42z"/>
<path d="M1660 186 c0 -25 5 -46 10 -46 6 0 10 18 10 39 0 22 -4 43 -10 46 -6
4 -10 -12 -10 -39z"/>
<path d="M1690 184 c0 -27 4 -43 10 -39 6 3 10 24 10 46 0 21 -4 39 -10 39 -5
0 -10 -21 -10 -46z"/>
<path d="M1726 222 c-8 -13 5 -82 15 -82 5 0 9 20 9 45 0 41 -11 58 -24 37z"/>
<path d="M1770 212 c0 -11 -3 -35 -6 -53 -5 -32 -5 -33 10 -15 18 22 21 72 6
81 -5 3 -10 -3 -10 -13z"/>
<path d="M1806 219 c-4 -9 -6 -33 -4 -53 2 -27 6 -33 16 -27 11 6 12 18 4 52
-6 31 -11 39 -16 28z"/>
<path d="M1840 180 c0 -32 4 -49 10 -45 6 3 10 24 10 45 0 21 -4 42 -10 45 -6
4 -10 -13 -10 -45z"/>
<path d="M1870 180 c0 -32 4 -49 10 -45 6 3 10 24 10 45 0 21 -4 42 -10 45 -6
4 -10 -13 -10 -45z"/>
<path d="M1900 179 c0 -31 4 -48 10 -44 6 3 10 26 10 51 0 24 -4 44 -10 44 -5
0 -10 -23 -10 -51z"/>
<path d="M1930 186 c0 -25 5 -48 10 -51 6 -4 10 11 10 39 0 25 -4 48 -10 51
-6 4 -10 -11 -10 -39z"/>
<path d="M1960 193 c0 -21 5 -45 10 -53 7 -11 10 0 10 38 0 28 -4 52 -10 52
-5 0 -10 -17 -10 -37z"/>
<path d="M1998 224 c-12 -11 -10 -96 2 -89 6 3 10 17 10 31 0 13 5 24 11 24 7
0 9 -10 7 -25 -3 -13 -1 -22 3 -19 5 3 9 24 9 47 -1 38 -2 40 -14 24 -13 -17
-15 -17 -18 -2 -1 9 -6 13 -10 9z"/>
<path d="M2080 220 c0 -5 -7 -7 -17 -3 -13 5 -15 2 -10 -18 4 -13 7 -35 8 -49
1 -17 4 -12 9 15 l7 40 2 -40 c1 -30 4 -36 11 -25 13 20 13 90 0 90 -5 0 -10
-4 -10 -10z"/>
<path d="M2111 178 c0 -39 3 -48 9 -33 12 28 12 85 0 85 -5 0 -10 -24 -9 -52z"/>
<path d="M2141 181 c1 -37 2 -41 8 -21 l8 25 5 -25 c4 -16 6 -9 7 21 1 35 -3
46 -14 46 -11 0 -15 -12 -14 -46z"/>
<path d="M2180 189 c0 -24 4 -38 10 -34 6 3 10 22 10 41 0 19 -4 34 -10 34 -5
0 -10 -18 -10 -41z"/>
<path d="M2220 190 c0 -25 4 -39 10 -35 6 3 10 19 10 35 0 16 -4 32 -10 35 -6
4 -10 -10 -10 -35z"/>
<path d="M2250 195 c0 -19 4 -35 9 -35 12 0 19 29 13 53 -7 30 -22 18 -22 -18z"/>
<path d="M2290 185 c0 -27 2 -46 5 -44 7 8 9 78 2 85 -4 4 -7 -14 -7 -41z"/>
<path d="M2317 223 c-2 -5 -4 -26 -5 -48 0 -22 2 -32 5 -22 4 15 7 16 21 5 14
-11 15 -10 9 5 -4 10 -7 30 -7 43 0 23 -14 33 -23 17z"/>
<path d="M2357 198 c8 -46 13 -48 13 -5 0 21 -4 37 -10 37 -5 0 -7 -14 -3 -32z"/>
<path d="M671 173 c1 -39 2 -43 9 -23 12 36 12 70 0 70 -5 0 -10 -21 -9 -47z"/>
<path d="M471 4044 c-72 -91 49 -202 123 -113 34 40 33 74 -3 110 -39 39 -91
40 -120 3z m93 -5 c48 -38 22 -113 -37 -107 -58 6 -76 91 -25 116 31 15 32 15
62 -9z"/>
<path d="M508 4023 c-18 -4 -22 -15 -18 -43 6 -44 53 -45 73 -3 9 21 8 27 -8
39 -10 8 -21 13 -24 13 -3 -1 -14 -3 -23 -6z"/>
<path d="M2019 4045 c-57 -38 -66 -89 -24 -130 36 -37 86 -34 119 6 37 44 34
80 -9 118 -20 17 -39 31 -43 31 -4 0 -24 -11 -43 -25z m72 -22 l24 -27 -27 17
c-15 9 -38 17 -50 17 -19 0 -20 2 -8 10 23 15 35 12 61 -17z m-41 -44 c0 -24
-23 -21 -28 4 -2 10 3 17 12 17 10 0 16 -9 16 -21z"/>
<path d="M785 4050 c-8 -14 3 -30 21 -30 8 0 14 9 14 20 0 21 -24 28 -35 10z"/>
<path d="M1752 4038 c7 -19 38 -22 38 -4 0 10 -9 16 -21 16 -12 0 -19 -5 -17
-12z"/>
<path d="M801 3959 c-11 -19 -11 -21 4 -15 9 3 19 6 21 6 2 0 4 7 4 15 0 21
-13 19 -29 -6z"/>
<path d="M1740 3970 c-18 -11 -13 -16 28 -23 33 -7 40 1 20 21 -14 14 -28 15
-48 2z"/>
<path d="M825 3930 c-4 -6 -11 -8 -16 -5 -5 4 -9 2 -9 -2 0 -5 10 -14 21 -21
25 -16 45 -3 36 22 -7 18 -23 21 -32 6z"/>
<path d="M261 3851 c-19 -12 -6 -43 16 -39 10 2 18 12 18 22 0 22 -14 29 -34
17z"/>
<path d="M2297 3826 c-7 -16 1 -26 20 -26 7 0 13 9 13 20 0 23 -25 27 -33 6z"/>
<path d="M176 3743 c-12 -12 -6 -33 9 -33 8 0 15 6 15 14 0 17 -14 28 -24 19z"/>
<path d="M452 3033 c-12 -2 -20 -9 -17 -14 4 -5 13 -5 25 1 10 5 26 7 36 3 12
-4 15 -3 10 5 -7 12 -13 13 -54 5z"/>
<path d="M310 3001 c0 -10 86 -91 97 -91 4 0 -15 23 -42 50 -52 53 -55 55 -55
41z"/>
<path d="M421 2823 c-6 -14 -9 -28 -6 -31 3 -3 5 0 5 6 0 6 7 17 15 26 8 8 11
17 7 20 -5 3 -14 -6 -21 -21z"/>
<path d="M2260 2833 c0 -22 14 -45 26 -43 4 1 11 -7 15 -17 4 -10 8 -13 8 -6
1 7 -4 24 -11 38 -9 19 -14 22 -21 13 -6 -9 -7 -6 -4 10 3 12 1 22 -4 22 -5 0
-9 -8 -9 -17z"/>
<path d="M2191 2788 c5 -18 9 -46 9 -63 -1 -24 -3 -27 -10 -14 -6 10 -11 33
-12 53 -2 20 -6 36 -9 36 -15 0 -16 -15 -3 -52 17 -48 18 -61 4 -53 -5 3 -10
16 -10 29 0 12 -4 26 -9 32 -5 5 -12 18 -15 29 -3 11 -4 4 -2 -15 3 -19 8 -44
12 -54 5 -14 4 -17 -4 -12 -7 4 -12 2 -12 -4 0 -7 7 -10 15 -7 8 4 17 2 20 -2
5 -10 44 -3 46 8 6 40 -8 121 -22 121 -4 0 -3 -15 2 -32z"/>
<path d="M2215 2805 c4 -11 10 -28 12 -37 3 -10 9 -18 14 -18 5 0 2 15 -7 33
-19 38 -30 50 -19 22z"/>
<path d="M446 2781 c-4 -6 -6 -29 -4 -51 1 -30 6 -39 16 -35 7 3 15 5 18 5 2
0 0 7 -3 17 -4 11 -3 14 5 9 8 -5 12 0 12 12 0 23 -35 58 -44 43z m26 -31 c3
-3 0 -14 -8 -24 -13 -19 -14 -18 -14 14 0 18 3 29 8 24 4 -5 10 -11 14 -14z"/>
<path d="M627 2454 c-15 -15 -7 -45 11 -42 9 2 17 12 17 22 0 20 -16 31 -28
20z"/>
<path d="M1957 2443 c-15 -15 -7 -43 13 -43 15 0 20 7 20 25 0 24 -18 34 -33
18z"/>
<path d="M460 2416 c0 -7 7 -19 15 -26 12 -10 16 -9 21 3 3 9 3 21 -1 27 -9
15 -35 12 -35 -4z"/>
<path d="M236 2381 c-10 -16 6 -42 23 -39 9 2 17 13 19 26 3 16 -2 22 -17 22
-11 0 -22 -4 -25 -9z"/>
<path d="M2307 2376 c-8 -19 15 -37 32 -26 17 10 7 40 -13 40 -7 0 -16 -6 -19
-14z"/>
<path d="M350 2333 c-42 -15 -52 -66 -19 -107 26 -33 62 -34 95 0 20 19 24 31
20 52 -12 47 -53 71 -96 55z m50 -68 c0 -18 -5 -25 -19 -25 -11 0 -23 5 -26
10 -11 18 3 40 25 40 15 0 20 -7 20 -25z"/>
<path d="M2163 2332 c-12 -7 -33 -54 -33 -73 0 -16 51 -59 70 -59 10 0 29 9
44 21 49 39 24 119 -37 119 -18 0 -37 -4 -44 -8z m62 -67 c0 -14 -8 -21 -27
-23 -28 -3 -33 4 -22 33 9 23 49 15 49 -10z"/>
<path d="M2290 2170 c0 -11 6 -20 13 -20 19 0 27 10 20 26 -8 21 -33 17 -33
-6z"/>
<path d="M2368 2172 c-4 -14 -2 -20 4 -16 6 4 8 -2 4 -17 -6 -19 -5 -21 4 -7
6 10 7 25 2 39 l-9 23 -5 -22z"/>
<path d="M350 2143 c0 -21 2 -24 15 -13 8 7 15 16 15 20 0 4 -7 10 -15 14 -11
4 -15 -2 -15 -21z"/>
<path d="M2230 2145 c0 -8 5 -15 10 -15 6 0 10 7 10 15 0 8 -4 15 -10 15 -5 0
-10 -7 -10 -15z"/>
<path d="M2430 356 c0 -2 6 -9 14 -15 10 -9 15 -8 19 2 3 8 -3 13 -14 14 -10
1 -19 0 -19 -1z"/>
</g>
</svg>
