<svg version="1.0" xmlns="http://www.w3.org/2000/svg"
 width="450.000000pt" height="450.000000pt" viewBox="0 0 450.000000 450.000000"
 preserveAspectRatio="xMidYMid meet">
<g transform="translate(0.000000,450.000000) scale(0.050000,-0.050000)"
fill="#FFFFFF" stroke="none">
<path d="M4186 6980 c-1050 -148 -1914 -960 -2126 -1998 -62 -306 -57 -386 25
-378 l64 6 26 180 c272 1943 2581 2735 3969 1362 376 -373 676 -1002 676
-1422 0 -109 16 -130 100 -130 73 0 65 183 -22 527 -299 1182 -1526 2020
-2712 1853z"/>
<path d="M4070 6628 c-835 -200 -1462 -800 -1651 -1578 -58 -240 -54 -310 19
-310 56 0 59 5 81 135 148 874 846 1515 1806 1656 67 10 75 17 75 70 0 70
-111 79 -330 27z"/>
<path d="M4600 6600 c0 -65 -13 -60 239 -101 809 -131 1494 -802 1628 -1596
25 -150 27 -153 84 -153 59 0 59 0 52 109 -48 775 -797 1571 -1657 1761 -269
60 -346 55 -346 -20z"/>
<path d="M4187 6332 c-718 -137 -1292 -664 -1466 -1345 -62 -243 -63 -375 -4
-384 67 -9 78 9 103 167 197 1269 1680 1869 2702 1094 348 -265 585 -661 645
-1081 25 -173 25 -173 84 -173 l59 0 -4 141 c-25 941 -1134 1769 -2119 1581z"/>
<path d="M4444 5941 c-28 -51 -76 -97 -130 -124 l-84 -44 60 -24 c69 -29 134
-94 176 -175 l29 -56 52 89 c34 57 80 102 133 128 l80 40 -60 25 c-56 23 -144
110 -190 187 -17 29 -27 22 -66 -46z"/>
<path d="M3920 5720 c0 -30 10 -41 35 -36 19 4 35 20 35 36 0 16 -16 32 -35
36 -25 5 -35 -6 -35 -36z"/>
<path d="M5009 5738 c-18 -28 21 -67 49 -49 12 7 22 26 22 42 0 34 -51 39 -71
7z"/>
<path d="M3546 5548 c-57 -58 -61 -67 -28 -77 20 -7 47 -36 61 -66 25 -54 26
-54 42 -11 9 24 42 57 73 73 l56 30 -56 21 c-30 12 -62 38 -70 58 -13 33 -20
30 -78 -28z"/>
<path d="M5325 5546 c-61 -59 -63 -64 -25 -76 22 -7 52 -36 68 -65 27 -52 27
-52 41 -9 7 24 34 55 59 69 l46 25 -62 60 -62 60 -65 -64z"/>
<path d="M4015 5325 c-41 -47 -74 -751 -36 -774 81 -50 120 64 125 367 l6 292
386 5 387 6 -5 -282 -4 -282 63 -63 63 -63 0 381 c0 344 -4 385 -37 415 -56
51 -902 50 -948 -2z"/>
<path d="M3260 5221 c0 -43 107 -111 141 -91 53 33 -20 130 -98 130 -29 0 -43
-12 -43 -39z"/>
<path d="M5612 5234 c-38 -28 -38 -95 1 -108 34 -12 136 83 119 111 -19 31
-76 29 -120 -3z"/>
<path d="M4188 5093 c-26 -69 0 -123 60 -123 71 0 112 54 80 105 -29 46 -124
58 -140 18z"/>
<path d="M3446 4815 c-392 -388 -401 -307 96 -837 382 -408 427 -443 507 -391
66 44 69 113 4 113 -41 0 -334 290 -711 705 l-50 56 238 239 c165 166 253 240
285 240 38 0 45 11 45 68 0 65 -31 91 -108 92 -11 0 -148 -128 -306 -285z"/>
<path d="M5165 5087 c-41 -17 -32 -147 10 -147 19 0 148 -107 285 -238 l250
-237 -120 -128 c-522 -556 -605 -637 -660 -637 -41 0 -51 -8 -42 -32 7 -17 12
-40 12 -50 0 -32 97 -58 145 -40 52 20 778 787 800 845 25 67 -29 136 -323
412 -269 253 -300 275 -357 252z"/>
<path d="M5763 4954 c-25 -31 3 -85 35 -65 26 16 29 64 4 80 -9 6 -27 -1 -39
-15z"/>
<path d="M3160 4932 c0 -30 49 -57 68 -37 26 26 10 65 -28 65 -22 0 -40 -13
-40 -28z"/>
<path d="M4437 4795 c-25 -36 -146 -170 -270 -298 -277 -287 -310 -401 -166
-584 126 -160 479 -63 479 131 0 33 12 20 45 -45 145 -287 535 -200 535 121 0
122 -46 192 -281 425 -108 107 -213 222 -232 255 -45 75 -54 75 -110 -5z"/>
<path d="M5119 4803 c-42 -34 -45 -44 -24 -91 27 -59 104 -71 144 -23 64 77
-42 177 -120 114z"/>
<path d="M2344 4556 c-53 -53 -3 -156 77 -156 58 0 107 87 80 139 -25 46 -118
56 -157 17z"/>
<path d="M6500 4550 c-62 -75 55 -192 130 -130 40 33 39 132 -2 148 -53 20
-102 14 -128 -18z"/>
<path d="M3471 4509 c-17 -18 -31 -44 -31 -59 0 -70 107 -115 156 -66 49 49 4
156 -66 156 -15 0 -41 -14 -59 -31z"/>
<path d="M2704 4384 c-57 -9 -47 -154 30 -424 292 -1024 1339 -1588 2336
-1258 646 214 1188 880 1243 1525 l13 153 -70 0 -70 0 -13 -137 c-31 -334
-200 -685 -462 -960 -998 -1049 -2706 -460 -2900 1000 -13 97 -30 114 -107
101z"/>
<path d="M2027 4215 c62 -804 615 -1602 1379 -1988 1494 -754 3294 200 3543
1878 43 291 45 279 -44 271 l-75 -6 -14 -156 c-98 -1077 -1008 -1980 -2113
-2096 -1228 -128 -2420 867 -2535 2117 l-14 145 -70 0 -70 0 13 -165z"/>
<path d="M2372 4155 c140 -966 955 -1761 1892 -1848 l136 -13 0 63 c0 69 14
63 -239 104 -810 131 -1495 814 -1642 1635 l-25 144 -67 0 -67 0 12 -85z"/>
<path d="M6473 4116 c-84 -802 -905 -1591 -1738 -1669 l-135 -13 0 -67 c0 -78
19 -81 236 -46 854 138 1573 826 1756 1679 45 212 40 240 -39 240 l-67 0 -13
-124z"/>
<path d="M3168 4072 c-18 -47 23 -89 56 -56 19 19 17 32 -9 58 -31 31 -34 31
-47 -2z"/>
<path d="M5768 4073 c-12 -34 4 -73 31 -73 32 0 39 57 10 81 -22 18 -31 17
-41 -8z"/>
<path d="M4464 3850 c-13 -27 -60 -90 -106 -140 l-83 -90 215 0 215 0 -72 79
c-39 43 -85 106 -102 140 -39 74 -39 74 -67 11z"/>
<path d="M3294 3844 c-69 -76 -28 -122 67 -74 39 20 59 45 55 66 -9 48 -82 53
-122 8z"/>
<path d="M5580 3842 c0 -35 77 -102 117 -102 43 0 44 71 2 105 -58 47 -119 46
-119 -3z"/>
<path d="M5372 3565 c-8 -25 -38 -57 -67 -73 -52 -27 -52 -27 -9 -41 24 -7 55
-34 69 -59 l25 -46 63 65 63 64 -46 25 c-25 13 -55 44 -65 67 l-19 43 -14 -45z"/>
<path d="M3573 3550 c-7 -17 -35 -41 -62 -53 l-51 -23 60 -37 c33 -20 60 -50
60 -67 0 -16 9 -30 20 -30 11 0 20 14 20 30 0 17 27 47 60 67 l60 37 -51 23
c-27 12 -55 36 -62 53 -6 16 -18 30 -27 30 -9 0 -21 -14 -27 -30z"/>
<path d="M4461 3402 c-28 -68 -87 -127 -168 -169 l-58 -30 58 -30 c73 -38 159
-129 184 -193 18 -47 20 -48 34 -10 31 82 95 152 173 192 l80 41 -82 41 c-54
27 -101 71 -134 128 -61 104 -57 103 -87 30z"/>
<path d="M3910 3239 c-8 -12 -5 -32 6 -43 27 -27 90 -4 79 29 -11 33 -68 43
-85 14z"/>
<path d="M5010 3240 c-17 -27 6 -60 41 -60 16 0 29 18 29 40 0 41 -48 55 -70
20z"/>
</g>
</svg>
