<?xml version="1.0" standalone="no"?>
<svg version="1.0" xmlns="http://www.w3.org/2000/svg"
 width="255.000000pt" height="421.000000pt" viewBox="0 0 255.000000 421.000000"
 preserveAspectRatio="xMidYMid meet">
<g transform="translate(0.000000,421.000000) scale(0.100000,-0.100000)"
fill="#ffffff"  stroke="none">
<path d="M1064 4037 c1 -81 -2 -104 -10 -92 -6 8 -23 15 -38 15 l-27 0 3 91 3
91 -115 -7 c-137 -8 -381 -33 -388 -40 -3 -3 -6 -36 -6 -73 -1 -56 -3 -66 -13
-53 -7 9 -13 42 -13 74 0 31 -4 57 -9 57 -15 0 -173 -30 -213 -41 l-38 -10 0
-77 c0 -123 19 -342 35 -407 36 -140 117 -261 232 -346 60 -45 66 -68 28 -103
-14 -13 -25 -29 -25 -36 0 -7 17 -40 38 -74 47 -75 84 -166 106 -266 10 -41
19 -81 21 -87 3 -7 -8 -16 -23 -19 -67 -16 -107 -75 -92 -134 7 -27 84 -71
158 -91 l42 -11 0 -87 c0 -92 -22 -331 -40 -446 -13 -85 -83 -399 -106 -475
-9 -30 -27 -76 -40 -102 -27 -53 -31 -119 -10 -157 9 -16 12 -45 9 -85 -5 -56
-3 -64 22 -94 l28 -33 -19 -35 c-30 -56 -76 -93 -154 -125 -67 -27 -75 -28
-89 -14 -15 15 -14 18 3 30 11 8 34 18 53 21 38 7 44 21 11 26 -38 6 -78 -13
-94 -44 -13 -26 -13 -33 -1 -51 12 -19 11 -23 -19 -49 -44 -39 -61 -108 -41
-166 13 -38 13 -42 -5 -59 -11 -10 -35 -41 -54 -69 -32 -48 -34 -57 -34 -132
0 -107 11 -118 124 -127 44 -3 542 -5 1104 -3 l1024 3 24 28 c21 24 24 38 24
101 0 67 -3 76 -40 133 -22 34 -47 66 -56 71 -15 8 -15 11 0 40 9 17 16 48 16
68 0 44 -41 120 -70 129 -22 7 -26 20 -10 30 16 10 11 40 -11 69 -15 19 -30
26 -54 26 -51 0 -51 -16 0 -29 46 -12 57 -29 31 -50 -11 -9 -28 -6 -78 17 -68
31 -112 70 -142 126 l-18 34 27 36 c25 33 27 42 21 91 -5 44 -2 60 15 90 26
44 23 64 -30 215 -41 119 -52 159 -81 320 l-17 95 143 -2 c85 -2 146 2 149 7
4 6 -49 10 -144 10 -83 0 -151 3 -151 8 0 4 -7 48 -14 97 -27 164 -51 494 -39
511 4 6 23 14 42 18 19 3 42 12 50 20 9 7 33 19 54 26 90 29 60 152 -43 175
-33 7 -33 -2 -3 120 26 110 76 222 135 307 10 14 9 21 -8 40 -38 42 -37 44 59
140 75 74 101 108 131 169 52 110 76 213 82 359 2 69 6 162 9 207 l4 82 -27 5
c-61 12 -150 25 -191 28 l-44 3 -1 -71 c-1 -53 -4 -70 -13 -67 -9 3 -13 27
-13 69 0 50 -4 65 -17 72 -16 8 -199 25 -395 36 l-78 4 0 -135 c0 -119 -2
-134 -16 -129 -9 3 -27 6 -41 6 l-25 0 3 130 4 130 -35 1 c-19 1 -128 2 -241
3 l-205 1 0 -108z m436 -52 c0 -117 -1 -126 -24 -152 -13 -15 -26 -26 -29 -23
-18 22 -107 204 -107 220 0 12 -4 19 -9 16 -11 -7 -21 -56 -11 -56 7 0 11 -9
19 -45 1 -5 -2 -11 -7 -13 -5 -1 -12 9 -16 23 -7 27 -36 35 -36 9 0 -8 -13
-35 -30 -58 -16 -24 -26 -46 -23 -50 4 -3 1 -6 -5 -6 -5 0 -20 -16 -32 -36
-12 -19 -24 -33 -27 -31 -6 7 19 57 29 57 4 0 8 4 8 9 0 6 14 30 30 54 17 25
30 47 30 51 0 3 14 27 30 53 30 47 39 83 20 83 -5 0 -10 -5 -10 -11 0 -5 -18
-37 -40 -69 -22 -32 -40 -62 -40 -65 0 -4 -15 -27 -32 -53 -18 -26 -32 -50
-30 -54 1 -5 -3 -8 -9 -8 -8 0 -10 -13 -6 -37 l6 -38 -17 30 c-13 23 -18 63
-20 177 l-4 146 196 1 196 1 0 -125z m-550 16 l0 -100 38 5 c20 3 45 7 55 9
11 2 17 -3 17 -15 0 -20 -16 -25 -112 -33 l-48 -5 0 104 c0 63 -4 104 -10 104
-6 0 -10 -50 -10 -129 l0 -130 28 15 c15 8 55 14 93 14 66 0 66 0 94 -40 26
-38 27 -45 22 -112 -7 -83 -48 -177 -105 -240 -54 -60 -61 -29 -16 66 20 41
38 94 40 118 5 48 3 46 -21 -32 -17 -55 -63 -145 -71 -138 -2 3 5 22 15 44 35
73 65 194 53 206 -9 9 -12 2 -14 -27 -1 -36 -2 -34 -8 15 l-7 55 -1 -72 c-2
-66 -24 -154 -53 -207 -7 -11 -7 -21 -1 -25 11 -7 32 -46 32 -59 0 -20 -75
-85 -129 -111 -86 -41 -143 -54 -212 -48 -76 7 -155 45 -213 103 -48 47 -106
140 -106 168 0 11 -5 14 -12 10 -8 -5 -9 -2 -5 9 4 10 1 30 -5 45 -17 42 -17
52 -1 52 13 0 13 -2 2 -17 -13 -15 -12 -15 9 -4 21 11 27 8 23 -13 -1 -5 1
-16 4 -24 5 -13 8 -12 25 3 22 20 26 35 9 35 -5 0 -8 -4 -5 -9 3 -5 0 -11 -7
-14 -8 -3 -12 6 -12 25 l0 29 57 -4 c32 -2 62 1 67 6 16 16 20 6 27 -60 6 -55
5 -60 -15 -66 -19 -5 -21 -1 -21 43 0 27 -4 51 -8 54 -5 3 -7 -19 -4 -49 6
-74 -14 -71 -22 3 -6 57 -7 58 -39 59 -17 1 -24 -1 -14 -4 15 -4 17 -12 13
-46 -3 -23 -5 -43 -5 -45 -1 -2 -6 0 -13 4 -8 5 -9 2 -5 -9 13 -36 -11 -15
-28 23 -10 23 -23 44 -28 47 -6 3 -8 2 -5 -3 13 -24 21 -48 32 -92 15 -62 156
-177 241 -198 29 -6 29 -6 12 12 -80 86 -107 119 -113 136 -10 34 2 29 28 -10
13 -20 31 -35 39 -34 8 2 11 0 7 -4 -4 -4 11 -30 34 -58 23 -28 43 -52 44 -54
5 -9 64 -19 64 -11 0 5 -9 9 -20 9 -10 0 -31 12 -45 28 -29 30 -79 114 -90
150 -12 40 9 22 33 -27 28 -62 106 -146 123 -135 10 6 9 9 -3 13 -22 9 -99
101 -114 138 -18 41 -18 42 4 41 9 0 25 3 34 7 14 5 23 -4 44 -49 16 -34 45
-72 72 -96 53 -45 51 -65 -2 -25 -37 28 -98 113 -102 141 -3 20 -14 32 -14 15
0 -7 -4 -9 -10 -6 -5 3 -10 1 -10 -4 0 -6 4 -11 10 -11 5 0 19 -20 31 -45 21
-45 99 -125 121 -125 39 1 35 18 -16 75 -29 33 -60 75 -69 94 -20 40 -20 41
-6 41 5 0 20 -21 31 -47 12 -27 23 -43 25 -36 2 6 -5 30 -17 53 -14 28 -17 41
-8 38 7 -3 27 -40 45 -83 34 -82 57 -115 80 -115 8 0 1 12 -17 26 -17 15 -29
29 -26 32 3 3 12 -1 21 -8 8 -7 15 -9 15 -6 0 4 13 -2 28 -13 l29 -20 36 33
c55 50 48 81 -21 92 -32 5 -42 3 -42 -7 0 -10 -3 -10 -12 -1 -9 9 -7 19 10 41
21 28 22 39 19 173 -2 79 -1 205 2 281 6 134 5 138 -14 133 -11 -2 -60 -8
-110 -12 -49 -4 -93 -9 -97 -10 -5 -1 -24 -2 -44 -3 l-35 -1 2 -100 c1 -55 0
-103 -4 -107 -4 -3 -7 48 -7 114 l0 120 128 12 c70 6 141 13 157 15 17 2 54 4
83 5 l52 1 0 -99z m965 79 c76 -6 141 -12 142 -14 2 -2 4 -44 6 -94 l2 -92 35
-6 c39 -6 181 -38 220 -50 l25 -7 -25 20 c-14 11 -36 24 -49 28 -14 4 -20 10
-13 17 6 6 24 3 51 -8 l41 -16 0 -65 c0 -56 -2 -64 -16 -59 -17 7 -115 23
-189 32 l-40 4 40 -15 c22 -9 65 -18 95 -21 93 -8 108 -13 103 -35 -7 -25 -29
-24 -109 6 -36 14 -74 25 -83 25 -9 0 -29 7 -44 15 -20 10 -27 11 -24 2 10
-31 142 -77 219 -77 33 0 38 -3 38 -23 0 -13 -2 -26 -5 -28 -2 -3 -53 3 -112
13 -59 9 -124 18 -145 20 -20 1 -39 7 -42 14 -5 14 17 37 27 28 3 -3 3 4 0 17
-4 13 -2 20 3 16 6 -3 8 8 6 27 l-4 32 74 -7 c40 -4 102 -10 138 -13 64 -5 64
-5 -25 14 -49 11 -108 19 -130 20 -22 0 -47 5 -55 10 -24 16 53 11 165 -10 55
-10 102 -17 104 -15 14 15 -123 45 -259 58 -29 3 -35 7 -32 25 2 12 -1 22 -6
22 -5 0 -28 13 -53 29 -66 43 -83 46 -99 16 -16 -29 -90 -68 -114 -59 -21 8
-21 -4 1 -28 14 -15 14 -19 3 -16 -8 2 -14 -3 -13 -9 2 -7 -1 -13 -7 -13 -5 0
-7 -8 -3 -17 3 -10 3 -15 -1 -11 -4 3 -8 12 -10 20 -1 7 -5 18 -8 24 -4 6 -1
22 7 37 7 14 10 29 7 33 -4 3 3 3 15 0 24 -8 63 22 63 48 0 12 -5 12 -30 3
-26 -10 -32 -9 -47 8 -11 11 -12 14 -3 8 11 -7 22 -8 40 0 23 9 23 10 5 15
-44 10 -56 42 -15 42 14 0 18 -5 13 -17 -5 -14 -1 -13 19 5 13 12 27 20 30 17
10 -10 148 -12 154 -3 3 5 13 7 21 4 8 -3 12 -2 9 2 -3 5 -47 9 -97 11 -51 1
-96 4 -100 7 -5 3 -38 8 -74 13 l-65 7 0 -171 c0 -189 10 -385 19 -385 3 1 28
35 54 76 27 42 50 74 53 71 6 -5 -29 -68 -64 -114 -29 -40 -17 -44 14 -5 l22
27 -5 -26 c-3 -15 0 -37 7 -49 12 -22 12 -22 -11 -6 -13 9 -38 16 -56 16 -42
0 -57 29 -73 138 -7 45 -17 85 -23 89 -7 4 -8 0 -3 -12 4 -10 11 -53 17 -94 5
-42 12 -89 15 -106 4 -19 3 -26 -4 -20 -5 6 -15 38 -21 72 -15 77 -41 167 -47
160 -4 -4 29 -164 46 -219 5 -16 4 -28 0 -28 -5 0 -14 19 -20 43 -24 91 -52
178 -57 174 -4 -5 20 -111 37 -157 4 -14 11 -38 14 -53 4 -15 11 -25 15 -22 5
3 7 -5 4 -17 l-5 -23 19 22 c29 36 73 44 122 22 39 -17 41 -20 41 -61 0 -36
-5 -46 -29 -63 -16 -10 -27 -23 -24 -29 3 -5 1 -6 -6 -2 -8 5 -7 15 6 36 13
22 14 36 7 62 -8 29 -14 33 -46 36 -44 4 -78 -27 -78 -70 0 -26 30 -55 44 -41
3 3 6 2 6 -4 0 -10 56 -50 85 -62 6 -2 23 -13 38 -23 34 -24 76 -17 43 7 -15
12 -16 16 -5 20 8 3 26 4 39 2 14 -3 35 -1 48 4 26 10 28 6 6 -16 -26 -26 -10
-27 19 -2 15 12 42 31 60 41 l32 17 -27 -23 c-40 -34 -34 -42 10 -14 20 13 36
29 35 34 -1 5 6 8 16 5 12 -3 29 9 52 38 19 23 42 50 53 60 10 9 15 22 11 28
-3 6 -2 11 3 11 5 0 14 11 20 25 16 35 15 43 -3 19 -8 -10 -15 -14 -15 -8 0 5
7 19 15 30 8 10 15 14 15 7 0 -6 7 -19 16 -27 14 -15 14 -16 0 -16 -9 0 -16
-4 -16 -10 0 -5 4 -10 10 -10 5 0 7 -7 4 -15 -8 -21 -25 -19 -18 3 5 16 5 16
-6 -1 -6 -9 -8 -22 -5 -27 3 -6 0 -10 -8 -10 -23 0 -58 -65 -44 -81 10 -11 9
-11 -4 -1 -13 10 -20 7 -39 -13 -20 -21 -21 -25 -7 -31 15 -5 15 -8 2 -21 -8
-8 -15 -20 -15 -26 0 -6 20 9 45 33 33 33 44 49 39 65 -4 14 -3 16 4 6 11 -15
21 -4 17 21 -2 10 2 15 10 12 14 -6 28 23 18 38 -3 7 -1 8 6 4 6 -4 11 -4 10
1 -1 4 7 30 19 56 12 27 22 53 22 58 0 12 -17 11 -23 -1 -3 -6 -4 -5 -3 2 2 7
9 13 17 13 8 0 17 9 22 19 4 10 10 17 13 14 2 -3 -11 -48 -29 -101 -35 -97
-86 -174 -162 -247 -34 -33 -37 -34 -50 -17 -7 10 -15 14 -16 9 -2 -6 -11 -3
-19 6 -13 14 -12 15 3 9 18 -7 24 8 6 18 -5 4 -19 -1 -29 -10 -10 -9 -24 -14
-29 -10 -6 3 -11 2 -11 -4 0 -6 -8 -8 -17 -5 -17 5 -17 5 -1 -9 10 -8 14 -18
10 -22 -4 -5 -1 -5 6 -1 7 4 10 12 7 17 -3 5 8 7 26 5 17 -2 35 -10 40 -17 7
-12 9 -12 9 1 0 11 3 11 12 2 9 -9 9 -15 1 -23 -16 -16 -63 -14 -74 2 -7 12
-9 12 -9 0 0 -11 -14 -13 -71 -7 -39 3 -79 11 -88 16 -12 7 -6 8 19 5 22 -3
16 1 -19 11 -29 8 -68 26 -86 40 -17 13 -35 24 -39 24 -4 0 -14 7 -23 15 -19
19 -50 1 -33 -20 5 -6 6 -16 2 -20 -4 -5 1 -5 11 -2 12 5 16 3 11 -5 -5 -8 -2
-9 9 -5 10 4 16 2 14 -5 -1 -6 4 -13 12 -16 8 -2 11 0 7 6 -4 6 2 8 16 4 20
-5 21 -6 3 -12 -16 -6 -14 -9 15 -18 45 -16 61 -14 30 3 -28 16 -19 20 11 5
33 -18 23 -33 -18 -25 -52 11 -133 12 -160 3 -13 -4 -33 -4 -45 1 -13 5 -32 5
-44 1 -11 -5 -27 -4 -35 1 -8 5 -9 9 -3 9 6 0 11 7 11 16 0 11 -7 14 -22 10
-17 -4 -25 1 -36 22 -7 15 -15 30 -17 33 -1 4 8 5 20 4 37 -4 38 -4 38 -16 0
-8 -5 -7 -15 1 -9 7 -18 10 -21 7 -9 -9 4 -24 26 -30 15 -4 20 0 20 15 0 10 4
17 9 14 5 -3 7 -19 6 -36 -1 -17 1 -33 6 -36 9 -5 13 10 9 31 -1 6 4 5 11 -2
10 -10 17 -7 36 13 19 21 26 24 39 13 8 -6 12 -14 9 -18 -3 -3 -10 1 -15 9 -6
8 -10 11 -10 5 0 -21 19 -38 35 -32 10 4 14 3 10 -4 -4 -6 -1 -9 6 -8 8 1 22
-1 31 -5 34 -15 41 0 7 16 -40 20 -97 74 -64 62 18 -7 19 -6 5 12 -10 14 -11
16 0 7 10 -9 17 -10 27 -1 12 9 11 15 -6 32 -126 128 -211 277 -211 370 0 38
36 101 68 117 15 8 54 14 94 13 l68 -1 -2 133 -3 133 60 -5 c33 -2 123 -9 200
-14z m-1507 -265 c-2 -1 -18 -5 -35 -8 -39 -8 -45 10 -8 19 14 3 25 10 25 15
0 13 -34 11 -48 -3 -8 -8 -15 -8 -28 3 -16 13 -16 12 -5 -8 8 -16 8 -23 1 -23
-6 0 -9 -4 -5 -9 3 -5 0 -13 -6 -17 -8 -4 -9 -3 -5 4 4 7 1 12 -8 12 -8 0 -18
-4 -21 -10 -3 -5 -12 -10 -18 -10 -7 0 -6 4 3 10 10 7 11 13 5 18 -6 4 -12 40
-14 79 -2 62 0 74 14 80 10 3 27 1 37 -6 16 -10 19 -10 13 1 -6 10 -5 10 6 -1
11 -10 11 -15 2 -18 -7 -3 -13 -9 -13 -14 0 -6 4 -8 9 -5 10 7 9 -20 -1 -30
-8 -7 12 -54 23 -54 4 0 9 5 11 11 2 6 16 12 31 12 15 0 24 4 21 9 -3 5 -20 6
-37 2 -29 -6 -31 -5 -17 11 8 9 23 21 35 25 19 8 19 9 1 9 -20 1 -20 1 0 15
18 14 18 16 2 32 -14 14 -20 15 -33 4 -13 -11 -14 -10 -9 4 3 9 14 21 24 26
14 8 20 6 23 -8 3 -10 5 -5 6 12 1 25 -2 28 -21 22 -34 -10 -132 -24 -137 -20
-9 8 8 14 84 29 43 8 81 17 84 21 3 3 7 -49 9 -116 1 -68 1 -124 0 -125z
m1915 219 c27 -6 27 -6 27 -85 0 -43 -1 -79 -2 -79 -13 0 -95 49 -91 54 4 3
-2 6 -13 6 -16 0 -17 2 -4 10 12 7 13 13 3 28 -11 18 -8 19 43 15 34 -3 54 -1
54 6 0 11 -45 25 -117 36 -24 4 -46 11 -49 17 -6 10 79 5 149 -8z m-1533 -23
c-1 -14 -3 -13 -15 3 -13 17 -14 17 -13 -5 1 -13 8 -32 16 -42 23 -27 8 -30
-17 -3 -18 19 -20 28 -12 49 11 29 41 28 41 -2z m24 -18 c-2 -27 -5 -63 -6
-80 -1 -33 -12 -43 -21 -20 -4 9 -8 9 -15 -2 -13 -19 -25 3 -17 30 5 14 3 19
-4 15 -6 -4 -9 -1 -8 6 2 7 2 9 -1 4 -3 -5 -13 8 -23 29 -23 46 -25 66 -4 39
13 -16 14 -16 9 -1 -4 10 -1 17 6 17 8 0 9 -10 5 -30 -4 -18 -3 -30 4 -30 5 0
18 -13 28 -30 24 -41 31 -38 28 13 -1 34 11 87 20 87 2 0 1 -21 -1 -47z m-94
-43 c10 -14 20 -41 24 -60 5 -30 2 -26 -24 25 -17 33 -28 48 -25 33 3 -15 1
-29 -4 -32 -4 -3 -7 13 -6 35 1 21 -1 42 -6 45 -4 2 -5 12 -2 21 5 13 9 11 16
-13 6 -16 18 -40 27 -54z m-150 -85 c-8 -16 -16 76 -10 120 4 32 6 26 10 -35
3 -41 3 -79 0 -85z m26 139 c-3 -9 1 -25 9 -37 12 -17 15 -18 15 -5 0 9 -4 19
-10 23 -11 7 -2 35 12 35 6 0 6 -6 -1 -14 -8 -9 -8 -16 -2 -20 5 -4 13 3 16
15 6 19 8 20 26 3 21 -19 26 -40 7 -28 -8 5 -9 2 -4 -12 4 -10 10 -39 12 -64
3 -36 2 -40 -5 -18 -5 15 -16 37 -25 50 l-16 22 0 -29 c0 -20 3 -26 9 -17 7
11 10 10 15 -3 3 -9 6 -26 5 -38 l0 -22 -9 23 c-5 12 -12 22 -14 22 -3 0 -3
-7 0 -15 4 -8 1 -15 -5 -15 -6 0 -11 17 -12 38 -1 39 -3 37 -14 -12 -9 -41
-25 -15 -23 37 1 24 4 33 10 25 6 -10 8 -8 8 5 0 9 -4 17 -10 17 -5 0 -9 11
-8 25 1 14 6 25 11 25 5 0 6 -7 3 -16z m1618 -25 c20 -16 24 -24 16 -34 -6 -7
-10 -17 -9 -21 5 -28 -2 -32 -42 -23 -22 5 -46 6 -52 3 -7 -4 -9 -4 -5 1 4 4
2 15 -5 23 -10 13 -9 15 6 9 13 -5 21 2 34 28 20 41 22 42 57 14z m-1834 -28
c0 -5 -7 -12 -16 -15 -24 -9 -28 -7 -14 9 14 17 30 20 30 6z m85 -10 c-3 -11
-1 -22 4 -26 7 -4 8 1 4 11 -4 12 -3 15 5 10 7 -4 12 -19 12 -34 0 -21 2 -24
10 -12 9 13 10 13 10 -1 0 -8 -7 -24 -15 -35 -8 -11 -14 -14 -15 -6 0 10 -3
10 -14 0 -10 -9 -11 -15 -2 -20 6 -4 7 -8 1 -8 -5 1 -19 8 -30 17 -15 12 -16
14 -3 10 16 -6 32 15 20 27 -10 10 -11 37 -1 30 11 -7 11 -1 -1 30 -8 21 -7
26 6 26 11 0 13 -6 9 -19z m833 -51 c-7 -12 -28 -40 -46 -60 -19 -21 -33 -41
-32 -45 1 -4 -6 -12 -16 -19 -9 -7 -14 -17 -11 -22 3 -6 -4 -11 -15 -11 -20
-2 -20 -2 1 21 11 12 21 26 21 32 0 5 19 29 41 54 22 25 42 55 46 68 3 15 9
20 15 14 6 -6 5 -18 -4 -32z m507 30 c-3 -5 -16 -10 -28 -9 -21 0 -21 1 -2 9
28 12 37 12 30 0z m166 -15 c22 -14 43 -34 46 -43 3 -9 15 -29 25 -45 17 -23
18 -32 8 -62 -13 -39 -41 -46 -72 -18 -17 15 -18 15 -18 -6 0 -13 15 -38 33
-56 l33 -33 -85 -4 c-48 -2 -87 -3 -89 -2 -2 1 11 15 28 32 29 29 41 72 20 72
-5 0 -10 -4 -10 -9 0 -16 -84 -64 -111 -63 -20 0 -26 -3 -22 -14 3 -7 9 -11
14 -8 14 8 11 -6 -5 -22 -9 -9 -17 -10 -21 -4 -3 5 -1 10 5 10 7 0 4 12 -6 30
-17 28 -12 58 6 31 6 -10 11 -4 19 24 5 20 18 46 27 56 9 11 13 19 8 19 -4 0
-18 -12 -29 -27 -19 -22 -23 -24 -28 -10 -4 11 -1 17 8 17 8 0 15 4 15 10 0 5
16 17 35 26 39 18 43 30 18 51 -16 13 -15 13 13 8 28 -5 34 -2 54 29 12 20 26
36 31 36 5 0 28 -11 50 -25z m-1247 -25 l7 -25 -16 25 c-9 14 -14 17 -11 8 3
-10 1 -20 -4 -23 -11 -7 -13 15 -4 40 8 20 19 9 28 -25z m657 4 c12 -20 22
-43 22 -50 0 -8 4 -14 9 -14 4 0 8 -8 8 -17 0 -14 -4 -12 -25 7 -26 24 -34 47
-12 34 8 -5 8 -2 -2 9 -15 18 -26 23 -16 7 9 -14 -8 -13 -23 2 -6 6 -15 9 -18
5 -8 -7 41 -68 50 -61 3 2 4 1 1 -3 -7 -9 26 -44 36 -37 5 3 6 -2 2 -11 -5
-13 -7 -14 -14 -3 -5 7 -9 11 -10 8 0 -3 -2 -18 -4 -34 -4 -33 -16 -47 -22
-28 -7 17 -43 -14 -43 -37 0 -14 -2 -14 -10 -1 -8 13 -10 13 -10 -1 0 -25 -26
-44 -33 -25 -4 11 -1 13 11 10 14 -5 15 -4 2 5 -8 6 -22 8 -30 6 -11 -3 -16 2
-17 17 -2 16 0 19 6 9 6 -9 9 -5 9 14 0 17 -3 22 -8 15 -4 -7 -13 -9 -19 -5
-8 4 -10 -2 -7 -19 l5 -26 -28 22 -29 23 24 9 c14 6 24 18 24 30 0 16 2 18 9
7 5 -8 6 -21 3 -30 -5 -13 -3 -14 10 -4 8 7 18 10 21 6 4 -3 7 -1 7 6 0 7 5 9
10 6 6 -3 10 -14 10 -23 0 -15 -2 -15 -10 -2 -6 9 -10 10 -10 3 0 -17 17 -25
25 -13 5 8 11 7 21 -1 26 -21 14 2 -18 37 -36 37 -51 44 -41 17 4 -14 3 -15
-6 -7 -12 11 -5 44 9 44 4 0 15 -9 25 -20 10 -11 22 -17 28 -13 5 3 7 1 3 -5
-6 -11 19 -42 35 -42 11 0 11 3 3 24 -3 9 -10 13 -15 10 -5 -3 -8 -2 -7 3 4
16 -24 55 -36 50 -7 -3 -13 1 -13 9 0 8 7 14 14 14 8 0 11 5 7 12 -4 7 -3 8 4
4 6 -4 8 -14 5 -22 -3 -10 1 -17 13 -20 19 -5 44 -46 44 -72 0 -7 5 -10 10 -7
17 11 2 55 -33 99 -32 38 -34 44 -21 61 12 16 16 17 23 6 5 -8 14 -10 21 -6 9
6 8 10 -4 17 -9 5 -14 13 -11 19 9 14 12 12 36 -27z m-577 -47 c-3 -8 -19 -15
-37 -15 -30 0 -46 -2 -127 -17 -19 -3 -48 -8 -65 -11 -16 -3 -31 -7 -34 -9 -2
-3 -11 1 -19 8 -11 8 -14 8 -9 0 4 -6 3 -14 -3 -18 -5 -3 -10 0 -10 7 0 9 -3
9 -10 -2 -9 -13 -11 -13 -20 0 -5 8 -10 10 -10 4 0 -18 -82 -36 -92 -21 -6 9
-8 8 -8 -3 0 -8 -10 -16 -22 -16 -13 -1 -38 -5 -55 -9 -18 -3 -33 -2 -33 3 0
8 81 37 130 45 14 3 61 12 105 21 99 20 226 40 282 44 34 2 41 0 37 -11z m-4
-80 c0 -9 -31 -17 -99 -25 -55 -7 -175 -28 -267 -47 -186 -39 -188 -39 -180
-26 9 14 211 60 376 86 179 28 170 28 170 12z m-10 -58 c12 -8 9 -9 -10 -4
-24 5 -24 5 -5 -7 16 -10 20 -23 18 -58 -4 -84 -6 -90 -25 -84 -14 4 -16 1
-11 -11 5 -15 3 -15 -16 -4 -12 8 -17 15 -11 17 6 2 7 8 4 13 -3 6 -8 25 -10
42 -2 18 -6 45 -9 60 -4 22 0 30 18 37 29 12 39 12 57 -1z m-104 -157 c-14
-14 -26 17 -26 67 0 82 14 85 23 5 4 -37 5 -69 3 -72z m-36 63 c0 -36 -4 -65
-9 -65 -4 0 -13 24 -19 53 l-11 52 4 -52 c2 -29 0 -55 -6 -58 -5 -4 -9 17 -9
49 0 30 -3 57 -7 59 -5 3 -6 -21 -5 -54 3 -38 0 -59 -7 -59 -6 0 -11 19 -11
43 0 23 -3 52 -6 64 -5 19 -1 22 33 26 21 2 41 4 46 5 4 1 7 -27 7 -63z m618
-19 c8 -5 33 9 66 38 43 36 55 43 60 30 3 -8 2 -12 -4 -9 -6 3 -10 0 -10 -9 0
-8 6 -17 13 -19 6 -3 3 -6 -9 -6 -11 -1 -31 -12 -44 -26 -19 -20 -21 -27 -10
-40 16 -19 37 -19 56 0 25 25 37 17 16 -10 -11 -14 -19 -37 -17 -50 1 -17 -3
-25 -13 -25 -8 0 -13 3 -9 6 8 8 -33 54 -65 70 -25 13 -29 12 -77 -32 -51 -46
-52 -46 -72 -28 -11 10 -18 26 -16 35 3 12 0 16 -10 12 -12 -5 -13 1 -7 33 10
58 23 77 24 34 0 -36 14 -60 35 -60 5 0 23 10 38 23 l29 22 -24 20 c-21 19
-22 19 -8 1 14 -18 14 -19 -8 -7 -28 15 -56 57 -47 71 4 6 24 -4 53 -28 26
-21 53 -42 60 -46z m-718 52 c0 -7 3 -37 7 -67 4 -43 3 -53 -8 -49 -9 3 -15
24 -17 61 -2 31 -6 57 -11 57 -4 0 -5 -27 -3 -60 4 -49 2 -60 -11 -60 -11 0
-16 14 -19 58 -2 31 -3 60 -1 65 7 12 63 8 63 -5z m1301 -31 c-5 -5 -2 -16 10
-28 10 -10 19 -32 19 -48 0 -16 3 -36 6 -45 3 -9 2 -16 -4 -16 -5 0 -14 26
-20 58 l-9 57 -2 -46 c0 -26 6 -60 14 -75 8 -16 15 -55 15 -88 0 -40 5 -65 16
-77 14 -16 14 -17 -3 -14 -10 2 -20 4 -23 4 -3 1 -7 18 -8 38 -2 21 -8 41 -15
45 -8 5 -12 44 -12 127 0 65 -3 117 -7 115 -4 -3 -5 2 -2 11 5 12 9 13 21 4 9
-8 10 -16 4 -22z m211 -27 c6 33 12 17 34 -85 10 -44 20 -72 22 -62 2 10 -4
50 -13 88 -20 81 -14 103 8 32 25 -79 29 -117 13 -138 -14 -20 -15 -20 -22 0
-5 11 -16 47 -25 80 -22 76 -24 43 -3 -42 18 -71 15 -117 -4 -70 -7 16 -12 43
-12 61 0 17 -7 58 -15 89 -18 70 -18 93 0 52 l13 -30 4 25z m90 -21 c18 -47
23 -115 9 -123 -4 -3 -11 19 -15 50 -3 31 -13 71 -21 91 -11 25 -11 33 -2 30
6 -2 20 -24 29 -48z m-734 23 c4 -14 -34 -16 -42 -3 -6 10 13 21 28 17 6 -1
12 -8 14 -14z m605 -19 c8 -21 17 -63 20 -93 3 -30 3 -46 0 -35 -3 11 -15 53
-28 93 -24 75 -18 100 8 35z m186 28 c10 -7 11 -13 2 -27 -10 -18 -11 -18 -17
3 -3 13 -11 20 -17 16 -6 -3 -7 -1 -3 5 9 14 16 15 35 3z m-390 -73 c0 -50 -3
-67 -9 -53 -16 37 -11 125 7 125 2 0 3 -33 2 -72z m97 0 c13 -60 19 -249 7
-218 -3 8 -10 17 -14 20 -5 3 -11 66 -14 140 -4 74 -3 132 0 128 4 -4 13 -35
21 -70z m34 25 c0 -8 9 -34 20 -57 19 -44 41 -151 32 -161 -11 -11 -22 9 -23
43 -1 20 -5 51 -10 67 -6 21 -7 6 -4 -47 2 -44 -1 -78 -6 -78 -8 0 -14 58 -11
100 1 13 -11 94 -24 160 -5 24 -5 24 10 6 9 -11 16 -26 16 -33z m50 -25 c12
-40 28 -91 36 -114 14 -41 10 -79 -7 -68 -5 3 -9 13 -9 23 0 11 -12 59 -26
107 -15 49 -29 97 -31 107 -3 9 -1 17 5 17 5 0 19 -33 32 -72z m256 56 c-3 -9
-6 -18 -6 -20 0 -2 -4 -4 -9 -4 -5 0 -7 9 -4 20 3 11 10 20 15 20 6 0 7 -7 4
-16z m-1876 -78 c-14 -14 -12 -23 5 -30 8 -3 22 2 31 12 13 13 16 13 12 2 -7
-19 25 -74 71 -122 19 -21 30 -38 24 -38 -16 0 -77 71 -94 108 -14 32 -37 46
-25 16 3 -8 2 -13 -3 -9 -5 3 -11 0 -13 -7 -3 -7 -7 -5 -11 6 -4 10 -3 15 3
11 6 -3 10 -1 10 6 0 6 -8 9 -20 6 -11 -3 -17 -1 -14 4 3 5 -1 12 -9 15 -12 4
-11 9 7 27 13 14 24 18 28 12 4 -5 3 -14 -2 -19z m421 1 c-6 -6 -11 -27 -11
-46 0 -27 -3 -32 -10 -21 -16 25 -12 78 8 89 20 12 30 -5 13 -22z m-54 -37 c7
-30 20 -61 28 -70 23 -25 18 -36 -6 -14 -25 23 -71 122 -63 136 12 19 27 0 41
-52z m693 40 c0 -5 -9 -14 -20 -20 -22 -12 -27 -1 -8 18 14 14 28 16 28 2z
m-324 -15 c-3 -9 0 -15 8 -15 7 0 19 -7 26 -15 7 -8 28 -17 49 -21 49 -9 51
-11 38 -39 -13 -26 -31 -32 -43 -13 -4 7 -3 8 4 4 7 -4 10 -2 6 7 -2 7 -10 14
-17 14 -28 0 -86 35 -80 49 6 16 -12 19 -22 4 -3 -5 -11 -10 -16 -10 -12 0 32
49 45 49 4 1 6 -6 2 -14z m136 -2 c-9 -4 -10 -8 -2 -18 8 -10 8 -15 -1 -21 -7
-4 -9 -3 -5 4 3 6 2 13 -4 17 -13 8 -3 25 13 24 8 0 8 -2 -1 -6z m231 -4 c-9
-9 -6 -17 10 -31 12 -11 15 -16 7 -12 -8 4 -23 14 -32 21 -15 13 -18 12 -30
-6 -12 -20 -38 -29 -38 -13 1 12 50 43 59 37 5 -3 12 -1 16 5 3 5 9 10 13 10
3 0 1 -5 -5 -11z m-978 -29 c9 -16 11 -30 6 -30 -11 0 -31 32 -31 49 0 19 9
12 25 -19z m814 17 c13 4 13 3 2 -5 -16 -12 -41 -5 -41 11 0 8 3 8 11 0 6 -6
19 -9 28 -6z m53 -62 c2 -22 -2 -31 -14 -33 -12 -2 -18 3 -18 16 0 11 -5 22
-11 24 -8 3 -5 10 6 22 21 21 32 12 37 -29z m-306 20 c-8 -21 16 -41 81 -65
109 -42 283 -24 346 34 18 17 28 21 36 13 18 -18 14 -23 -43 -61 -105 -70
-248 -72 -384 -5 -71 35 -83 51 -57 79 21 24 29 26 21 5z m240 -17 c-3 -13 -6
-29 -6 -35 0 -19 -17 -16 -23 5 -2 9 -8 25 -12 35 -6 14 -2 17 20 17 23 0 26
-3 21 -22z m149 2 c3 -6 -5 -10 -19 -10 -14 0 -28 5 -31 10 -3 6 5 10 19 10
14 0 28 -4 31 -10z m-581 -25 c-6 -15 -41 -8 -47 9 -3 8 4 11 23 8 18 -3 27
-9 24 -17z m811 -5 c3 -5 0 -10 -7 -10 -10 0 -9 -3 1 -9 9 -6 22 -6 32 0 30
16 45 11 26 -8 -21 -21 -69 -8 -73 20 -2 18 11 23 21 7z m-118 -16 c-4 -4 2
-19 12 -33 19 -26 18 -26 -5 -44 -22 -17 -24 -17 -34 3 -6 11 -16 20 -22 20
-6 0 -3 -9 6 -19 10 -11 15 -25 11 -30 -10 -17 -23 -13 -21 6 0 10 -9 19 -22
22 -22 6 -19 8 22 28 25 13 46 26 45 30 -2 14 1 23 8 23 3 0 3 -3 0 -6z m267
-46 c5 -21 3 -28 -8 -28 -10 0 -13 6 -9 18 6 15 4 15 -15 -2 -12 -11 -22 -14
-22 -9 0 6 7 13 15 17 8 3 15 18 15 33 1 32 13 17 24 -29z m-804 26 c23 -14
13 -13 -27 3 -34 14 0 -19 60 -58 55 -36 62 -38 69 -22 5 14 7 15 8 3 2 -8 2
-19 1 -25 -1 -5 8 1 19 14 l20 23 6 -32 c5 -22 9 -28 15 -18 7 10 9 9 9 -4 0
-22 -19 -23 -67 -3 -26 11 -40 12 -47 5 -8 -8 -4 -12 12 -16 40 -11 23 -20
-37 -20 -33 0 -58 3 -55 7 2 4 20 6 39 5 36 -1 34 14 -3 17 -11 0 -19 5 -16 9
3 4 11 5 19 1 8 -3 22 -2 31 1 12 5 3 15 -37 42 -79 53 -88 63 -69 74 19 12
20 12 50 -6z m-50 -63 c0 -5 -5 -11 -10 -13 -6 -2 -8 -16 -4 -35 4 -21 11 -30
20 -26 10 4 10 9 2 23 -9 14 -8 21 5 35 9 9 17 11 17 5 0 -6 4 -9 9 -5 5 3 13
0 17 -6 4 -8 3 -9 -4 -5 -8 4 -12 0 -12 -11 -1 -27 -21 -49 -54 -57 -26 -6
-28 -5 -17 8 14 16 6 56 -11 56 -5 0 -7 -7 -4 -16 5 -14 4 -15 -9 -4 -9 8 -15
8 -15 2 0 -6 5 -14 10 -17 6 -3 10 -11 10 -18 0 -6 -7 -2 -15 9 -14 19 -14 19
-15 -1 -1 -18 -2 -17 -11 4 -6 16 -6 28 1 35 5 5 10 7 10 2 0 -4 14 1 30 11
17 9 30 21 30 25 0 4 5 8 10 8 6 0 10 -4 10 -9z m444 -36 c9 -13 16 -32 15
-42 0 -14 -2 -15 -6 -3 -3 8 -15 27 -25 43 -11 15 -15 27 -10 27 5 0 17 -11
26 -25z m-184 -9 c0 -13 -6 -28 -13 -34 -10 -9 -12 -4 -9 23 5 39 22 48 22 11z
m100 -16 c0 -13 -1 -13 -10 0 -8 12 -10 10 -10 -9 0 -13 -3 -22 -6 -18 -3 3
-3 20 1 38 5 23 10 28 16 18 5 -8 9 -21 9 -29z m53 16 c16 -23 15 -24 -13 -28
-27 -4 -30 -2 -30 24 0 35 22 37 43 4z m-520 -46 c-6 -6 -33 30 -33 43 0 5 9
-1 19 -14 11 -13 17 -26 14 -29z m-105 3 c-10 -2 -26 -2 -35 0 -10 3 -2 5 17
5 19 0 27 -2 18 -5z m79 -9 c2 -7 -9 -9 -29 -6 -28 4 -30 6 -13 13 24 9 37 7
42 -7z m1188 -54 c0 -13 -98 -15 -729 -18 -735 -2 -745 -2 -746 30 0 4 332 6
738 5 638 -2 737 -5 737 -17z m-808 -63 c3 -5 -130 -7 -296 -5 l-300 3 28 -30
c79 -85 139 -186 176 -295 26 -77 30 -100 18 -100 -5 0 -21 35 -37 78 -15 42
-45 104 -64 137 -48 80 -124 186 -130 180 -2 -2 18 -39 45 -82 55 -86 79 -129
93 -170 8 -24 8 -25 -3 -9 -6 10 -25 33 -42 51 -60 66 -78 89 -111 144 -19 31
-34 52 -34 46 0 -17 70 -129 103 -162 17 -18 26 -33 20 -33 -7 0 -15 5 -18 10
-3 6 -11 10 -17 10 -7 0 -6 -6 2 -15 7 -8 21 -15 31 -15 9 0 25 -8 35 -17 16
-16 15 -18 -5 -27 -15 -6 -25 -6 -33 2 -9 9 -6 12 13 13 18 1 16 3 -10 8 -31
6 -36 13 -74 96 -22 50 -53 109 -68 133 -16 24 -29 47 -29 52 0 12 699 9 707
-3z m63 -9 c0 -75 -256 -401 -323 -412 l-27 -5 30 37 c115 143 212 268 254
330 52 76 66 86 66 50z m790 7 c0 -8 -5 -17 -11 -21 -18 -11 -88 -164 -115
-251 -28 -92 -40 -107 -79 -97 -17 4 -23 9 -15 14 6 4 11 11 10 16 0 5 7 11
17 13 16 3 16 1 3 -14 -14 -17 -13 -17 7 -7 27 15 40 51 22 63 -23 15 -43 5
-61 -29 -21 -43 -28 -50 -21 -20 4 12 19 46 35 73 38 68 99 197 95 202 -2 2
-18 -23 -35 -55 -17 -32 -47 -84 -67 -117 -19 -32 -45 -90 -57 -127 -21 -66
-38 -88 -38 -50 0 73 144 351 196 380 9 5 14 14 10 21 -8 12 -68 16 -64 4 2
-5 -5 -19 -15 -33 -9 -13 -17 -19 -17 -12 0 6 -4 12 -10 12 -6 0 -6 -9 0 -26
14 -37 12 -40 -10 -14 -11 13 -20 18 -20 12 0 -6 5 -14 10 -17 6 -3 10 -14 10
-23 -1 -11 -6 -8 -16 11 -22 40 -15 61 24 67 18 3 31 10 30 15 -2 6 -92 9
-253 7 -148 -2 -256 1 -264 7 -9 6 113 9 342 9 296 1 357 -2 357 -13z m-696
-50 c34 -51 186 -243 260 -327 30 -35 67 -54 50 -26 -4 7 -3 8 4 4 7 -4 12 -3
12 2 0 5 -10 14 -22 21 -13 6 -15 9 -5 6 11 -3 3 10 -20 33 -21 20 -42 35 -47
33 -5 -2 -5 2 -1 9 6 10 11 9 22 -5 7 -11 13 -15 13 -10 0 5 -7 16 -16 26 -14
16 -14 18 5 28 14 8 22 8 26 0 4 -6 13 -8 21 -5 7 3 16 1 19 -5 4 -5 10 -7 15
-4 5 3 15 -4 23 -16 8 -11 17 -17 19 -12 3 4 3 2 1 -5 -1 -8 -3 -21 -3 -30 0
-15 -2 -15 -11 -2 -9 12 -10 11 -6 -7 3 -13 0 -23 -5 -23 -7 0 -6 -5 1 -14 9
-11 9 -16 0 -22 -8 -5 -9 -3 -4 6 6 9 4 11 -4 6 -7 -5 -10 -14 -8 -20 4 -9
-11 -13 -53 -12 -32 1 -57 3 -55 5 2 2 -42 54 -98 116 -92 102 -180 230 -194
284 -11 41 24 21 61 -34z m-263 -22 c41 -23 43 -31 18 -72 l-20 -34 -17 24
c-23 34 -43 54 -73 73 -26 16 -27 16 -75 -22 -27 -21 -54 -45 -60 -53 -16 -21
-26 -69 -14 -69 5 0 10 4 10 8 0 15 108 118 119 114 6 -2 -6 -16 -27 -31 -41
-31 -76 -77 -67 -90 2 -5 -2 -11 -10 -15 -8 -3 -15 -10 -15 -16 0 -6 7 -4 16
4 8 9 20 16 25 16 6 0 7 4 4 10 -3 5 0 19 8 31 10 13 17 16 22 10 3 -6 -1 -14
-10 -17 -10 -4 -13 -13 -10 -24 4 -12 -2 -24 -17 -34 -12 -9 -18 -16 -13 -16
5 0 20 11 35 25 17 17 30 21 40 15 12 -8 12 -11 -2 -27 -16 -19 -21 -56 -6
-47 5 4 7 12 4 19 -2 7 4 21 15 31 20 18 26 40 8 28 -8 -4 -8 -1 -1 12 5 11 7
25 5 32 -3 6 0 12 7 12 6 0 8 5 4 11 -4 8 -13 1 -23 -17 -8 -16 -15 -31 -14
-34 1 -3 -8 -7 -19 -7 -18 -2 -19 0 -5 15 8 9 12 22 10 29 -2 6 6 18 19 27 21
15 24 15 35 1 7 -11 13 -12 18 -6 3 6 1 11 -4 11 -6 0 -11 8 -11 18 1 16 1 16
14 0 7 -10 16 -15 19 -11 4 3 7 1 7 -4 0 -6 -5 -13 -12 -15 -6 -2 -13 -14 -15
-27 -2 -13 1 -20 7 -16 5 3 10 13 10 21 0 8 6 14 13 14 8 0 14 -7 14 -15 0 -8
-4 -12 -8 -10 -4 3 -19 -11 -33 -30 -15 -19 -23 -35 -19 -36 4 0 -2 -4 -15
-10 -13 -5 -20 -14 -17 -20 4 -6 -7 -24 -24 -41 -17 -17 -29 -34 -26 -38 3 -4
-2 -10 -10 -14 -8 -3 -15 -12 -15 -21 0 -8 -7 -15 -15 -15 -8 0 -15 1 -15 3 0
26 -25 125 -36 141 -14 22 -12 84 3 95 4 3 24 29 42 58 19 28 51 60 70 71 31
18 39 19 77 7 24 -7 58 -21 75 -32z m559 18 c27 -19 107 -128 99 -135 -3 -3
-27 16 -54 42 -28 26 -62 55 -76 64 -24 15 -28 15 -55 -1 -50 -32 -80 -70 -68
-88 13 -21 36 -29 32 -11 -2 8 5 12 17 10 20 -2 20 -2 -1 16 -15 13 -18 20
-10 27 7 6 22 19 34 29 20 18 22 18 16 2 -5 -12 3 -26 27 -46 44 -37 61 -39
26 -2 -15 15 -27 32 -27 37 0 12 52 -46 54 -61 1 -7 10 -22 21 -34 24 -27 6
-52 -21 -29 -16 12 -17 12 -11 -5 6 -14 4 -16 -5 -9 -7 6 -24 10 -38 9 -14 -1
-32 3 -40 8 -13 10 -13 9 -1 -6 7 -10 17 -15 22 -12 5 3 9 3 9 0 0 -3 -10 -10
-21 -17 -12 -6 -19 -7 -16 -2 3 5 -28 42 -69 83 -41 40 -73 77 -71 83 5 16
160 77 182 71 11 -3 31 -14 45 -23z m90 14 c7 -8 16 -13 20 -10 9 6 50 -68 50
-91 -1 -13 -8 -6 -21 19 -11 21 -24 35 -28 32 -5 -2 -8 3 -7 13 0 9 -6 17 -14
17 -8 0 -14 -6 -12 -13 1 -8 -2 -11 -7 -8 -5 3 -8 14 -7 24 2 9 -4 20 -13 24
-13 5 -12 7 5 7 12 1 27 -6 34 -14z m-975 -14 c-5 -30 6 -32 27 -6 30 39 32
24 3 -30 -14 -27 -23 -51 -20 -54 4 -3 10 1 15 9 8 13 10 12 10 -2 0 -10 -2
-18 -4 -18 -2 0 -11 -3 -19 -6 -19 -7 -30 22 -17 47 15 27 1 48 -16 25 -12
-17 -13 -16 -23 2 -6 11 -17 27 -26 35 -12 13 -9 15 29 14 34 0 43 -4 41 -16z
m124 2 c-6 -7 -14 -11 -17 -10 -4 1 -17 -7 -29 -18 -18 -15 -20 -22 -10 -34 9
-12 9 -13 0 -7 -7 4 -13 2 -13 -4 0 -7 -4 -7 -13 2 -14 13 -7 26 37 69 21 20
62 23 45 2z m274 0 c-3 -7 -9 -13 -14 -13 -5 0 -9 6 -9 13 0 8 6 14 14 14 8 0
12 -6 9 -14z m263 -1 c-3 -6 -16 -7 -29 -4 -22 6 -22 6 3 12 28 8 35 6 26 -8z
m-136 -30 c5 -21 11 -62 13 -90 4 -47 2 -52 -17 -53 -19 -1 -18 -2 4 -9 l25
-8 -25 -2 c-18 -2 -20 -4 -7 -7 9 -2 17 -9 17 -14 0 -5 -8 -10 -17 -10 -16 -1
-16 -2 -1 -6 21 -5 19 -43 -2 -44 -10 0 -9 -3 5 -9 11 -5 16 -9 10 -9 -5 -1
-3 -6 5 -11 13 -8 12 -10 -4 -10 -19 0 -19 0 -1 -13 13 -10 15 -16 6 -21 -6
-4 -8 -13 -4 -19 4 -7 -2 -5 -12 3 -10 8 -16 10 -12 3 4 -6 3 -14 -3 -18 -5
-3 -10 0 -11 7 -9 195 -1 378 16 378 2 0 9 -17 15 -38z m477 -45 c13 -30 10
-68 -10 -110 -21 -44 -31 -51 -47 -32 -7 8 -17 12 -24 8 -6 -3 -3 2 6 12 14
15 20 16 32 5 11 -8 16 -9 16 -1 0 6 -4 11 -10 11 -5 0 -10 6 -10 14 0 7 -7
19 -16 26 -8 8 -20 23 -25 34 -6 12 7 3 29 -20 l40 -41 11 36 c8 28 7 40 -5
58 -8 13 -20 21 -26 17 -7 -4 -8 -3 -4 4 9 16 32 5 43 -21z m-955 -40 c-7 -8
-9 -17 -5 -20 3 -4 1 -7 -5 -7 -21 0 -24 21 -6 35 22 16 32 11 16 -8z m403
-63 c-3 -20 -3 -34 2 -31 6 4 8 -81 3 -155 0 -13 -57 -9 -67 5 -6 6 -9 28 -7
47 1 19 -1 41 -6 50 -10 18 5 49 31 68 10 7 17 18 15 25 -1 6 -1 9 1 5 8 -14
23 -9 23 7 0 8 3 15 6 15 3 0 3 -16 -1 -36z m189 -17 c4 4 4 0 1 -9 -4 -9 0
-22 8 -29 12 -11 11 -17 -2 -41 -14 -25 -14 -29 -1 -38 13 -8 13 -10 -1 -10
-12 0 -15 -7 -11 -26 4 -24 2 -25 -29 -22 l-34 3 3 90 c3 116 6 124 36 96 12
-11 26 -18 30 -14z m-768 -52 c4 -8 18 -15 33 -16 24 0 24 -1 6 -10 -16 -8
-15 -8 8 -4 15 3 33 2 40 -2 7 -5 -4 -10 -28 -14 l-40 -6 44 -2 c39 -1 43 1
38 19 -3 11 -1 20 4 20 5 0 9 -8 9 -17 0 -10 3 -29 7 -43 6 -23 5 -24 -11 -10
-22 18 -66 25 -66 10 0 -8 -6 -8 -20 0 -11 6 -19 14 -18 18 3 15 -25 61 -35
55 -6 -3 -7 -1 -3 5 10 17 26 15 32 -3z m496 -66 c-1 -24 4 -50 11 -59 9 -12
9 -13 -3 -2 -8 6 -24 12 -37 12 -18 0 -23 6 -23 26 0 33 31 87 43 75 5 -5 9
-29 9 -52z m327 11 c28 -54 27 -68 -4 -62 -23 4 -25 9 -25 53 0 27 2 49 4 49
2 0 13 -18 25 -40z m-784 -40 c3 -5 11 -10 16 -10 6 0 7 5 4 10 -3 6 1 10 9
10 20 0 66 -21 66 -31 0 -15 -91 -3 -108 14 -9 10 -11 17 -5 17 7 0 15 -4 18
-10z m375 -15 c-7 -8 -19 -15 -27 -15 -10 0 -8 6 8 19 27 22 38 19 19 -4z
m805 5 c0 -10 -11 -15 -36 -16 -32 -2 -36 1 -31 18 3 15 12 18 36 16 20 -2 31
-9 31 -18z m-400 -41 c-4 -6 2 -13 14 -16 17 -4 21 -12 19 -42 l-1 -36 -4 33
c-5 39 -16 41 -30 5 -11 -27 -11 -27 -12 13 -1 22 2 44 6 47 10 11 15 8 8 -4z
m-305 -34 c0 -13 -3 -32 -7 -42 -6 -14 -9 -11 -14 17 l-6 35 -2 -32 c0 -17 -5
-34 -9 -37 -4 -2 -7 10 -6 27 1 25 0 27 -4 7 -5 -25 -5 -25 -12 5 l-8 30 -1
-27 c0 -16 -6 -28 -12 -28 -7 0 -9 10 -7 25 3 14 1 25 -3 25 -5 0 -10 -15 -10
-32 l-2 -33 -7 35 c-6 31 -8 32 -9 8 -2 -40 -21 -45 -22 -6 l-2 33 -4 -30 c-7
-45 -19 -51 -16 -7 2 35 2 36 -6 7 l-9 -30 -2 30 -3 30 -7 -35 -7 -35 -2 33
c0 17 -5 32 -10 32 -4 0 -6 -11 -4 -24 3 -13 0 -27 -6 -30 -7 -5 -11 5 -12 26
l-2 33 -7 -35 -7 -35 -3 35 -3 35 -5 -30 -5 -30 -7 30 -8 30 -1 -27 c0 -16 -5
-28 -11 -28 -5 0 -11 12 -11 28 l-2 27 -4 -27 c-2 -16 -9 -28 -14 -28 -5 0
-10 12 -10 28 -2 24 -2 23 -9 -8 -6 -31 -8 -32 -9 -8 0 15 -6 30 -12 34 -8 4
-9 -1 -4 -16 5 -15 4 -20 -4 -16 -6 4 -11 1 -11 -8 0 -8 -4 -17 -8 -20 -4 -2
-7 10 -6 27 1 18 -1 22 -3 10 -2 -13 -9 -23 -14 -23 -6 0 -7 5 -4 10 3 6 1 10
-4 10 -6 0 -11 -6 -12 -12 -1 -7 -5 -2 -9 12 l-8 25 -2 -25 -2 -25 -8 25 -8
25 -2 -25 -2 -25 -8 25 c-8 24 -8 24 -9 3 -1 -27 -20 -31 -22 -5 -1 15 -2 14
-6 -2 -3 -13 -7 -15 -12 -7 -13 20 -39 1 -52 -37 -11 -33 -13 -34 -25 -17 -20
28 -17 59 9 83 26 25 45 26 365 29 l232 1 0 -23z m168 16 c7 0 11 -14 11 -33
-2 -31 -2 -31 -6 -5 -2 15 -9 27 -15 27 -5 0 -7 -7 -4 -16 3 -8 -2 -24 -12
-34 -17 -19 -18 -18 -15 18 2 36 2 36 -6 7 l-9 -30 -1 28 c0 15 -6 27 -12 27
-6 0 -9 -10 -7 -23 3 -16 0 -24 -9 -24 -10 0 -13 8 -8 24 3 13 1 23 -5 23 -5
0 -10 -12 -10 -26 0 -32 -22 -27 -31 7 -6 21 -7 20 -9 -11 -1 -19 -2 -39 -1
-43 1 -5 -2 -6 -6 -4 -5 3 -7 25 -5 50 l4 44 71 -2 c40 -1 78 -3 85 -4z m82
-24 c0 -41 -29 -48 -31 -8 -1 21 -2 22 -6 6 -9 -36 -23 -41 -23 -8 0 31 1 32
53 42 4 0 7 -14 7 -32z m28 -6 c-1 -22 -5 -38 -10 -35 -12 8 -10 74 2 74 6 0
10 -17 8 -39z m132 3 c0 -19 -5 -34 -11 -34 -5 0 -9 9 -7 20 2 10 -1 18 -7 17
-5 -1 -9 -7 -9 -14 1 -6 -5 -14 -12 -17 -10 -4 -14 4 -14 27 0 29 3 32 30 33
28 1 30 -2 30 -32z m30 -1 c0 -43 -9 -39 -15 6 -2 17 0 31 5 31 6 0 10 -16 10
-37z m30 8 c0 -17 -4 -33 -10 -36 -6 -4 -10 8 -10 29 0 20 5 36 10 36 6 0 10
-13 10 -29z m30 -13 c0 -49 -5 -47 -13 5 -3 20 -2 37 4 37 5 0 9 -19 9 -42z
m330 19 c33 -16 39 -66 11 -91 -19 -17 -19 -17 -14 2 3 12 -3 28 -15 40 -11
11 -18 23 -15 26 4 3 1 6 -5 6 -5 0 -13 -6 -15 -12 -3 -8 -6 -6 -6 5 -1 9 -9
17 -18 17 -15 0 -16 -2 -3 -10 10 -7 12 -12 4 -17 -6 -5 -16 -17 -22 -28 -9
-16 -10 -12 -5 23 3 24 2 42 -4 42 -5 0 -9 -10 -9 -21 1 -12 -5 -24 -11 -26
-8 -3 -13 6 -14 24 l-1 28 -8 -30 -8 -30 -2 30 c-2 22 -4 25 -7 10 -9 -35 -23
-41 -24 -9 l-1 29 -8 -30 -8 -30 -1 28 c0 15 -5 27 -11 27 -16 0 -11 -52 7
-74 9 -12 3 -7 -14 10 -17 17 -33 39 -36 50 -3 11 -5 5 -7 -16 -1 -28 -3 -31
-9 -15 -5 11 -7 23 -5 27 3 4 0 9 -6 13 -6 4 -10 -5 -10 -19 0 -14 -4 -26 -10
-26 -5 0 -10 15 -10 34 l0 34 147 -5 c84 -2 159 -9 173 -16z m-230 -91 c0 -6
-7 -1 -16 10 -13 15 -15 16 -10 2 3 -12 1 -15 -9 -12 -11 5 -12 10 -3 24 11
17 13 17 25 2 7 -9 13 -21 13 -26z m-110 12 c11 -22 10 -22 -4 -4 -11 13 -16
15 -16 6 0 -7 -3 -11 -6 -7 -6 5 3 27 11 27 2 0 9 -10 15 -22z m197 4 c-4 12
-2 15 9 11 7 -3 14 -9 14 -13 0 -13 -29 -20 -36 -9 -3 6 -12 8 -20 5 -8 -3
-11 0 -7 10 5 13 8 12 26 -3 18 -16 20 -16 14 -1z m-1204 -11 c-2 -10 1 -20 9
-23 7 -3 298 -4 645 -4 348 1 633 -2 633 -6 0 -5 -296 -8 -657 -7 -362 0 -652
3 -645 6 6 2 9 9 6 14 -3 6 -3 16 0 24 8 21 15 18 9 -4z m1185 -105 c-9 -38
-7 -118 8 -288 l6 -66 -26 1 c-31 2 -33 12 -6 29 27 17 25 28 -5 28 -16 0 -25
6 -25 15 0 9 7 15 17 13 10 -2 19 5 21 15 3 14 -1 18 -19 15 -12 -2 -24 3 -26
10 -3 7 4 12 16 12 12 0 21 6 21 14 0 9 -7 12 -20 9 -11 -3 -20 0 -20 6 0 6
11 11 25 11 22 0 24 2 15 25 -5 14 -9 29 -8 33 1 4 -4 20 -11 36 -6 16 -12 44
-13 62 -1 26 -4 31 -14 23 -7 -6 -11 -24 -8 -45 3 -23 1 -33 -6 -29 -6 4 -8
11 -5 16 4 5 1 9 -5 9 -7 0 -9 8 -5 21 5 15 4 19 -4 15 -6 -4 -11 -22 -11 -41
0 -51 30 -295 41 -338 10 -36 10 -121 0 -112 -2 3 -6 22 -8 43 -1 20 -10 75
-18 122 -8 47 -19 129 -24 184 -6 54 -15 104 -20 109 -8 8 -11 7 -11 -2 0 -24
-25 -4 -31 25 -4 18 -6 3 -7 -40 0 -75 9 -127 57 -306 42 -160 42 -161 54
-153 6 3 7 1 3 -5 -4 -6 0 -35 8 -64 11 -39 59 -299 68 -367 2 -18 -3 -32 -11
-27 -9 6 -13 24 -41 216 -23 150 -45 240 -61 240 -6 0 -8 4 -5 9 3 4 -8 43
-24 85 -17 43 -39 119 -50 169 -11 51 -27 130 -37 176 -18 83 -18 83 -38 65
-11 -11 -16 -16 -11 -11 14 10 26 9 26 -4 0 -5 -4 -8 -9 -5 -12 8 -33 -19 -23
-29 7 -8 -40 -1 -71 10 -13 6 -16 3 -11 -9 3 -9 17 -19 30 -22 13 -3 24 -11
24 -18 0 -6 5 -3 11 7 6 9 15 15 20 11 6 -4 6 -11 -2 -20 -9 -11 -9 -14 0 -14
7 0 10 -4 6 -9 -3 -5 2 -17 11 -26 9 -9 14 -18 11 -21 -9 -9 -27 6 -27 21 0 8
-22 26 -50 40 -40 21 -50 30 -50 51 0 25 2 25 43 20 30 -4 36 -3 22 3 -11 5
-15 10 -10 10 6 1 3 6 -5 11 -20 13 -33 13 -25 0 3 -6 -5 -10 -19 -10 -18 0
-24 4 -20 15 9 22 81 21 86 -2 3 -14 5 -14 18 3 8 10 11 16 6 12 -10 -8 -41
20 -32 29 3 3 23 6 43 5 37 -2 68 -25 57 -43 -3 -5 -1 -9 5 -9 11 0 11 42 -1
50 -4 3 32 6 80 7 76 1 89 -1 104 -19 15 -18 18 -18 18 -5 0 10 -5 17 -11 17
-5 0 -8 4 -5 8 3 5 11 9 19 9 11 0 12 -8 5 -41z m-1032 21 c3 -3 17 -2 30 3
15 6 24 6 24 0 0 -6 7 -10 16 -10 9 0 12 5 8 12 -5 8 -2 9 10 5 10 -4 25 -7
33 -7 10 0 14 -6 10 -20 -3 -11 -1 -20 4 -20 5 0 9 9 9 19 0 41 35 37 42 -4 2
-15 -3 -20 -25 -21 -15 -2 -34 -10 -43 -18 -20 -21 -31 -20 -37 2 -3 9 -5 -3
-6 -28 -1 -50 -45 -413 -61 -500 -5 -30 -21 -128 -35 -217 -14 -89 -28 -169
-31 -178 -7 -17 -21 -20 -26 -5 -5 13 -88 25 -88 12 0 -6 9 -14 20 -17 20 -6
25 -16 14 -28 -7 -6 -54 13 -54 22 1 12 39 153 43 157 9 9 67 -19 67 -32 0
-16 -5 -17 -29 -5 -9 5 -23 6 -31 1 -10 -6 -4 -12 23 -24 48 -20 47 -30 -3
-23 -47 6 -44 -7 7 -28 19 -8 37 -15 38 -15 2 0 8 39 15 88 11 83 35 234 45
278 4 17 -3 22 -40 32 -26 7 -45 18 -45 26 0 11 6 12 33 2 17 -6 37 -14 43
-18 14 -9 31 62 44 187 6 55 16 148 23 208 7 59 11 109 9 111 -2 3 -14 2 -28
0 -19 -3 -22 -1 -17 13 3 10 2 14 -2 10 -5 -4 -10 -24 -10 -45 -3 -77 -5 -92
-15 -92 -6 0 -8 10 -5 23 3 12 7 43 9 70 3 44 2 47 -18 41 -11 -4 -24 -12 -28
-17 -5 -8 -4 50 1 60 2 4 52 -5 57 -10z m294 3 c12 -7 10 -12 -10 -30 -13 -11
-30 -18 -37 -15 -8 2 -11 0 -8 -5 4 -6 -7 -10 -24 -10 -17 0 -31 -5 -31 -11 0
-6 -10 -8 -22 -5 -13 3 -17 3 -9 0 11 -5 11 -8 0 -16 -10 -6 -7 -7 9 -3 22 6
23 5 17 -32 -14 -76 -90 -352 -101 -362 -10 -9 5 94 25 179 20 81 34 178 32
223 -1 22 3 27 21 27 35 0 51 15 44 38 -6 17 -2 21 21 25 49 7 58 7 73 -3z
m110 -5 c-10 -12 -10 -15 3 -15 8 0 17 5 19 11 3 10 30 12 168 9 46 0 52 -3
39 -13 -14 -11 -17 -56 -21 -375 -2 -199 -1 -362 3 -362 9 0 24 41 21 54 -5
15 9 46 18 41 5 -3 6 -13 3 -23 -6 -15 -4 -15 15 2 12 11 25 16 29 13 8 -8
-77 -101 -95 -103 -11 -2 -13 59 -10 361 1 200 0 367 -4 371 -5 4 -8 1 -8 -7
0 -12 -2 -11 -10 1 -7 10 -8 -141 -4 -455 3 -258 7 -471 9 -473 2 -2 6 18 10
45 15 118 65 195 178 276 75 54 84 70 57 99 -11 12 -20 17 -20 11 0 -6 7 -16
15 -23 8 -7 12 -16 9 -22 -4 -5 -11 -5 -18 1 -7 6 -17 7 -21 3 -5 -4 -5 -2 -2
4 4 7 -10 29 -31 51 -20 21 -52 56 -71 78 -21 25 -28 31 -21 15 7 -14 29 -44
49 -67 70 -81 91 -106 91 -108 0 -2 -12 -10 -26 -20 -25 -16 -25 -16 -14 4 6
12 7 21 2 21 -5 0 -26 23 -46 52 -43 62 -49 52 -6 -12 28 -43 38 -79 24 -93
-7 -7 -44 45 -76 106 -20 40 -35 168 -22 189 3 5 55 -41 116 -100 l111 -109
-26 -44 c-14 -24 -54 -75 -89 -114 -101 -110 -127 -155 -165 -285 -3 -8 -15
19 -29 60 -13 41 -35 93 -48 115 l-25 40 -11 -29 c-6 -16 -8 -31 -6 -34 3 -3
-6 -18 -19 -34 -14 -16 -26 -37 -27 -46 -6 -75 -16 222 -17 531 -1 244 -5 377
-11 377 -5 0 -10 -4 -10 -10 0 -5 -7 -10 -16 -10 -8 0 -13 4 -9 9 3 5 1 12 -5
16 -19 12 -10 24 23 28 17 2 34 5 36 5 2 1 -2 -5 -9 -13z m-60 -40 c0 -8 6
-15 13 -16 10 0 10 -2 0 -6 -7 -2 -13 -11 -13 -20 0 -22 -26 -44 -68 -55 -20
-6 -40 -15 -44 -22 -4 -6 -8 6 -8 26 0 42 4 46 53 52 20 2 43 8 52 13 15 9 15
11 -1 24 -11 9 -15 9 -10 2 5 -9 1 -13 -13 -13 -10 0 -27 -3 -37 -7 -12 -4
-15 -3 -10 5 4 7 16 12 27 12 10 0 19 5 19 10 0 6 9 10 20 10 11 0 20 -7 20
-15z m-374 -77 c-1 -55 1 -63 17 -60 9 2 17 -2 17 -8 0 -5 -9 -10 -20 -10 -11
0 -20 -5 -20 -11 0 -5 4 -8 8 -5 16 10 34 -11 27 -33 -4 -14 -15 -21 -32 -21
-24 0 -25 2 -19 38 3 20 6 67 6 105 0 37 4 67 9 67 5 0 8 -28 7 -62z m55 -9
c-9 -22 -10 -22 -10 -3 -1 11 2 24 6 27 12 12 14 0 4 -24z m969 -19 c0 -5 -6
-10 -12 -10 -9 0 -8 -3 2 -10 8 -5 11 -12 7 -17 -9 -8 -27 15 -27 35 0 6 7 12
15 12 8 0 15 -4 15 -10z m-630 -73 c0 -43 -5 -58 -22 -74 -34 -31 -79 -51
-118 -53 -51 -3 -50 -3 -33 37 8 21 17 49 18 63 1 13 8 26 14 28 6 2 9 7 7 10
-2 4 10 8 27 9 26 1 28 0 12 -7 -25 -10 -50 -38 -41 -47 3 -3 6 -1 6 5 0 6 12
18 28 27 15 9 41 24 57 35 17 10 33 19 38 19 4 1 7 -23 7 -52z m342 24 c26
-17 54 -44 63 -62 16 -29 16 -34 0 -70 -17 -37 -14 -96 4 -85 4 3 14 -7 20
-22 l13 -27 -27 25 c-15 14 -33 39 -40 56 -7 17 -31 44 -53 60 -41 29 -41 29
-39 91 1 35 4 63 8 63 3 0 26 -13 51 -29z m-718 -90 c3 -5 -10 -11 -29 -13
-27 -3 -32 -1 -23 9 12 15 44 17 52 4z m382 -108 c-7 -95 -27 -142 -85 -198
-17 -16 -31 -32 -31 -35 0 -3 25 -32 55 -64 30 -33 58 -69 61 -80 4 -12 10
-23 14 -26 4 -3 10 -25 14 -50 3 -25 3 -38 -1 -30 -39 92 -65 134 -116 187
-33 34 -64 60 -68 57 -5 -3 -6 2 -3 11 5 12 2 14 -12 8 -18 -7 -18 -6 -1 21
10 15 16 30 13 33 -3 3 1 18 9 34 20 38 19 49 -2 20 -9 -13 -17 -35 -19 -48
-1 -13 -8 -31 -15 -39 -11 -14 -2 -26 63 -87 41 -40 83 -85 93 -100 46 -77 70
-218 45 -257 -7 -11 -10 0 -10 38 0 75 -40 148 -144 262 -48 52 -95 106 -106
121 -18 24 -18 25 0 37 14 9 19 8 24 -4 3 -9 1 -12 -4 -9 -18 11 -9 -10 17
-40 25 -29 25 -29 9 -3 -15 26 -15 31 9 89 13 34 23 65 20 69 -3 4 29 34 69
66 41 31 80 68 87 81 7 13 15 23 17 23 3 0 2 -39 -2 -87z m-396 62 c19 -10 30
-23 30 -37 0 -17 -3 -19 -12 -10 -7 7 -22 12 -35 12 -18 0 -23 6 -23 25 0 29
2 30 40 10z m844 -26 c4 -23 14 -55 22 -71 9 -16 17 -39 19 -50 2 -11 7 -28
10 -39 4 -10 4 -19 0 -19 -13 0 -75 152 -75 185 0 48 16 44 24 -6z m-594 -59
c-36 -33 -69 -59 -74 -60 -4 0 -17 -11 -28 -25 -11 -14 -25 -25 -31 -25 -9 0
-9 2 -1 8 6 4 17 18 25 32 15 28 14 24 24 68 9 38 11 39 78 46 27 2 51 7 54
10 4 3 9 6 12 6 3 -1 -23 -27 -59 -60z m-242 13 c12 -3 22 -12 22 -20 0 -11
-7 -13 -32 -8 -43 9 -48 13 -48 32 0 11 5 13 18 8 9 -4 27 -10 40 -12z m1069
-18 c1 -17 0 -25 -3 -18 -3 7 -11 10 -19 7 -16 -7 -29 12 -21 32 10 27 41 12
43 -21z m-1112 -24 c3 -5 19 -12 35 -16 17 -4 30 -13 30 -22 0 -10 -5 -13 -17
-8 -36 15 -53 17 -53 7 0 -6 14 -13 30 -17 32 -7 41 -25 13 -25 -50 1 -63 11
-63 51 0 37 12 51 25 30z m1121 -36 c2 -21 -3 -25 -26 -25 -20 0 -27 5 -26 18
3 38 50 45 52 7z m-878 -27 c-14 -42 -28 -59 -40 -52 -5 3 1 17 13 30 12 13
20 24 18 24 -3 0 -18 -14 -35 -32 -16 -17 -23 -27 -15 -23 9 5 12 4 7 -3 -10
-17 -26 -15 -26 2 0 14 68 86 82 86 4 0 2 -15 -4 -32z m-102 -62 c-1 -21 -8
-31 -26 -38 -20 -7 -22 -7 -13 3 9 9 10 16 1 26 -9 11 -7 15 10 20 12 3 22 10
22 15 0 5 -4 6 -10 3 -12 -7 -13 6 -3 31 6 16 8 15 13 -6 4 -14 6 -38 6 -54z
m820 29 c-3 -13 0 -27 5 -30 5 -4 9 -11 9 -18 0 -6 -6 -2 -14 8 -7 10 -12 26
-11 34 2 9 4 19 4 24 1 4 3 7 6 7 3 0 3 -11 1 -25z m164 0 c0 -20 -5 -25 -25
-25 -14 0 -25 6 -25 13 0 10 8 17 48 36 1 0 2 -10 2 -24z m-702 -66 c-7 -4 -6
-9 1 -13 7 -4 7 -15 1 -30 -5 -13 -6 -26 -4 -29 3 -3 -1 -8 -8 -13 -7 -4 -10
-4 -7 0 4 4 -4 18 -18 32 -28 28 -26 44 8 61 13 7 20 13 16 13 -5 0 -5 5 -1
12 5 8 10 6 14 -8 4 -10 3 -22 -2 -25z m-395 14 c4 -2 7 -11 7 -19 0 -16 -26
-19 -35 -4 -9 15 -35 12 -35 -4 0 -8 14 -17 30 -21 45 -10 38 -29 -7 -20 -21
4 -39 8 -40 9 -1 1 0 19 4 40 6 35 7 37 37 30 17 -3 34 -8 39 -11z m1111 -15
c6 -26 4 -28 -24 -28 -37 0 -42 30 -7 46 12 5 22 10 23 10 1 -1 4 -13 8 -28z
m-178 -54 c8 -20 13 -39 10 -41 -3 -3 -1 -14 5 -24 15 -29 -16 -24 -47 6 -25
26 -26 52 -2 83 15 18 17 16 34 -24z m-792 0 c10 -38 -1 -61 -33 -72 l-28 -10
7 37 c15 74 41 96 54 45z m986 -3 c0 -5 -13 -11 -30 -13 -20 -3 -30 0 -30 9 0
8 12 13 30 13 17 0 30 -4 30 -9z m-1130 -34 c0 -5 -10 -7 -22 -3 -13 3 -31 6
-40 6 -10 0 -18 6 -18 14 0 11 8 11 40 3 22 -6 40 -15 40 -20z m1131 -9 c0 -7
3 -25 5 -40 4 -26 2 -28 -26 -28 -18 0 -29 4 -25 10 3 6 13 10 21 10 8 0 14 5
14 10 0 6 -11 10 -25 10 -29 0 -33 15 -7 29 24 14 42 13 43 -1z m-1142 -14 c2
-2 -12 -4 -32 -4 -20 0 -37 4 -37 10 0 8 58 3 69 -6z m888 -40 c27 -20 51 -42
56 -48 9 -14 29 13 22 32 -2 6 2 12 10 12 19 0 31 -40 14 -51 -7 -4 -17 -5
-21 -3 -11 7 -10 -8 2 -26 9 -13 10 -13 11 0 0 8 7 -5 15 -29 7 -24 11 -48 7
-54 -3 -6 -1 -7 5 -3 7 4 12 1 12 -7 0 -17 -34 -48 -82 -72 -20 -10 -35 -22
-32 -26 2 -4 0 -10 -5 -14 -6 -3 -8 3 -6 15 2 13 -1 20 -11 20 -11 0 -13 -6
-9 -20 3 -11 2 -20 -3 -20 -15 0 -22 26 -10 38 8 8 4 21 -14 44 -14 18 -32 47
-41 63 l-16 30 -1 -26 c0 -56 23 -95 54 -90 5 1 6 -5 2 -14 -3 -9 -6 -22 -6
-28 0 -6 -11 3 -23 21 -13 17 -28 28 -32 24 -5 -4 -6 -2 -3 3 8 14 -10 57 -20
51 -10 -6 -32 36 -32 59 0 19 31 55 42 49 4 -3 8 -14 8 -25 0 -10 6 -19 13
-19 43 0 129 -102 111 -131 -3 -5 -1 -9 3 -9 14 0 33 23 33 40 0 13 -1 13 -10
0 -8 -12 -10 -9 -10 11 0 14 -11 37 -23 51 l-24 26 24 0 c13 0 26 -4 29 -9 3
-5 -3 -6 -13 -2 -10 3 -15 3 -12 -1 8 -9 59 -18 59 -11 0 3 -27 31 -60 62 -33
30 -60 62 -60 70 0 8 -4 11 -10 8 -5 -3 -10 -2 -10 4 0 5 5 13 10 16 6 4 8 11
5 16 -11 17 5 9 52 -27z m-902 5 c5 -6 4 -14 -4 -21 -11 -10 -13 -10 -7 0 5 8
-2 12 -23 12 -21 0 -31 5 -31 15 0 12 7 14 28 9 15 -4 31 -11 37 -15z m247 2
c15 -17 13 -21 -33 -65 -27 -26 -47 -51 -44 -55 2 -5 -2 -8 -11 -7 -19 1 -42
-29 -30 -41 4 -4 13 0 20 9 10 14 15 15 26 5 7 -7 10 -7 7 -1 -4 6 5 17 18 24
13 7 22 18 18 23 -3 6 -1 7 5 3 13 -8 5 -36 -12 -36 -18 -1 -47 -48 -44 -73 2
-18 -2 -22 -24 -22 -16 -1 -28 3 -28 7 0 4 -6 8 -14 8 -7 0 -20 7 -27 17 -15
17 -20 63 -7 63 4 0 8 7 8 16 0 8 5 12 10 9 8 -5 7 -11 -1 -21 -8 -10 -8 -14
0 -14 6 0 11 5 11 11 0 5 4 7 10 4 5 -3 7 0 4 8 -3 8 9 32 27 53 l33 39 -37
-34 c-20 -19 -40 -32 -43 -28 -4 3 0 12 7 19 20 20 123 98 129 98 3 0 13 -8
22 -19z m-130 -25 c7 4 8 2 4 -5 -4 -6 -12 -9 -17 -6 -5 4 -9 1 -9 -4 0 -6 -4
-11 -10 -11 -5 0 -10 7 -10 16 0 8 5 12 10 9 6 -3 10 0 11 7 0 10 2 10 6 0 2
-6 10 -9 15 -6z m-127 -38 c0 -7 -6 -13 -12 -12 -7 1 -24 2 -37 3 -19 1 -22 5
-19 25 5 23 7 24 36 11 18 -7 32 -19 32 -27z m295 7 c-4 -5 -8 -14 -7 -19 1
-5 -8 -11 -21 -13 -22 -3 -22 -2 -8 13 9 8 14 20 11 25 -4 5 1 6 10 3 11 -5
14 -2 9 12 -5 15 -4 16 4 4 6 -8 7 -19 2 -25z m524 10 c-8 -19 0 -19 18 -1 12
11 17 8 36 -20 15 -24 17 -32 7 -28 -8 4 -15 11 -15 18 0 6 -9 12 -20 13 -12
1 -18 -3 -14 -8 3 -6 -3 -5 -14 2 -16 10 -18 16 -10 26 14 17 19 16 12 -2z
m366 -10 c0 -10 -10 -15 -30 -15 -29 0 -38 9 -23 23 13 13 53 7 53 -8z m-839
-86 c-9 -14 -35 -47 -57 -73 -31 -34 -47 -45 -60 -40 -15 5 -16 4 -4 -5 8 -5
11 -14 6 -18 -4 -4 -13 0 -20 9 -8 11 -20 15 -33 12 -11 -3 -23 -2 -26 3 -3 5
3 9 15 9 15 -1 23 7 29 29 8 28 61 85 80 85 5 0 16 14 24 31 l16 31 23 -24
c21 -22 22 -24 7 -49z m257 -69 c12 -25 43 -97 70 -160 30 -71 54 -114 62
-112 7 2 10 -3 7 -12 -4 -9 -2 -18 4 -21 5 -4 7 -11 4 -16 -4 -5 2 -9 11 -9
10 0 14 -3 10 -7 -12 -13 -35 -11 -40 3 -3 8 0 14 6 14 6 0 9 2 6 5 -3 3 -17
1 -32 -5 -18 -6 -25 -6 -21 0 7 11 -4 12 -152 12 -57 -1 -103 4 -103 9 0 13
224 11 255 -3 39 -17 40 -3 6 49 -30 44 -67 117 -118 232 l-19 44 -18 -49
c-25 -67 -92 -200 -120 -238 -12 -17 -23 -42 -24 -55 0 -13 -6 -29 -13 -35 -9
-8 -10 -8 -5 1 3 6 8 24 10 40 3 26 83 220 140 343 14 30 26 69 27 85 1 25 3
21 14 -20 7 -27 22 -70 33 -95z m590 113 c0 -10 3 -35 6 -55 5 -28 4 -38 -6
-38 -7 0 -23 -3 -35 -6 -32 -9 -30 14 2 26 32 12 32 24 0 18 -14 -3 -28 -1
-31 3 -3 5 10 10 28 10 30 2 31 2 6 6 -32 5 -39 39 -10 46 33 9 41 7 40 -10z
m-461 -92 c-1 -27 1 -47 5 -45 4 3 10 -12 14 -32 5 -25 9 -32 15 -22 6 9 9 9
9 1 0 -27 -21 -22 -41 9 -14 23 -19 26 -14 10 5 -19 12 -56 14 -84 1 -5 6 -8
12 -8 8 0 7 6 -2 18 -11 14 -10 13 9 -2 22 -19 31 -43 12 -31 -6 3 -7 -1 -3
-10 5 -13 7 -14 14 -3 5 7 9 9 9 5 0 -4 10 -3 23 3 21 11 21 10 3 -4 -18 -15
-15 -21 9 -16 6 1 5 -4 -2 -10 -7 -7 -23 -9 -41 -5 -38 8 -87 83 -77 116 4 12
7 37 7 58 -1 33 15 101 23 101 2 0 3 -22 2 -49z m-328 -15 c14 -57 14 -133 0
-142 -8 -4 -9 3 -4 25 6 27 4 31 -14 31 -12 0 -21 8 -24 23 -2 12 -3 7 -1 -10
1 -18 -1 -33 -6 -33 -5 0 -6 -7 -3 -17 5 -12 3 -14 -7 -8 -10 6 -12 4 -7 -7 3
-10 -4 -24 -19 -37 l-24 -21 -20 32 c-11 18 -20 38 -20 43 1 12 35 55 44 55
10 0 7 -31 -6 -67 -6 -18 -9 -36 -5 -39 9 -9 38 16 31 27 -3 5 2 16 10 25 18
18 20 36 7 82 -6 18 -6 30 -2 28 4 -3 15 11 24 30 21 43 31 38 46 -20z m361
-2 c0 -8 4 -14 9 -14 5 0 12 -9 16 -19 3 -10 21 -35 40 -56 31 -33 47 -75 28
-75 -5 0 -26 27 -48 59 -22 33 -44 57 -49 53 -5 -3 -6 -1 -3 5 4 6 2 24 -3 42
-5 19 -5 29 1 26 5 -4 9 -13 9 -21z m458 -12 c2 -8 -9 -12 -35 -12 -38 1 -38
1 -13 15 28 16 42 15 48 -3z m-1021 -117 c28 -25 68 -71 88 -102 55 -84 67
-96 77 -81 5 9 7 5 5 -9 -2 -12 -7 -26 -12 -30 -4 -5 -5 -3 -1 4 4 8 -5 17
-27 27 -19 7 -52 36 -73 62 -50 63 -138 147 -192 185 -23 17 -40 35 -36 40 8
14 112 -44 171 -96z m876 68 c12 -61 12 -68 -3 -68 -17 -1 -101 -56 -128 -85
-12 -13 -22 -16 -32 -10 -11 7 -7 16 24 42 64 55 122 110 106 102 -34 -18
-150 -129 -146 -140 5 -13 -86 -104 -103 -104 -6 0 -8 -8 -4 -17 5 -15 3 -14
-10 2 -9 11 -12 21 -7 23 5 2 30 34 55 72 50 75 129 153 191 187 51 28 51 28
57 -4z m160 0 c3 -16 9 -36 12 -46 6 -13 3 -16 -9 -11 -9 3 -23 1 -31 -6 -13
-10 -15 -9 -15 9 0 12 7 24 15 27 22 9 18 22 -7 26 -13 2 -31 -5 -40 -14 -22
-22 -25 -46 -3 -28 12 10 16 9 21 -4 7 -18 -26 -50 -38 -38 -4 4 -8 27 -10 52
-3 42 -1 45 27 51 60 13 72 11 78 -18z m-1330 -2 c21 -8 25 -16 24 -45 -1 -32
-3 -35 -21 -29 -12 4 -29 7 -38 7 -10 0 -18 2 -18 5 0 7 24 71 26 71 2 0 14
-4 27 -9z m77 -5 c0 -8 -4 -17 -9 -21 -12 -7 -24 12 -16 25 9 15 25 12 25 -4z
m124 -55 c39 -33 82 -75 95 -93 14 -18 36 -48 49 -65 21 -28 22 -33 8 -33 -10
0 -15 4 -11 9 14 23 -190 194 -232 194 -14 0 -18 29 -6 40 13 13 25 6 97 -52z
m466 9 c7 -16 15 -28 19 -26 4 3 7 -13 8 -35 1 -21 -3 -41 -8 -44 -5 -4 -9
-16 -9 -28 l0 -22 -13 21 c-40 69 -48 87 -44 97 3 7 12 -5 21 -26 17 -38 36
-45 44 -16 3 11 2 11 -7 -1 -6 -8 -11 -13 -12 -10 0 3 -2 13 -4 23 -2 10 -10
26 -19 36 -9 10 -13 26 -9 39 7 30 18 28 33 -8z m-600 -9 c0 -6 -5 -13 -10
-16 -6 -4 -8 -10 -6 -14 3 -4 -1 -8 -8 -8 -10 0 -10 6 -2 24 11 23 26 31 26
14z m96 -37 c56 -36 170 -141 162 -150 -2 -2 -38 27 -80 64 -78 69 -138 110
-138 94 0 -5 25 -26 55 -46 30 -20 55 -38 55 -41 0 -12 -21 -3 -50 21 -17 15
-33 24 -36 21 -3 -2 10 -15 28 -28 18 -13 49 -34 68 -48 l35 -25 -24 27 c-14
15 -20 27 -15 27 6 0 24 -16 41 -35 l31 -35 -24 0 c-16 0 -54 24 -103 65 -83
68 -100 92 -76 101 8 4 12 10 9 15 -9 16 4 10 62 -27z m1044 -9 c0 -15 -11
-33 -30 -46 -16 -12 -27 -26 -24 -31 3 -5 1 -7 -4 -6 -5 2 -26 -12 -45 -29
-27 -25 -46 -33 -73 -33 -24 0 -34 4 -31 13 2 6 16 11 31 9 17 -2 29 3 32 13
4 9 12 14 20 11 7 -3 18 3 26 12 12 16 11 16 -6 2 -18 -14 -19 -13 -12 5 7 18
5 18 -17 -3 -30 -29 -46 -29 -21 1 l19 22 -22 -19 c-13 -10 -20 -24 -17 -30 2
-6 -1 -4 -7 5 -10 14 -16 11 -45 -20 -18 -20 -34 -31 -34 -25 0 12 62 70 71
67 4 -1 28 16 53 38 48 43 115 80 128 72 5 -2 8 -15 8 -28z m157 9 c-2 -14 2
-39 10 -55 21 -41 14 -83 -14 -87 -25 -4 -30 -21 -10 -42 10 -12 9 -12 -5 -1
-10 7 -18 10 -18 6 0 -5 -3 -5 -6 -2 -4 4 5 24 20 46 24 35 26 42 15 63 -7 13
-12 27 -11 31 1 5 -1 6 -6 3 -12 -7 -54 23 -47 35 9 13 53 11 58 -3 3 -7 6 -3
6 10 1 12 4 22 7 22 4 0 4 -12 1 -26z m-1392 -8 c35 -15 43 -33 59 -128 6 -31
4 -37 -9 -32 -9 4 -15 19 -15 42 0 19 -8 44 -17 55 -10 11 -12 17 -5 13 15 -9
16 6 0 22 -9 9 -14 7 -23 -5 -15 -20 2 -73 23 -73 7 0 10 -4 7 -10 -12 -19
-26 -10 -40 24 -8 19 -19 37 -25 41 -15 9 -12 -26 5 -55 16 -28 18 -40 8 -40
-13 0 -43 60 -43 85 0 12 7 28 15 35 8 7 15 19 15 26 0 17 3 17 45 0z m518 0
c4 -10 1 -13 -8 -10 -7 3 -16 -3 -19 -14 -8 -23 -34 -48 -42 -39 -10 9 25 65
43 70 10 3 19 5 19 6 1 0 4 -6 7 -13z m-445 -24 c6 -18 -15 -14 -22 4 -4 10
-1 14 6 12 6 -2 14 -10 16 -16z m1262 -77 c0 -32 -15 -55 -37 -55 -9 0 -10 6
-3 26 13 33 13 84 0 84 -5 0 -10 -6 -11 -12 0 -7 -4 -4 -8 7 -6 14 -3 24 8 32
13 10 19 6 33 -20 9 -18 17 -46 18 -62z m-689 71 c-1 -3 8 -18 19 -33 24 -32
18 -43 -10 -18 -11 10 -20 29 -20 43 0 14 3 23 6 20 3 -4 5 -9 5 -12z m-500
-33 c13 -17 13 -17 -7 0 -11 9 -26 17 -32 17 -7 0 -12 5 -12 10 0 14 32 -3 51
-27z m354 7 c-9 -18 -13 -40 -10 -53 l7 -22 -17 23 c-15 21 -15 24 5 52 28 39
35 38 15 0z m295 -42 c0 -15 -18 -8 -23 10 -2 9 -8 26 -12 37 -4 11 2 7 14
-10 11 -16 21 -33 21 -37z m100 26 c0 4 5 4 10 1 12 -8 -6 -45 -22 -45 -7 0
-6 5 2 15 10 12 9 16 -3 21 -9 3 -18 13 -22 22 -5 13 -2 13 15 -3 11 -10 20
-15 20 -11z m356 2 c-3 -13 -9 -31 -12 -40 -3 -9 -1 -16 6 -16 6 0 8 -4 5 -10
-7 -11 -55 -13 -80 -4 -13 5 -9 11 19 30 19 13 37 33 41 44 9 29 28 25 21 -4z
m-1059 -72 c7 -6 9 -15 5 -19 -4 -5 0 -6 10 -2 9 3 24 -1 35 -9 10 -9 12 -12
4 -8 -7 3 -17 0 -22 -7 -6 -10 -9 -11 -9 -1 0 6 -5 12 -11 12 -5 0 -8 -4 -4
-9 3 -5 1 -13 -5 -16 -6 -4 -10 -3 -9 2 6 37 -2 53 -30 53 -34 0 -49 15 -58
61 l-6 34 44 -40 c24 -21 49 -44 56 -51z m-82 -40 c4 -24 3 -26 -6 -11 -5 9
-15 15 -20 11 -6 -3 -5 3 2 14 16 25 18 23 24 -14z m915 8 c0 -15 2 -15 11 -2
7 10 9 11 7 2 -5 -20 -21 -16 -30 8 -5 13 -4 19 2 15 6 -3 10 -14 10 -23z
m127 -2 c1 -10 -2 -22 -7 -25 -6 -4 -7 1 -3 11 5 14 3 15 -18 5 -23 -12 -23
-12 -4 4 11 9 19 22 17 28 -2 7 0 9 4 4 4 -4 9 -16 11 -27z m125 1 c2 -7 -5
-15 -15 -16 -14 -3 -16 -1 -7 10 7 8 8 20 4 27 -5 9 -4 10 4 3 6 -5 12 -16 14
-24z m-1259 10 c16 -2 6 -17 -13 -18 -11 -1 -20 3 -20 8 0 6 -5 7 -10 4 -6 -4
-7 -12 -4 -18 4 -7 3 -8 -1 -4 -5 4 -10 13 -11 21 -2 11 12 13 59 7z m342 -11
c6 -1 12 -3 14 -6 2 -2 -7 -1 -19 1 -13 3 -31 -1 -39 -8 -14 -10 -14 -10 -4 4
7 9 9 19 5 24 -4 4 2 3 13 -3 11 -5 25 -11 30 -12z m1030 -74 c0 -60 -14 -67
-16 -8 l-2 37 -7 -40 -7 -40 -2 37 c0 22 5 43 15 52 8 9 16 16 17 16 1 0 2
-24 2 -54z m-807 -16 c-4 -54 -2 -59 16 -62 12 -2 27 4 34 12 12 13 13 12 8
-5 -6 -20 -6 -20 9 -1 11 14 15 16 15 5 0 -12 2 -12 10 1 8 12 10 12 11 -5 0
-11 3 -15 5 -8 3 7 12 9 19 7 16 -7 30 35 22 65 -2 10 0 25 5 32 6 9 8 -5 5
-42 l-3 -56 35 2 c20 0 41 -2 46 -6 18 -13 67 2 61 18 -3 8 -7 27 -7 41 -1 27
-1 27 -9 -3 -8 -28 -8 -28 -7 9 3 58 27 60 27 3 0 -27 6 -52 15 -60 8 -8 11
-18 7 -22 -4 -4 5 0 21 10 15 9 27 13 27 8 0 -6 17 -8 38 -6 20 2 45 3 55 4
19 0 23 14 7 24 -5 3 -10 24 -10 45 0 21 5 42 10 45 6 4 10 -13 11 -42 0 -26
4 -56 8 -66 6 -17 8 -17 19 5 6 13 13 39 15 58 3 19 3 12 2 -17 -1 -50 -1 -51
24 -50 24 2 26 7 31 57 4 46 6 50 11 26 4 -16 3 -42 -1 -57 -8 -26 -6 -28 16
-27 18 2 23 6 18 18 -13 29 -17 90 -5 90 6 0 11 -18 11 -42 0 -24 4 -48 8 -55
10 -16 72 -24 72 -10 0 7 16 -17 35 -52 19 -35 41 -71 50 -81 8 -9 15 -22 15
-28 0 -6 8 -16 18 -21 26 -16 -1 -13 -41 4 -37 15 -77 58 -77 81 0 23 14 15
38 -21 12 -19 27 -35 33 -35 6 0 0 14 -13 31 -13 17 -28 40 -34 51 -9 15 -13
16 -18 6 -3 -7 -4 -3 -2 10 2 12 0 20 -5 16 -5 -3 -9 -13 -9 -23 0 -12 -14
-24 -40 -34 -22 -8 -38 -11 -35 -6 7 11 3 11 -19 3 -9 -3 -13 -11 -10 -16 4
-6 1 -8 -7 -6 -8 3 -22 -2 -33 -11 -17 -15 -18 -15 -12 5 4 12 0 28 -10 40
-15 19 -15 19 -6 -1 5 -11 9 -40 7 -65 -1 -24 2 -52 8 -62 9 -13 8 -21 -1 -30
-11 -11 -12 -10 -7 3 4 11 0 15 -16 15 -18 -1 -23 5 -23 24 0 14 4 31 8 38 4
7 3 19 -3 26 -6 7 -10 20 -8 27 2 8 2 10 -1 5 -3 -5 -11 2 -19 15 -14 24 -14
22 4 -31 3 -8 -6 3 -21 25 -28 44 -35 32 -10 -17 11 -20 14 -45 11 -70 -6 -48
-10 -52 -39 -45 -22 6 -23 9 -17 69 3 35 9 71 13 81 5 10 4 17 -3 17 -6 0 -11
-6 -11 -12 0 -10 -3 -9 -9 1 -5 7 -14 10 -21 6 -7 -4 -14 1 -17 15 -5 18 -11
21 -38 17 -40 -5 -57 -15 -50 -28 4 -5 -4 -9 -17 -9 -13 0 -41 -9 -63 -20 -41
-21 -61 -27 -35 -10 13 8 13 10 -1 10 -9 0 -24 11 -33 25 -9 14 -21 23 -26 20
-6 -4 -10 1 -10 10 0 12 -4 13 -17 6 -10 -5 -22 -10 -28 -11 -5 -1 -9 -6 -7
-11 1 -5 -5 -9 -13 -9 -7 0 -18 -8 -24 -17 -9 -17 -15 -16 -88 10 -68 24 -84
26 -109 16 -16 -6 -44 -12 -63 -13 -44 -1 -69 -35 -75 -101 -2 -27 -2 -44 1
-37 2 6 9 12 14 12 5 0 4 -9 -3 -19 -7 -11 -15 -18 -19 -15 -4 2 -9 -1 -11 -8
-3 -7 -12 3 -21 21 -19 37 -22 55 -7 31 6 -10 10 -11 10 -2 0 6 -18 30 -39 51
-30 30 -45 38 -62 34 -15 -4 -20 -3 -15 5 7 11 -6 17 -28 13 -5 -1 -4 4 2 12
10 11 9 17 -3 27 -16 13 -18 10 -16 -35 2 -38 -68 -115 -105 -115 -13 0 -24 3
-24 6 0 3 16 25 36 49 19 24 36 47 37 52 1 4 6 7 11 5 5 -2 6 4 2 13 -3 9 -2
14 2 11 5 -3 16 9 26 27 10 18 11 25 4 15 -10 -12 -19 -13 -31 -7 -11 7 -17 7
-17 0 0 -5 8 -12 18 -14 16 -4 16 -5 0 -6 -10 0 -22 7 -27 17 -9 16 -6 19 22
18 l32 -1 0 58 c0 31 3 57 7 57 5 0 8 -24 8 -54 0 -39 4 -55 15 -60 8 -3 15
-1 15 3 0 10 19 9 37 -2 9 -6 11 -3 6 10 -6 16 -5 16 10 4 30 -24 47 -6 47 49
0 31 4 50 11 50 8 0 10 -17 6 -53 -5 -52 -5 -53 21 -53 15 0 30 4 34 10 5 8 8
7 8 -1 0 -6 12 -10 28 -8 15 2 33 -2 41 -9 17 -13 15 -13 32 0 8 7 44 11 87 9
47 -1 72 2 72 9 0 7 3 7 8 1 11 -16 34 -17 43 -3 5 7 9 34 9 61 0 26 3 47 6
47 4 0 4 -27 2 -60z m102 15 c0 -25 -4 -45 -10 -45 -5 0 -10 20 -10 45 0 25 5
45 10 45 6 0 10 -20 10 -45z m280 -7 l-5 -53 -3 43 c-4 48 -22 48 -22 -1 0
-18 -5 -39 -11 -47 -9 -12 -10 -12 -5 3 3 10 6 36 6 57 0 32 4 39 23 43 12 2
22 5 22 6 0 0 -2 -23 -5 -51z m280 0 l-4 -53 -6 45 c-3 25 -1 48 5 52 6 4 10
8 10 8 0 0 -2 -24 -5 -52z m31 -45 c-8 -14 -10 -7 -11 33 0 28 3 54 8 58 11
12 14 -72 3 -91z m39 41 c0 -28 -4 -43 -10 -39 -5 3 -10 26 -10 51 0 28 4 43
10 39 6 -3 10 -26 10 -51z m30 0 c0 -24 -4 -44 -10 -44 -5 0 -10 23 -10 51 0
31 4 48 10 44 6 -3 10 -26 10 -51z m-1397 -18 c3 -30 1 -43 -4 -35 -5 8 -8 34
-8 59 1 53 6 44 12 -24z m24 -3 c-2 -16 -4 -5 -4 22 0 28 2 40 4 28 2 -13 2
-35 0 -50z m49 43 c3 -14 4 -33 1 -43 -3 -10 -6 -3 -7 17 l-3 35 -7 -35 -7
-35 -2 43 c-1 45 15 57 25 18z m63 -36 c1 -18 -2 -21 -8 -11 -7 11 -9 11 -14
0 -3 -8 -6 2 -6 22 -1 20 2 39 6 43 9 9 21 -21 22 -54z m20 13 l-1 -48 -8 40
c-7 37 -5 55 6 55 2 0 3 -21 3 -47z m41 5 c0 -28 -3 -38 -9 -29 -7 11 -9 11
-14 0 -3 -8 -6 5 -6 29 -1 31 3 42 14 42 11 0 15 -11 15 -42z m17 -25 c-2 -16
-4 -5 -4 22 0 28 2 40 4 28 2 -13 2 -35 0 -50z m50 0 c-2 -16 -4 -5 -4 22 0
28 2 40 4 28 2 -13 2 -35 0 -50z m34 55 c0 -10 2 -10 6 0 2 6 11 12 19 12 10
0 14 -12 14 -40 0 -22 -5 -40 -10 -40 -7 0 -9 15 -6 38 l5 37 -13 -40 c-12
-34 -15 -36 -16 -15 l-2 25 -8 -25 c-7 -21 -8 -19 -9 18 -1 23 4 42 9 42 6 0
10 -6 11 -12z m69 -22 c0 -19 -4 -38 -10 -41 -6 -4 -10 10 -10 34 0 23 5 41
10 41 6 0 10 -15 10 -34z m59 -10 l-2 -41 -7 35 -7 35 -2 -35 c-2 -29 -4 -31
-10 -15 -8 19 -9 18 -13 -5 -3 -16 -6 -8 -7 21 -1 43 1 47 24 47 23 0 25 -4
24 -42z m31 9 c0 -19 -4 -35 -10 -35 -5 0 -10 16 -10 35 0 19 5 35 10 35 6 0
10 -16 10 -35z m40 3 c0 -56 -17 -67 -21 -14 -3 32 0 46 8 46 8 0 13 -13 13
-32z m30 23 c0 -5 3 -23 6 -40 6 -26 4 -30 -10 -25 -18 7 -23 74 -6 74 6 0 10
-4 10 -9z m31 -44 c-4 -61 -11 -59 -11 3 0 29 3 50 7 46 4 -4 6 -26 4 -49z
m38 6 c0 -27 -3 -42 -6 -35 -2 6 -10 9 -15 5 -8 -4 -9 2 -5 18 4 13 7 32 7 42
0 9 5 17 10 17 6 0 10 -21 9 -47z m18 -15 c-2 -13 -4 -3 -4 22 0 25 2 35 4 23
2 -13 2 -33 0 -45z m53 15 c0 -35 -3 -44 -10 -33 -13 20 -13 80 0 80 6 0 10
-21 10 -47z m40 11 c0 -19 -4 -33 -9 -30 -5 4 -12 0 -14 -6 -3 -7 -6 3 -6 23
-1 20 2 39 6 42 15 15 23 5 23 -29z m60 -11 c0 -25 -2 -44 -4 -42 -8 10 -13
89 -5 89 5 0 9 -21 9 -47z m70 15 c0 -18 -5 -40 -10 -48 -7 -11 -10 -2 -10 33
0 26 5 47 10 47 6 0 10 -15 10 -32z m29 -15 c-1 -53 -6 -49 -11 10 -2 20 0 37
4 37 4 0 8 -21 7 -47z m33 7 c-2 -22 -8 -40 -13 -40 -5 0 -9 18 -9 40 0 26 5
40 13 40 9 0 11 -12 9 -40z m68 -1 c0 -24 -4 -38 -10 -34 -5 3 -10 22 -10 41
0 19 5 34 10 34 6 0 10 -18 10 -41z m80 -14 c-4 -25 -11 -49 -15 -53 -5 -4 -5
1 -2 11 4 10 7 37 7 58 0 22 4 38 8 35 5 -3 6 -26 2 -51z m40 23 c0 -18 -5
-40 -10 -48 -7 -11 -10 -2 -10 33 0 26 5 47 10 47 6 0 10 -15 10 -32z m60 -7
c0 -22 -4 -43 -10 -46 -6 -4 -10 12 -10 39 0 25 5 46 10 46 6 0 10 -18 10 -39z
m47 -28 c-2 -16 -4 -5 -4 22 0 28 2 40 4 28 2 -13 2 -35 0 -50z m220 -40 c-9
-2 -15 -8 -13 -12 3 -4 1 -12 -3 -19 -5 -9 -11 -6 -18 10 -9 21 -8 23 21 24
17 1 23 -1 13 -3z m-684 -83 c8 -11 17 -17 21 -13 4 4 4 -1 0 -11 -7 -17 -8
-17 -19 -2 -20 26 -43 19 -50 -15 -6 -28 -9 -30 -22 -16 -14 14 -13 18 6 46
26 36 44 39 64 11z m-351 1 c-15 -9 -33 -77 -26 -96 3 -7 16 -18 30 -25 26
-14 17 -30 -18 -30 -22 0 -39 58 -31 108 6 38 17 52 43 52 12 0 12 -2 2 -9z
m181 -36 c96 -43 99 -44 155 -34 31 6 97 26 146 45 92 36 121 41 131 24 4 -6
11 -7 17 -4 6 4 8 2 4 -4 -3 -6 -2 -13 4 -17 5 -3 10 -13 10 -21 0 -9 -12 -3
-32 18 -20 21 -29 26 -25 14 6 -15 5 -16 -6 -8 -9 8 -43 0 -127 -30 -63 -22
-128 -40 -145 -39 l-30 1 22 -19 c22 -18 22 -19 3 -24 -11 -3 -18 -2 -15 3 11
17 -67 61 -215 121 -35 14 -40 18 -20 18 14 1 69 -19 123 -44z m16 -69 c14
-14 32 -26 40 -26 11 1 7 9 -14 26 l-30 26 31 -16 c36 -17 71 -54 42 -43 -10
3 -20 3 -22 -2 -3 -4 -23 -8 -44 -9 -31 -1 -49 6 -86 34 -26 20 -49 34 -51 32
-11 -12 19 -48 50 -58 37 -12 42 -32 10 -38 -10 -2 -15 0 -11 6 3 6 -8 15 -25
21 -17 6 -33 19 -36 30 -3 10 -14 22 -25 24 -17 5 -19 11 -13 34 13 53 21 55
93 19 37 -19 78 -46 91 -60z m-381 27 c24 -27 23 -53 -5 -85 -24 -28 -51 -28
-83 -1 -38 31 -39 66 -3 99 31 29 57 25 91 -13z m801 28 c8 -5 10 -14 6 -21
-6 -10 -10 -9 -17 3 -5 9 -15 14 -23 11 -8 -4 -15 -1 -15 5 0 13 29 14 49 2z
m330 -17 c18 -23 19 -29 7 -53 -20 -37 -51 -63 -72 -59 -25 4 -57 63 -49 88 7
21 49 49 77 50 9 0 26 -12 37 -26z m-412 -41 c-5 -32 -12 -61 -16 -65 -3 -4
-43 8 -88 26 l-81 33 51 18 c29 10 57 20 63 22 6 2 14 -6 17 -17 5 -18 2 -21
-14 -17 -13 4 -19 1 -16 -6 3 -7 10 -11 17 -9 8 2 10 -3 6 -13 -5 -13 -2 -14
15 -4 20 10 21 21 4 61 -5 12 0 18 17 21 13 2 26 5 29 6 3 0 2 -25 -4 -56z
m93 11 c0 -16 -23 -44 -35 -44 -18 0 -20 21 -3 38 12 12 38 17 38 6z m-988
-50 c35 -18 55 -53 37 -65 -9 -5 -21 3 -36 24 -23 31 -60 53 -71 42 -3 -3 0
-5 6 -5 17 0 72 -50 72 -66 0 -26 -29 -27 -50 -3 -25 31 -26 47 0 24 11 -10
22 -16 25 -13 3 3 -6 13 -20 22 -14 9 -25 14 -25 10 0 -4 -6 -1 -14 5 -15 13
-49 4 -40 -10 3 -5 1 -9 -5 -9 -5 0 -11 6 -14 13 -2 6 -7 9 -11 6 -3 -3 6 -16
20 -30 18 -17 23 -19 18 -6 -11 29 4 19 20 -15 21 -41 20 -45 -4 -23 -21 19
-28 7 -8 -13 9 -9 9 -12 -1 -12 -7 0 -9 -5 -5 -12 5 -7 3 -8 -6 -3 -10 6 -12
4 -7 -8 4 -11 2 -14 -9 -10 -13 5 -12 8 3 26 10 11 12 17 5 13 -9 -5 -24 1
-40 15 -32 28 -67 49 -83 49 -7 0 0 -9 14 -20 14 -11 30 -20 35 -20 15 0 24
-18 13 -25 -5 -3 -26 9 -46 27 -30 26 -38 29 -46 17 -5 -8 -8 -21 -8 -29 0
-11 2 -10 8 3 6 17 8 17 25 -1 21 -24 7 -37 -28 -28 -73 18 0 94 132 137 59
19 97 17 144 -7z m1599 -21 c74 -37 119 -76 119 -103 0 -20 -23 -21 -42 -2 -8
8 -8 15 0 25 9 11 7 16 -14 26 -31 14 -44 7 -44 -24 0 -12 -6 -25 -14 -28 -13
-5 -13 0 0 35 18 52 12 60 -10 13 -9 -19 -19 -35 -21 -35 -9 0 9 65 19 72 7 5
4 8 -6 8 -12 0 -18 -8 -18 -21 0 -11 -4 -18 -9 -15 -4 3 -6 -5 -4 -18 3 -13 0
-27 -6 -30 -7 -5 -11 5 -12 26 l-1 33 -8 -30 c-5 -19 -8 -23 -9 -11 -1 20 -1
20 -16 0 -9 -12 -14 -14 -15 -6 0 7 -4 10 -10 7 -5 -3 -11 2 -11 12 -1 17 -2
17 -6 0 -3 -13 -10 -16 -21 -12 -10 4 -21 8 -27 9 -5 1 -21 8 -34 15 -17 9
-20 15 -11 21 9 6 9 9 1 15 -7 4 -18 1 -26 -5 -16 -13 -20 -3 -7 17 34 53 161
56 263 6z m-721 -39 c83 -34 144 -64 251 -125 90 -52 154 -74 129 -45 -7 9
-17 13 -23 9 -5 -3 -7 -1 -3 5 3 5 0 12 -6 15 -7 2 -10 8 -5 12 4 5 13 0 20
-10 13 -16 14 -16 20 -1 4 9 11 16 17 16 6 0 8 -6 4 -12 -5 -9 -2 -8 10 1 12
10 14 16 5 21 -8 6 -8 9 1 15 14 9 24 0 44 -39 l15 -29 18 31 c10 18 21 32 25
32 9 0 -23 -62 -37 -72 -5 -4 -6 -10 -2 -14 4 -4 15 3 26 14 10 12 26 22 35
22 9 0 16 8 17 18 0 12 2 13 6 3 3 -8 -3 -21 -13 -29 -18 -14 -18 -14 3 -9 13
3 25 1 28 -4 10 -16 35 3 35 27 0 28 -8 30 -27 7 -13 -17 -14 -16 -10 5 4 16
1 22 -13 22 -10 0 -21 -8 -23 -17 -3 -11 -5 -7 -6 10 -1 18 -6 27 -17 27 -9 0
-51 16 -93 36 -100 47 -278 83 -319 64 -17 -8 -22 -14 -14 -17 8 -3 19 0 25 6
14 14 37 14 37 1 0 -5 -7 -7 -15 -4 -8 4 -15 2 -15 -4 0 -17 30 -23 36 -7 4 8
11 15 17 15 7 0 7 -4 -1 -12 -21 -21 -13 -32 9 -12 22 19 22 19 10 -3 -6 -13
-8 -23 -3 -23 5 0 14 10 21 23 l11 22 -6 -24 c-4 -16 -3 -21 5 -17 6 4 11 15
12 24 0 10 6 5 14 -13 13 -27 14 -27 15 -7 0 12 4 22 9 22 6 0 6 -12 0 -32
-12 -45 -12 -45 16 -50 25 -5 29 0 26 35 -1 9 3 17 9 17 6 0 9 4 6 9 -4 5 3 7
14 4 11 -3 20 -13 20 -22 0 -13 -2 -13 -9 -3 -6 10 -10 7 -13 -12 -3 -14 -1
-26 3 -26 5 0 9 5 9 10 0 6 4 10 9 10 6 0 9 -9 8 -19 -1 -16 -5 -17 -24 -10
-17 6 -25 5 -29 -5 -8 -22 -64 3 -65 29 0 19 -1 19 -8 1 -4 -11 -10 -15 -14
-10 -3 6 -2 16 4 24 14 23 10 37 -5 17 -14 -18 -16 -17 -68 6 -29 13 -61 27
-70 30 -15 5 -23 47 -8 45 3 -1 13 2 23 7 35 15 218 -25 337 -74 148 -61 278
-106 297 -103 2 1 16 -3 33 -8 18 -5 32 -5 36 1 3 5 10 7 15 3 6 -4 3 -14 -7
-26 -18 -19 -19 -19 -32 -1 -13 16 -14 16 -9 1 4 -10 1 -18 -5 -18 -7 0 -6 -5
2 -15 11 -13 10 -14 -5 -9 -12 5 -16 4 -11 -4 3 -6 2 -13 -3 -16 -5 -4 -12 -2
-16 4 -4 6 -12 7 -18 3 -21 -13 -35 -11 -56 8 -20 19 -21 19 -22 2 0 -16 -1
-16 -9 2 -6 15 -9 16 -9 4 -1 -11 -10 -15 -38 -13 -21 1 -41 -4 -45 -10 -5 -8
-8 -7 -8 2 0 7 -4 10 -10 7 -5 -3 -10 -2 -10 3 0 12 -38 8 -51 -5 -7 -7 -22
-8 -38 -4 -14 5 -33 6 -41 4 -13 -4 -13 -3 0 6 8 6 13 11 10 12 -57 10 -110
29 -110 39 0 4 -9 6 -19 3 -13 -3 -24 2 -33 16 -7 12 -17 21 -21 21 -5 0 -63
27 -130 59 -168 81 -240 104 -297 96 -66 -10 -438 -184 -423 -198 3 -4 -3 -7
-15 -7 -12 0 -22 -5 -22 -11 0 -5 -3 -8 -7 -6 -5 3 -18 1 -30 -4 -16 -6 -21
-14 -17 -26 5 -17 5 -17 -5 -1 -8 12 -23 16 -51 15 -22 -1 -40 -4 -40 -7 0 -3
-9 -6 -19 -6 -11 0 -17 4 -15 8 3 4 0 8 -5 8 -6 0 -11 -4 -11 -10 0 -5 -7 -7
-16 -3 -9 3 -20 0 -25 -8 -7 -11 -9 -11 -9 -1 0 10 -9 12 -32 7 -26 -5 -30 -4
-18 5 13 10 12 11 -3 6 -10 -3 -24 -6 -30 -6 -7 0 -6 -4 3 -10 12 -7 10 -9 -7
-8 -14 2 -19 7 -16 18 3 11 1 10 -10 -3 -10 -12 -16 -14 -19 -6 -3 9 -9 9 -26
0 -18 -10 -23 -8 -33 10 -9 17 -8 20 3 16 7 -2 12 -10 10 -16 -1 -7 2 -10 8
-6 8 5 8 11 1 19 -6 7 -9 15 -6 17 2 3 -7 5 -21 4 -15 0 -31 -9 -37 -20 -16
-26 -32 -28 -49 -7 -12 15 -11 16 5 3 12 -9 17 -10 17 -2 0 7 5 9 10 6 6 -3
10 0 10 8 0 8 -8 14 -17 13 -15 -1 -18 7 -17 37 1 28 -2 37 -12 33 -8 -3 -11
0 -7 10 3 7 12 14 20 14 8 0 11 5 7 11 -3 6 8 3 26 -6 17 -9 39 -14 48 -10 22
8 82 -26 82 -47 0 -28 -3 -32 -27 -34 -15 -2 -23 4 -26 19 -2 12 -3 7 -3 -12
1 -19 8 -37 15 -39 9 -3 11 0 7 7 -8 12 33 9 54 -4 6 -3 13 1 17 11 4 10 0 20
-10 26 -25 13 -21 45 6 53 34 10 227 84 272 105 81 36 240 56 270 34 22 -16
23 -15 -36 -47 -26 -13 -56 -31 -68 -39 -33 -23 -63 -18 -67 12 -4 25 -3 25
12 5 16 -19 16 -19 12 8 -3 15 -1 27 3 27 5 0 10 -12 10 -27 l1 -28 7 30 c4
20 9 26 14 18 5 -7 5 -18 1 -25 -4 -7 -3 -8 5 -4 7 5 9 16 5 29 -6 21 -6 21
13 5 24 -22 37 -23 29 -3 -5 14 4 19 31 16 6 -1 15 4 19 10 5 9 -5 10 -37 6
-91 -12 -163 -27 -172 -36 -5 -5 -16 -7 -23 -4 -9 3 -14 -3 -15 -18 0 -19 -2
-20 -7 -7 -6 15 -10 15 -37 4 -16 -8 -39 -17 -49 -20 -13 -5 -16 -10 -9 -17 7
-7 -1 -21 -25 -45 -18 -18 -35 -34 -37 -34 -1 0 -2 12 -2 26 0 14 3 21 6 15 5
-8 15 -5 31 9 37 32 -1 36 -61 6 -29 -14 -56 -23 -60 -20 -5 3 -9 -3 -9 -13 0
-10 -3 -29 -5 -43 -3 -14 -3 -19 1 -12 3 6 10 10 15 6 5 -3 9 0 9 6 0 8 10 9
30 5 29 -6 42 6 20 20 -5 3 -10 14 -9 23 0 13 3 11 9 -5 5 -12 18 -27 29 -32
16 -9 22 -8 30 6 6 10 11 12 11 6 0 -7 5 -13 11 -13 6 0 8 9 4 20 -5 14 -2 20
9 20 21 0 20 -19 -1 -42 -17 -19 -5 -26 13 -8 8 8 15 6 23 -4 13 -16 32 -12
71 14 14 10 30 15 36 13 6 -2 60 26 120 63 60 36 126 75 147 86 45 22 149 55
192 60 40 5 126 -15 205 -48z m-941 1 c13 -20 21 -38 18 -42 -9 -8 -38 17 -32
27 3 4 -2 13 -10 20 -8 7 -15 16 -15 21 0 18 16 8 39 -26z m876 -44 c42 -14
88 -36 190 -91 103 -56 117 -80 47 -80 -26 0 -33 3 -25 11 13 13 6 42 -8 33
-5 -3 -7 -9 -4 -14 7 -11 -45 -46 -65 -44 -8 0 -23 4 -33 9 -9 4 -23 3 -30 -3
-19 -15 -60 -7 -69 14 -7 16 -8 14 -5 -7 3 -22 0 -25 -20 -21 -28 5 -29 16 -2
43 21 21 35 17 66 -21 11 -13 12 -13 13 3 0 14 6 16 39 11 43 -7 75 6 92 38
10 19 9 20 -12 16 -13 -3 -31 -9 -41 -12 -11 -5 -18 -1 -23 13 -3 12 -11 19
-16 16 -5 -4 -9 1 -9 9 0 8 -6 14 -12 12 -7 -1 -10 -1 -5 1 12 8 8 21 -9 27
-10 4 -25 -1 -35 -10 -16 -15 -17 -14 -15 3 2 14 -9 22 -48 35 -28 9 -57 17
-65 17 -7 1 -36 -19 -63 -44 -38 -34 -57 -45 -78 -43 -34 3 -31 13 7 23 31 7
83 42 83 55 0 10 -45 -4 -129 -40 -46 -20 -52 -26 -47 -47 7 -25 -2 -30 -24
-10 -8 6 -6 1 5 -12 20 -24 20 -24 0 -13 -27 16 -55 38 -55 45 0 10 137 72
210 93 79 23 72 24 195 -15z m848 -1 c-6 -24 -26 -21 -31 3 -2 11 3 17 16 17
15 0 19 -5 15 -20z m-1438 -75 c5 -15 4 -16 -3 -6 -5 7 -14 11 -19 8 -5 -3
-15 -2 -23 4 -12 7 -12 9 3 9 10 0 15 4 12 10 -4 6 -13 5 -25 -2 -12 -8 -15
-15 -9 -19 6 -4 8 -16 4 -28 -3 -12 -11 -19 -16 -15 -6 3 -8 12 -5 20 3 7 1
16 -4 19 -15 9 -12 25 5 25 8 0 15 5 15 11 0 5 5 7 10 4 6 -3 10 0 10 7 0 9 3
9 10 -2 8 -13 10 -12 10 3 0 9 -6 17 -12 17 -9 0 -8 4 2 10 12 7 16 3 21 -23
4 -18 10 -41 14 -52z m15 67 c0 -10 5 -23 11 -29 7 -7 6 -12 -5 -16 -11 -5
-16 -1 -16 12 0 11 -3 26 -6 35 -3 9 -1 16 5 16 6 0 11 -8 11 -18z m947 -12
c-6 -16 -13 -27 -15 -25 -7 7 8 55 17 55 5 0 4 -13 -2 -30z m420 -39 c-4 12 0
15 19 11 13 -2 31 1 39 8 13 11 14 10 9 -6 -4 -10 -3 -16 1 -11 5 4 17 0 27
-10 17 -15 18 -15 19 3 0 18 1 18 8 -1 10 -23 4 -38 -10 -29 -5 3 -17 0 -26
-8 -14 -11 -16 -11 -8 1 6 11 4 13 -8 8 -12 -4 -15 -1 -12 16 4 20 3 21 -9 5
-15 -20 -31 -25 -20 -5 6 9 5 9 -8 -1 -13 -10 -20 -8 -42 14 -14 15 -26 32
-26 38 0 6 12 -2 26 -19 14 -16 23 -23 21 -14z m-875 -3 c27 -29 28 -34 16
-56 -7 -14 -23 -29 -36 -35 -20 -9 -27 -6 -54 20 l-31 31 29 36 c16 20 33 36
37 36 5 0 22 -14 39 -32z m100 -6 c13 2 23 -2 24 -9 1 -7 2 -20 3 -29 1 -10 7
-14 16 -11 8 4 17 2 20 -2 2 -5 -4 -11 -14 -14 -12 -3 -22 1 -25 9 -3 8 -10
14 -16 14 -6 0 -9 -4 -6 -9 4 -5 -3 -7 -13 -4 -11 3 -17 11 -14 19 2 7 -7 24
-21 37 -14 13 -22 27 -18 31 3 4 14 -2 24 -14 11 -13 26 -20 40 -18z m-705
-28 c13 -28 10 -44 -8 -44 -6 0 -8 8 -4 19 3 12 0 21 -10 25 -18 7 -20 26 -2
26 6 0 17 -12 24 -26z m281 -15 c18 -28 2 -45 -26 -30 -10 6 -22 8 -24 5 -3
-2 -11 3 -19 13 -9 11 -10 14 -1 9 6 -4 12 -3 12 3 0 8 10 13 40 20 3 0 11 -9
18 -20z m146 1 c-12 -5 -25 -13 -29 -19 -3 -6 -13 -11 -21 -11 -8 0 -12 5 -9
11 8 12 44 28 65 28 8 0 5 -4 -6 -9z m-214 -58 c0 -5 -6 -15 -14 -21 -11 -10
-21 -9 -42 2 -22 12 -24 15 -10 20 9 4 15 3 12 -2 -8 -12 18 -21 34 -11 7 4 9
13 5 20 -6 9 -10 9 -17 -1 -8 -11 -9 -10 -4 3 3 10 1 20 -5 23 -5 4 -7 11 -3
16 6 10 44 -32 44 -49z m285 36 c3 -3 1 -9 -6 -14 -8 -4 -10 -3 -5 4 9 14 -6
16 -20 2 -10 -10 -57 -2 -50 9 5 8 73 8 81 -1z m-865 -55 c0 -26 -16 -12 -18
15 -1 21 0 23 8 12 5 -8 10 -21 10 -27z m860 25 c14 0 19 -3 11 -5 -11 -5 -11
-7 0 -15 10 -6 7 -7 -9 -3 -32 9 -147 9 -162 0 -6 -4 -10 -18 -7 -31 l4 -24
-131 -1 c-230 -2 -689 1 -692 4 -2 1 1 9 6 16 5 9 15 11 26 6 21 -8 580 -9
594 0 5 3 12 0 16 -6 4 -8 9 -7 15 2 8 12 11 11 20 -1 8 -11 12 -12 16 -3 3 8
14 11 30 7 18 -5 24 -3 19 4 -8 13 20 6 42 -11 6 -5 12 -6 13 -1 0 5 2 17 4
27 3 15 1 16 -11 6 -10 -8 -14 -8 -14 0 0 6 0 14 0 18 0 4 16 7 35 7 19 0 35
3 35 6 0 3 26 4 58 2 31 -2 68 -4 82 -4z m550 -3 c4 3 10 -4 13 -14 4 -16 -1
-18 -42 -15 -25 1 -47 3 -49 3 -2 1 4 8 13 17 8 9 22 13 30 10 8 -3 15 0 16 7
0 9 2 9 6 -1 2 -6 8 -10 13 -7z m-507 -52 c-6 -16 -4 -16 9 -5 13 11 21 11 39
1 17 -9 24 -9 27 -1 2 8 10 9 20 3 19 -9 204 -7 220 3 5 3 12 -1 16 -9 3 -8 2
-16 -2 -17 -4 -2 -63 -3 -132 -2 -279 2 -390 6 -390 15 0 15 27 21 47 11 10
-5 27 -6 38 -2 11 4 26 3 34 -4 11 -8 13 -8 7 1 -5 10 -1 11 18 4 18 -7 28 -6
36 5 16 19 21 18 13 -3z m684 -3 c180 0 347 2 370 4 49 5 82 -18 38 -26 -18
-4 -25 -1 -25 11 0 14 -2 14 -9 1 -10 -15 -62 -16 -277 -10 -50 1 -97 0 -103
-4 -6 -4 -11 -4 -11 1 0 4 -18 8 -40 8 -22 0 -40 -2 -40 -5 0 -3 -16 -6 -35
-6 -19 0 -35 4 -35 7 0 4 -12 4 -27 0 -16 -4 -40 -4 -55 0 -15 4 -29 5 -32 2
-10 -10 -51 -9 -58 2 -11 14 -10 27 1 20 5 -3 157 -5 338 -5z m432 -54 c7 -4
12 -22 11 -40 -3 -45 1 -55 10 -26 5 17 7 3 6 -40 -2 -64 -2 -65 -35 -76 -40
-13 -2126 -14 -2153 -1 -16 8 -44 104 -33 115 3 3 5 0 5 -6 0 -7 5 -12 11 -12
8 0 10 12 6 33 -7 46 1 55 53 59 99 7 2107 1 2119 -6z"/>
<path d="M1137 4083 c-4 -3 -7 -29 -7 -56 0 -66 17 -49 19 19 1 18 6 20 29 16
16 -4 20 -7 11 -9 -9 -2 -22 -22 -29 -43 -7 -22 -17 -40 -22 -40 -4 0 -8 -9
-8 -21 0 -19 2 -18 24 8 25 30 66 106 66 123 0 11 -72 14 -83 3z"/>
<path d="M1226 4038 c-14 -29 -41 -70 -61 -91 -38 -42 -42 -52 -22 -60 20 -8
32 3 56 50 12 24 35 64 51 90 34 53 36 63 15 63 -8 0 -26 -24 -39 -52z"/>
<path d="M1332 4083 c2 -5 10 -21 17 -38 64 -141 105 -218 109 -202 4 20 -4
42 -51 147 -29 66 -53 100 -69 100 -5 0 -8 -3 -6 -7z"/>
<path d="M1380 4075 c0 -8 5 -15 10 -15 6 0 10 7 10 15 0 8 -4 15 -10 15 -5 0
-10 -7 -10 -15z"/>
<path d="M1423 4083 c-20 -7 -15 -53 12 -111 14 -30 25 -60 25 -67 0 -8 4 -16
9 -19 6 -4 10 39 10 101 1 58 -1 104 -4 101 -3 -3 -6 -33 -6 -67 -1 -33 -4
-61 -8 -61 -3 0 -11 16 -17 36 -9 29 -9 37 2 41 28 11 5 56 -23 46z"/>
<path d="M946 3710 c3 -30 -1 -84 -8 -119 -11 -54 -19 -67 -48 -89 l-35 -24
29 25 c22 19 31 37 37 79 4 29 10 67 14 83 5 22 4 26 -4 15 -6 -8 -13 -41 -17
-72 -4 -32 -13 -66 -21 -75 -13 -17 -14 -16 -9 7 16 81 27 161 24 172 -4 10
-28 -99 -42 -190 -1 -7 -8 -18 -14 -24 -20 -20 -14 -28 23 -28 30 0 37 5 48
33 36 84 49 207 28 245 -7 12 -8 1 -5 -38z"/>
<path d="M452 3570 c0 -19 2 -27 5 -17 2 9 2 25 0 35 -3 9 -5 1 -5 -18z"/>
<path d="M337 3553 c-12 -12 -7 -22 8 -17 8 4 15 10 15 15 0 11 -14 12 -23 2z"/>
<path d="M570 3442 c0 -5 7 -15 15 -22 8 -7 15 -8 15 -2 0 5 -7 15 -15 22 -8
7 -15 8 -15 2z"/>
<path d="M1990 3975 c0 -14 4 -25 9 -25 12 0 23 29 15 41 -10 18 -24 9 -24
-16z"/>
<path d="M2231 3716 c3 -3 27 -10 53 -15 26 -5 44 -5 39 -1 -9 9 -101 25 -92
16z"/>
<path d="M1511 3662 c-2 -52 99 -297 107 -260 2 9 -9 39 -23 66 -14 27 -39 87
-55 133 -16 46 -29 74 -29 61z"/>
<path d="M2069 3287 c-14 -11 -14 -14 1 -39 9 -16 20 -25 23 -21 4 3 -1 15
-10 25 -13 15 -14 21 -4 31 10 9 11 8 6 -5 -4 -10 -3 -18 3 -18 12 0 23 26 15
34 -9 8 -16 7 -34 -7z"/>
<path d="M2260 3956 c0 -12 9 -16 38 -15 27 1 30 3 12 6 -14 3 -31 10 -37 15
-10 8 -13 6 -13 -6z"/>
<path d="M2280 3926 c0 -2 15 -9 33 -15 29 -10 30 -9 13 4 -18 14 -46 20 -46
11z"/>
<path d="M643 3993 c4 -6 2 -13 -5 -15 -9 -3 -8 -9 4 -21 16 -16 16 -15 14 8
-1 14 -6 28 -11 33 -4 4 -5 2 -2 -5z"/>
<path d="M1855 3740 c-10 -11 -26 -22 -36 -25 -22 -7 -26 -25 -6 -25 15 0 73
57 65 65 -2 3 -13 -4 -23 -15z"/>
<path d="M1547 3323 c-12 -11 -8 -23 8 -23 8 0 15 7 15 15 0 16 -12 20 -23 8z"/>
<path d="M1996 2988 c-30 -86 -58 -142 -83 -165 l-24 -23 23 0 c20 1 29 16 66
108 24 59 46 113 49 120 3 6 1 12 -4 12 -4 0 -17 -24 -27 -52z"/>
<path d="M1583 2935 c-10 -10 -9 -16 2 -25 8 -7 15 -9 15 -5 0 4 6 2 13 -4 8
-6 16 -9 19 -6 3 3 11 -1 18 -10 11 -13 10 -15 -8 -12 -12 2 -25 6 -28 10 -18
18 -25 4 -8 -15 20 -23 3 -17 -28 9 -13 12 -16 12 -14 1 4 -27 17 -36 46 -33
19 3 30 0 30 -8 0 -8 3 -9 8 -1 9 14 43 15 60 1 8 -6 12 -6 12 2 0 6 -4 11 -8
11 -4 0 -33 22 -63 49 -43 39 -57 46 -66 36z"/>
<path d="M1810 2366 c0 -14 4 -27 8 -30 5 -3 6 8 4 25 -5 35 -12 38 -12 5z"/>
<path d="M850 2400 c0 -5 0 -12 0 -15 0 -12 14 -4 16 10 1 8 -2 15 -7 15 -5 0
-9 -4 -9 -10z"/>
<path d="M1350 2373 c0 -17 -6 -23 -22 -23 -36 0 -68 11 -62 21 7 13 -5 11
-19 -2 -9 -9 -11 -86 -9 -305 l3 -294 64 0 c57 0 65 2 65 19 0 16 -7 19 -45
19 -25 0 -45 -4 -45 -9 0 -5 -4 -9 -10 -9 -5 0 -10 7 -10 15 0 12 13 15 56 15
40 0 54 3 51 13 -2 8 -21 11 -58 9 -42 -3 -51 -1 -42 8 6 7 30 11 57 9 32 -3
46 0 46 8 0 9 -18 13 -57 14 -39 0 -52 3 -38 8 11 5 37 6 58 3 24 -3 37 -1 37
7 0 7 -21 11 -55 11 -30 0 -55 4 -55 9 0 6 23 8 55 5 l55 -6 0 32 c0 27 -3 31
-18 27 -11 -2 -37 -1 -58 3 -37 7 -36 8 19 9 56 1 57 1 57 31 l0 30 -62 0
c-34 0 -58 3 -55 7 4 3 32 5 62 4 l55 -2 0 61 0 62 -50 -4 c-35 -2 -50 1 -50
10 0 8 17 12 50 12 38 0 50 4 50 15 0 12 -13 15 -56 15 -38 0 -53 3 -48 11 4
7 24 9 55 5 48 -7 49 -6 49 20 0 26 -1 26 -50 22 -27 -3 -50 -1 -50 3 0 9 34
13 78 9 19 -1 22 3 22 32 0 18 -5 40 -10 48 -8 12 -10 11 -10 -7z m-15 -43
c-11 -5 -33 -8 -50 -8 l-30 0 30 8 c17 4 39 8 50 8 20 1 20 1 0 -8z m22 -196
c-11 -11 -86 -14 -92 -4 -4 6 15 10 46 10 29 0 50 -3 46 -6z m-3 -46 c-3 -4
-25 -8 -50 -8 -25 0 -43 4 -40 9 4 5 26 9 51 9 24 -1 42 -5 39 -10z m6 -84 c0
-2 -24 -4 -52 -3 -33 0 -46 3 -35 8 18 7 87 3 87 -5z m-17 -61 c-13 -2 -35 -2
-50 0 -16 2 -5 4 22 4 28 0 40 -2 28 -4z"/>
<path d="M1240 1661 c0 -52 1 -92 3 -90 1 2 13 17 27 34 24 29 24 29 1 10
l-23 -20 3 24 c5 28 44 43 91 34 22 -4 27 -10 23 -23 -3 -10 -1 -21 5 -25 8
-5 10 4 8 26 -3 30 -7 35 -38 40 l-35 6 33 2 c31 1 32 3 32 41 l0 41 -65 -3
-65 -2 0 -95z m101 59 c41 0 16 -16 -28 -19 -41 -2 -45 0 -33 14 7 9 20 13 27
10 8 -3 23 -5 34 -5z"/>
<path d="M1098 2323 c-16 -2 -28 -8 -28 -12 0 -4 14 -6 30 -3 17 2 30 8 30 13
0 5 -1 8 -2 8 -2 -1 -15 -4 -30 -6z"/>
<path d="M770 2181 c0 -11 26 -22 34 -14 3 3 3 10 0 14 -7 12 -34 11 -34 0z"/>
<path d="M1096 2174 c-3 -9 -11 -12 -18 -8 -7 4 -10 4 -6 -1 4 -4 0 -14 -10
-21 -9 -7 -15 -15 -12 -17 3 -3 20 8 37 23 18 16 29 32 24 35 -5 2 -12 -2 -15
-11z"/>
<path d="M1516 2190 c12 -13 27 -21 33 -19 6 2 -4 12 -22 22 l-32 18 21 -21z"/>
<path d="M1490 2174 c21 -24 43 -32 65 -23 19 9 19 9 -2 5 -13 -2 -29 4 -39
15 -20 23 -42 26 -24 3z"/>
<path d="M1103 1944 c-6 -13 -8 -26 -3 -29 4 -3 11 7 14 21 9 35 4 39 -11 8z"/>
<path d="M1064 1923 c-3 -16 -10 -39 -15 -52 -5 -13 -8 -25 -6 -28 5 -4 23 41
31 80 4 15 4 27 1 27 -2 0 -7 -12 -11 -27z"/>
<path d="M1121 1908 c-15 -27 -26 -37 -31 -29 -5 9 -9 8 -13 -4 -4 -9 -3 -13
3 -10 16 10 12 -7 -7 -29 -18 -21 -18 -21 4 -2 23 19 78 105 71 111 -2 2 -14
-15 -27 -37z"/>
<path d="M1020 2030 c-19 -4 -26 -8 -16 -9 17 -1 16 -4 -9 -27 -15 -14 -25
-28 -22 -31 3 -3 25 13 48 36 24 23 41 40 39 40 -3 -1 -21 -5 -40 -9z"/>
<path d="M935 1613 c-14 -15 -25 -32 -25 -37 0 -5 1 -7 3 -5 1 2 15 19 31 37
17 17 27 32 23 32 -3 0 -18 -12 -32 -27z"/>
<path d="M1062 1518 c-9 -11 -33 -39 -52 -61 -26 -30 -29 -37 -12 -26 13 8 39
35 58 62 34 47 39 66 6 25z"/>
<path d="M630 1373 c1 -18 18 -35 24 -24 4 6 4 16 1 21 -7 12 -25 13 -25 3z"/>
<path d="M1298 1324 c6 -11 19 -27 28 -35 16 -13 16 -12 6 7 -6 11 -19 27 -28
35 -16 13 -16 12 -6 -7z"/>
<path d="M1772 1265 c-28 -20 -52 -38 -52 -40 0 -9 78 36 95 55 25 28 17 25
-43 -15z"/>
<path d="M634 879 c-3 -6 -2 -15 4 -21 6 -6 11 -2 15 11 5 22 -7 29 -19 10z"/>
<path d="M596 835 c-9 -14 -13 -25 -9 -25 12 1 46 50 35 50 -6 0 -17 -11 -26
-25z"/>
<path d="M1624 821 c2 -15 6 -33 10 -39 3 -6 2 -13 -4 -17 -5 -3 -10 -12 -10
-18 0 -7 7 -3 15 7 16 21 19 53 9 80 -10 27 -24 18 -20 -13z"/>
<path d="M980 820 c0 -16 5 -30 10 -30 6 0 10 7 10 15 0 29 44 12 99 -39 l34
-31 -24 34 c-20 27 -102 81 -124 81 -3 0 -5 -13 -5 -30z"/>
<path d="M691 807 c-6 -6 -11 -20 -11 -32 0 -41 45 -60 70 -30 26 31 -31 90
-59 62z"/>
<path d="M1832 808 c-17 -17 -15 -58 3 -65 19 -7 55 24 55 47 0 27 -37 39 -58
18z"/>
<path d="M429 688 c14 -16 20 -28 14 -28 -5 0 -18 9 -28 20 -10 11 -22 20 -28
20 -5 0 10 -18 34 -39 42 -37 65 -47 41 -18 -7 8 -10 16 -7 19 3 2 -7 15 -23
29 l-27 24 24 -27z"/>
<path d="M1991 726 c10 -8 129 -13 123 -5 -3 5 -33 9 -66 9 -34 0 -59 -2 -57
-4z"/>
<path d="M1980 700 c19 -13 30 -13 30 0 0 6 -10 10 -22 10 -19 0 -20 -2 -8
-10z"/>
<path d="M2014 686 c-3 -8 -13 -12 -22 -9 -14 4 -15 3 -2 -5 10 -8 18 -8 27 0
7 5 20 8 28 4 8 -3 15 -1 15 3 0 8 -23 21 -36 21 -3 0 -7 -6 -10 -14z"/>
<path d="M2070 677 c0 -7 9 -13 20 -13 11 0 20 1 20 3 0 1 -9 7 -20 13 -15 8
-20 8 -20 -3z"/>
<path d="M336 549 c-20 -10 -39 -19 -43 -18 -5 0 -9 -8 -11 -18 -2 -10 0 -14
5 -8 12 16 67 49 59 36 -9 -13 2 -51 14 -51 4 0 7 11 6 24 -2 15 3 27 11 31
19 7 33 -2 33 -21 0 -8 5 -12 10 -9 17 11 11 24 -19 39 -26 14 -31 13 -65 -5z"/>
<path d="M470 533 c0 -12 5 -25 10 -28 13 -8 13 15 0 35 -8 12 -10 11 -10 -7z"/>
<path d="M1900 536 c0 -16 -11 -20 -39 -17 -7 2 -10 -2 -6 -9 4 -7 16 -10 26
-7 25 7 25 -2 0 -11 -18 -6 -18 -9 -4 -27 13 -16 15 -17 10 -2 -4 9 -2 17 3
17 5 0 13 12 16 27 7 27 7 27 16 4 4 -13 5 -28 2 -34 -5 -8 -4 -9 4 -2 7 7 9
21 4 40 -9 31 -32 47 -32 21z"/>
<path d="M2101 524 c-1 -20 23 -40 42 -36 4 1 7 -2 7 -6 0 -5 6 -9 13 -9 6 0
24 -4 38 -7 30 -8 41 7 28 39 -7 18 -9 16 -13 -14 0 -5 -5 -13 -10 -18 -5 -5
-6 -3 -2 5 5 8 0 12 -13 12 -15 0 -21 6 -21 21 0 11 -5 17 -10 14 -6 -4 -8
-11 -5 -16 4 -5 -1 -9 -9 -9 -10 0 -13 6 -10 15 4 8 1 15 -5 15 -6 0 -11 -6
-12 -12 0 -7 -4 -4 -9 7 -8 19 -9 19 -9 -1z"/>
<path d="M1720 450 c17 -11 47 -14 36 -3 -3 4 -17 8 -29 10 -17 2 -19 1 -7 -7z"/>
<path d="M264 337 c-8 -22 4 -87 16 -87 13 0 13 70 0 90 -8 12 -10 12 -16 -3z"/>
<path d="M630 318 c0 -18 5 -40 10 -48 7 -11 10 -4 10 27 0 23 -4 45 -10 48
-6 4 -10 -7 -10 -27z"/>
<path d="M668 344 c-11 -10 -10 -56 2 -74 15 -25 23 -2 14 41 -5 22 -12 37
-16 33z"/>
<path d="M702 300 c0 -48 1 -52 10 -27 6 18 6 36 0 55 -9 24 -10 20 -10 -28z"/>
<path d="M1147 343 c-11 -10 -8 -71 3 -78 6 -4 10 12 10 39 0 47 -2 51 -13 39z"/>
<path d="M1180 306 c0 -25 5 -46 10 -46 6 0 10 18 10 39 0 22 -4 43 -10 46 -6
4 -10 -12 -10 -39z"/>
<path d="M1250 339 c0 -4 -8 -6 -17 -5 -14 1 -19 -8 -21 -35 -2 -27 1 -36 13
-36 12 0 15 6 11 23 -4 13 -2 26 4 29 6 4 10 -8 10 -30 0 -45 20 -37 21 8 l1
32 12 -39 c10 -31 14 -36 19 -22 4 10 7 30 7 46 0 23 -5 28 -30 32 -16 3 -30
1 -30 -3z"/>
<path d="M1439 334 c-3 -10 -2 -35 1 -54 l6 -35 7 32 c7 37 -6 92 -14 57z"/>
<path d="M1936 342 c-3 -5 -1 -22 4 -38 8 -29 8 -29 9 9 1 36 -3 45 -13 29z"/>
<path d="M1971 309 c2 -32 7 -46 17 -46 11 0 13 9 8 35 -9 57 -28 65 -25 11z"/>
<path d="M2154 336 c-3 -7 -1 -29 4 -47 l10 -34 1 48 c1 47 -5 60 -15 33z"/>
<path d="M2320 350 c-5 -17 -9 -93 -4 -82 3 6 10 10 15 6 5 -3 9 3 8 13 -1 20
-16 71 -19 63z"/>
<path d="M2341 333 c0 -10 4 -27 9 -38 7 -16 9 -13 9 18 1 20 -3 37 -9 37 -5
0 -10 -8 -9 -17z"/>
<path d="M207 333 c-2 -5 0 -21 4 -38 7 -29 7 -29 8 8 1 35 -3 46 -12 30z"/>
<path d="M230 299 c0 -24 4 -38 10 -34 6 3 10 22 10 41 0 19 -4 34 -10 34 -5
0 -10 -18 -10 -41z"/>
<path d="M300 301 c0 -30 4 -41 16 -41 11 0 14 9 12 37 -4 52 -28 56 -28 4z"/>
<path d="M340 300 c0 -22 5 -40 10 -40 6 0 10 18 10 40 0 22 -4 40 -10 40 -5
0 -10 -18 -10 -40z"/>
<path d="M378 333 c-2 -5 -1 -26 3 -48 4 -28 7 -33 8 -15 2 14 4 35 7 48 4 20
-10 32 -18 15z"/>
<path d="M408 328 c-2 -7 -2 -28 2 -47 4 -28 7 -31 16 -20 7 8 9 29 7 47 -5
32 -18 42 -25 20z"/>
<path d="M444 309 c3 -17 6 -38 6 -46 0 -8 5 -11 10 -8 19 12 9 85 -12 85 -6
0 -8 -13 -4 -31z"/>
<path d="M482 296 c2 -27 7 -45 13 -43 14 5 13 79 -2 84 -9 3 -12 -9 -11 -41z"/>
<path d="M520 288 c1 -51 1 -52 15 -28 19 34 19 80 0 80 -11 0 -15 -12 -15
-52z"/>
<path d="M565 303 c9 -50 25 -66 25 -26 0 38 -9 63 -22 63 -6 0 -8 -14 -3 -37z"/>
<path d="M600 297 c0 -26 4 -47 9 -47 8 0 3 79 -5 89 -2 2 -4 -17 -4 -42z"/>
<path d="M730 301 c0 -23 4 -40 9 -37 5 4 12 0 14 -6 3 -7 3 5 0 27 -8 57 -23
68 -23 16z"/>
<path d="M761 323 c1 -10 5 -31 9 -48 7 -28 8 -28 9 12 0 23 -3 45 -9 48 -5 3
-9 -2 -9 -12z"/>
<path d="M792 300 c2 -22 9 -42 17 -45 10 -4 12 1 7 17 -3 13 -6 33 -6 46 0
12 -5 22 -10 22 -6 0 -9 -18 -8 -40z"/>
<path d="M821 323 c1 -10 5 -31 9 -48 7 -27 8 -25 9 18 0 26 -3 47 -9 47 -5 0
-9 -8 -9 -17z"/>
<path d="M855 330 c-9 -14 4 -70 16 -70 5 0 10 12 10 28 l1 27 8 -30 c4 -16 8
-23 9 -15 1 12 3 12 10 2 5 -8 7 0 6 23 -3 42 -12 55 -25 35 -7 -10 -10 -11
-10 -2 0 15 -16 16 -25 2z"/>
<path d="M930 300 c0 -26 5 -40 13 -40 9 0 11 12 9 40 -2 22 -8 40 -13 40 -5
0 -9 -18 -9 -40z"/>
<path d="M964 304 c11 -58 28 -68 24 -15 -2 27 -9 46 -17 49 -11 4 -12 -3 -7
-34z"/>
<path d="M1000 295 c0 -25 5 -45 10 -45 6 0 10 20 10 45 0 25 -4 45 -10 45 -5
0 -10 -20 -10 -45z"/>
<path d="M1034 325 c-8 -21 4 -67 16 -60 13 8 13 75 0 75 -6 0 -13 -7 -16 -15z"/>
<path d="M1070 300 c0 -22 5 -40 10 -40 6 0 10 8 10 18 0 9 3 27 6 40 5 16 2
22 -10 22 -12 0 -16 -10 -16 -40z"/>
<path d="M1110 300 c0 -22 5 -40 10 -40 6 0 10 18 10 40 0 22 -4 40 -10 40 -5
0 -10 -18 -10 -40z"/>
<path d="M1320 294 c0 -35 3 -45 11 -37 15 15 17 75 2 80 -9 3 -13 -9 -13 -43z"/>
<path d="M1360 300 c0 -22 5 -40 10 -40 6 0 10 18 10 40 0 22 -4 40 -10 40 -5
0 -10 -18 -10 -40z"/>
<path d="M1398 335 c-10 -10 7 -68 21 -73 10 -3 12 0 8 12 -4 10 -7 29 -7 42
0 22 -10 31 -22 19z"/>
<path d="M1470 313 c0 -16 5 -35 10 -43 7 -11 10 -4 10 28 0 23 -4 42 -10 42
-5 0 -10 -12 -10 -27z"/>
<path d="M1503 324 c-3 -8 -1 -29 5 -47 10 -32 10 -31 11 16 1 48 -5 60 -16
31z"/>
<path d="M1534 326 c-3 -7 2 -29 10 -47 l14 -34 1 48 c1 44 -13 64 -25 33z"/>
<path d="M1576 331 c-8 -13 5 -71 15 -71 5 0 9 18 9 40 0 37 -11 52 -24 31z"/>
<path d="M1614 325 c-8 -19 4 -67 15 -61 11 7 12 76 0 76 -5 0 -12 -7 -15 -15z"/>
<path d="M1650 300 c0 -22 5 -40 10 -40 6 0 10 18 10 40 0 22 -4 40 -10 40 -5
0 -10 -18 -10 -40z"/>
<path d="M1684 296 c1 -34 4 -42 13 -34 16 13 14 78 -2 78 -8 0 -12 -16 -11
-44z"/>
<path d="M1722 309 c2 -19 8 -33 13 -31 15 3 12 55 -3 60 -10 3 -13 -5 -10
-29z"/>
<path d="M1760 300 c0 -22 5 -40 10 -40 6 0 10 18 10 40 0 22 -4 40 -10 40 -5
0 -10 -18 -10 -40z"/>
<path d="M1790 300 c0 -29 4 -40 15 -40 11 0 15 11 15 40 0 29 -4 40 -15 40
-11 0 -15 -11 -15 -40z"/>
<path d="M1835 299 c5 -58 15 -62 15 -6 0 26 -4 47 -9 47 -5 0 -8 -18 -6 -41z"/>
<path d="M1860 310 c0 -16 5 -30 10 -30 6 0 10 -7 10 -17 0 -9 2 -14 5 -11 9
8 -6 88 -16 88 -5 0 -9 -13 -9 -30z"/>
<path d="M1900 301 c0 -35 2 -38 27 -38 21 0 23 1 10 9 -10 5 -17 21 -17 38 0
17 -4 30 -10 30 -5 0 -10 -17 -10 -39z"/>
<path d="M2010 300 c0 -22 5 -40 10 -40 6 0 10 18 10 40 0 22 -4 40 -10 40 -5
0 -10 -18 -10 -40z"/>
<path d="M2040 295 c0 -25 5 -45 10 -45 6 0 10 20 10 45 0 25 -4 45 -10 45 -5
0 -10 -20 -10 -45z"/>
<path d="M2074 309 c3 -17 6 -39 7 -48 1 -26 17 19 18 52 1 19 -4 27 -15 27
-13 0 -15 -7 -10 -31z"/>
<path d="M2120 316 c0 -13 -3 -33 -6 -43 -5 -14 -4 -15 4 -4 8 11 11 10 15 -5
2 -10 5 2 6 29 0 26 -3 47 -9 47 -5 0 -10 -11 -10 -24z"/>
<path d="M2189 333 c-3 -21 4 -59 12 -67 5 -6 9 6 9 32 0 23 -4 42 -10 42 -5
0 -10 -3 -11 -7z"/>
<path d="M2230 305 c0 -19 5 -35 10 -35 6 0 10 16 10 35 0 19 -4 35 -10 35 -5
0 -10 -16 -10 -35z"/>
<path d="M2262 300 c3 -45 17 -54 19 -12 l1 27 8 -30 c7 -28 8 -27 9 13 1 36
-2 42 -19 42 -18 0 -20 -6 -18 -40z"/>
<path d="M2306 3284 c-9 -8 -16 -19 -16 -24 0 -15 38 -55 46 -47 4 4 2 13 -4
19 -7 7 -12 16 -12 20 0 14 29 8 38 -8 8 -15 10 -15 15 0 4 10 -2 25 -13 36
-24 24 -34 25 -54 4z"/>
<path d="M222 3278 c-6 -6 -12 -19 -12 -28 0 -18 30 -50 46 -50 5 0 1 5 -8 11
-24 14 -23 39 2 39 12 0 20 -7 20 -17 0 -12 3 -14 11 -6 6 6 9 21 7 34 -3 27
-45 38 -66 17z"/>
<path d="M167 3103 c-9 -9 -8 -665 1 -679 4 -6 18 -14 32 -17 95 -22 95 -23
98 -47 9 -85 35 -99 30 -18 l-3 52 -60 18 c-33 9 -62 17 -65 18 -3 0 -9 44
-13 97 -8 107 -8 105 -3 148 3 17 5 33 5 37 1 4 29 6 64 5 34 -1 63 2 65 8 1
6 -25 10 -63 10 -36 0 -65 2 -66 5 0 3 -2 81 -3 174 -2 155 0 169 16 174 10 2
18 8 18 13 0 10 -43 12 -53 2z"/>
<path d="M2365 3100 c-3 -5 3 -10 14 -10 20 0 21 -5 21 -175 l0 -175 -70 0
c-40 0 -70 -4 -70 -10 0 -6 30 -10 70 -10 l70 0 0 -135 c0 -122 -2 -137 -20
-155 -11 -11 -31 -20 -44 -20 -13 0 -38 -3 -55 -6 -30 -6 -31 -8 -31 -60 0
-68 15 -70 24 -4 6 46 9 50 34 50 14 0 46 7 69 16 l43 17 0 343 0 344 -24 0
c-14 0 -28 -4 -31 -10z"/>
<path d="M285 3007 c-29 -29 -35 -42 -35 -77 0 -91 106 -135 170 -71 36 35 46
73 30 110 -17 42 -43 62 -89 68 -36 5 -44 2 -76 -30z m91 -11 c21 -21 17 -43
-8 -50 -36 -9 -39 -7 -28 14 6 11 7 20 1 20 -5 0 -12 -11 -15 -25 -7 -27 -26
-25 -26 2 0 21 29 53 47 53 8 0 21 -6 29 -14z m-36 -101 c0 6 11 12 25 13 14
1 25 -2 25 -6 -1 -18 -17 -31 -35 -27 -11 2 -28 4 -38 4 -15 1 -16 3 -5 15 9
10 15 11 20 2 5 -6 8 -7 8 -1z"/>
<path d="M2205 3033 c-30 -8 -63 -42 -70 -74 -23 -102 103 -173 176 -100 33
34 38 74 13 126 -20 44 -64 61 -119 48z m53 -45 c17 -17 -4 -48 -32 -48 -13 0
-29 7 -36 15 -25 30 39 62 68 33z m19 -77 c12 -18 10 -19 -25 -15 l-37 5 30
-14 30 -14 -32 1 c-17 1 -29 4 -27 7 2 4 -7 10 -21 13 -14 4 -25 12 -25 18 0
9 3 9 12 0 14 -14 42 -17 34 -3 -3 4 6 6 21 3 18 -3 24 -1 19 7 -4 6 -3 11 1
11 5 0 14 -9 20 -19z"/>
<path d="M2088 2772 c-48 -9 5 -45 60 -40 52 4 50 31 -3 38 -22 3 -48 4 -57 2z"/>
<path d="M420 2746 c0 -23 17 -28 70 -21 33 5 50 12 50 21 0 10 -15 14 -60 14
-46 0 -60 -3 -60 -14z"/>
<path d="M304 2630 c-54 -22 -72 -100 -31 -138 40 -37 92 -27 112 22 l13 31
13 -28 c16 -35 43 -38 29 -2 -42 109 -77 139 -136 115z m53 -55 c3 -9 4 -18 2
-20 -8 -7 -59 -14 -56 -7 2 4 7 15 10 25 8 21 36 22 44 2z"/>
<path d="M2186 2576 c-25 -36 -46 -69 -46 -75 0 -19 19 -12 36 14 21 33 30 32
37 -4 7 -34 33 -46 78 -36 30 7 31 9 25 47 -9 58 -43 118 -65 118 -12 0 -36
-24 -65 -64z m72 -14 c2 -12 -1 -22 -6 -22 -15 0 -34 28 -27 40 10 17 30 6 33
-18z"/>
<path d="M380 2381 c0 -8 52 -23 59 -16 1 2 0 8 -4 14 -8 13 -55 15 -55 2z"/>
<path d="M2140 2380 c-8 -5 -12 -12 -8 -15 8 -8 58 5 58 16 0 12 -31 11 -50
-1z"/>
<path d="M393 2298 c2 -7 16 -13 32 -13 16 0 30 6 33 13 2 8 -8 12 -33 12 -25
0 -35 -4 -32 -12z"/>
<path d="M2115 2300 c-3 -6 0 -13 9 -16 22 -8 59 -1 64 14 5 15 -64 17 -73 2z"/>
<path d="M663 2269 c-15 -15 -17 -67 -3 -89 15 -24 21 -6 18 49 -2 42 -5 50
-15 40z"/>
<path d="M1930 2230 c0 -27 5 -50 10 -50 6 0 10 23 10 50 0 28 -4 50 -10 50
-5 0 -10 -22 -10 -50z"/>
<path d="M430 2212 c-83 -11 -118 -55 -123 -155 -2 -37 -2 -69 1 -71 2 -3 27
21 56 52 28 31 78 83 111 114 37 35 54 58 45 59 -32 4 -66 5 -90 1z m-23 -39
c-4 -3 -1 -13 6 -21 8 -11 8 -13 0 -9 -7 4 -22 -11 -40 -38 -32 -51 -43 -56
-43 -19 0 38 37 94 62 94 12 0 18 -3 15 -7z"/>
<path d="M360 2139 c-6 -11 -10 -26 -8 -34 2 -7 11 2 20 21 19 36 7 49 -12 13z"/>
<path d="M2070 2214 c0 -9 10 -21 133 -154 l67 -74 0 68 c0 77 -21 124 -65
144 -34 16 -135 27 -135 16z m163 -89 c18 -38 22 -70 8 -61 -5 3 -12 21 -15
40 -5 24 -11 33 -20 30 -8 -3 -17 -1 -21 5 -4 7 0 8 11 4 12 -4 15 -3 10 5 -4
7 -3 12 2 12 4 0 16 -16 25 -35z"/>
<path d="M484 1998 c-24 -11 -44 -48 -44 -79 0 -11 13 -34 29 -50 24 -24 35
-28 63 -23 41 7 78 46 78 82 0 32 -7 43 -40 65 -27 19 -55 21 -86 5z m56 -43
c13 -16 6 -35 -15 -35 -18 0 -28 17 -21 35 7 19 20 19 36 0z"/>
<path d="M2006 1989 c-21 -16 -26 -29 -26 -63 0 -53 26 -80 77 -80 62 0 106
78 70 125 -32 42 -81 49 -121 18z m72 -47 c3 -17 -2 -22 -17 -22 -14 0 -21 6
-21 18 0 38 33 41 38 4z"/>
<path d="M340 1771 c0 -13 297 -14 305 -1 4 7 -47 10 -149 10 -90 0 -156 -4
-156 -9z"/>
<path d="M2105 1665 c-41 -40 -26 -95 25 -95 36 0 36 -4 9 -38 -24 -31 -8 -44
21 -17 17 15 19 15 34 -7 l16 -22 0 22 c0 12 -6 22 -14 22 -25 0 -28 19 -7 46
27 34 27 68 -1 94 -29 27 -54 25 -83 -5z m70 -40 c0 -24 -5 -31 -24 -33 -31
-5 -45 11 -37 43 5 21 12 26 34 23 23 -2 27 -8 27 -33z"/>
<path d="M449 1621 c35 -32 39 -56 15 -89 -18 -26 -56 -29 -74 -6 -19 21 -16
69 3 89 22 22 21 28 -2 13 -23 -14 -51 -60 -51 -82 0 -10 11 -28 25 -41 27
-28 79 -33 107 -11 16 12 38 56 38 76 0 16 -62 80 -77 80 -10 0 -4 -10 16 -29z"/>
<path d="M406 1597 c-28 -20 -17 -60 17 -64 24 -3 27 -1 27 25 0 39 -20 56
-44 39z"/>
<path d="M333 1324 c-7 -3 -17 -21 -24 -41 -10 -31 -9 -39 8 -62 11 -14 32
-27 48 -29 35 -5 75 32 75 69 0 46 -61 81 -107 63z m62 -44 c10 -16 -13 -39
-34 -33 -13 3 -17 11 -14 24 6 20 37 26 48 9z"/>
<path d="M2162 1314 c-29 -20 -30 -76 -2 -104 41 -41 120 -8 120 51 0 30 -9
43 -37 58 -30 15 -54 14 -81 -5z m68 -43 c0 -20 -17 -31 -37 -24 -7 3 -13 13
-13 24 0 14 7 19 25 19 18 0 25 -5 25 -19z"/>
</g>
</svg>
